G04 #@! TF.FileFunction,Soldermask,Top*
%FSLAX46Y46*%
G04 Gerber Fmt 4.6, Leading zero omitted, Abs format (unit mm)*
G04 Created by KiCad (PCBNEW 0.201511251016+6329~38~ubuntu15.10.1-stable) date tis  1 dec 2015 15:17:35*
%MOMM*%
G01*
G04 APERTURE LIST*
%ADD10C,0.149860*%
%ADD11C,0.300000*%
%ADD12C,0.304800*%
%ADD13C,0.150000*%
%ADD14C,0.500000*%
%ADD15C,0.100000*%
%ADD16C,0.406400*%
%ADD17C,1.340000*%
%ADD18C,2.082800*%
G04 APERTURE END LIST*
D10*
D11*
G36*
X77675000Y-103902500D02*
X78875000Y-103902500D01*
X78875000Y-102902500D01*
X77675000Y-102902500D01*
X77675000Y-103902500D01*
G37*
X77675000Y-103902500D02*
X78875000Y-103902500D01*
X78875000Y-102902500D01*
X77675000Y-102902500D01*
X77675000Y-103902500D01*
G36*
X81075000Y-103902500D02*
X79875000Y-103902500D01*
X79875000Y-102902500D01*
X81075000Y-102902500D01*
X81075000Y-103902500D01*
G37*
X81075000Y-103902500D02*
X79875000Y-103902500D01*
X79875000Y-102902500D01*
X81075000Y-102902500D01*
X81075000Y-103902500D01*
G36*
X81075000Y-101202500D02*
X79875000Y-101202500D01*
X79875000Y-102202500D01*
X81075000Y-102202500D01*
X81075000Y-101202500D01*
G37*
X81075000Y-101202500D02*
X79875000Y-101202500D01*
X79875000Y-102202500D01*
X81075000Y-102202500D01*
X81075000Y-101202500D01*
G36*
X77675000Y-101202500D02*
X78875000Y-101202500D01*
X78875000Y-102202500D01*
X77675000Y-102202500D01*
X77675000Y-101202500D01*
G37*
X77675000Y-101202500D02*
X78875000Y-101202500D01*
X78875000Y-102202500D01*
X77675000Y-102202500D01*
X77675000Y-101202500D01*
D12*
G36*
X80365600Y-55524400D02*
X79654400Y-55524400D01*
X79654400Y-54965600D01*
X80365600Y-54965600D01*
X80365600Y-55524400D01*
G37*
X80365600Y-55524400D02*
X79654400Y-55524400D01*
X79654400Y-54965600D01*
X80365600Y-54965600D01*
X80365600Y-55524400D01*
G36*
X80365600Y-53695600D02*
X79654400Y-53695600D01*
X79654400Y-54254400D01*
X80365600Y-54254400D01*
X80365600Y-53695600D01*
G37*
X80365600Y-53695600D02*
X79654400Y-53695600D01*
X79654400Y-54254400D01*
X80365600Y-54254400D01*
X80365600Y-53695600D01*
G36*
X76555600Y-55524400D02*
X75844400Y-55524400D01*
X75844400Y-54965600D01*
X76555600Y-54965600D01*
X76555600Y-55524400D01*
G37*
X76555600Y-55524400D02*
X75844400Y-55524400D01*
X75844400Y-54965600D01*
X76555600Y-54965600D01*
X76555600Y-55524400D01*
G36*
X76555600Y-53695600D02*
X75844400Y-53695600D01*
X75844400Y-54254400D01*
X76555600Y-54254400D01*
X76555600Y-53695600D01*
G37*
X76555600Y-53695600D02*
X75844400Y-53695600D01*
X75844400Y-54254400D01*
X76555600Y-54254400D01*
X76555600Y-53695600D01*
G36*
X72745600Y-55524400D02*
X72034400Y-55524400D01*
X72034400Y-54965600D01*
X72745600Y-54965600D01*
X72745600Y-55524400D01*
G37*
X72745600Y-55524400D02*
X72034400Y-55524400D01*
X72034400Y-54965600D01*
X72745600Y-54965600D01*
X72745600Y-55524400D01*
G36*
X72745600Y-53695600D02*
X72034400Y-53695600D01*
X72034400Y-54254400D01*
X72745600Y-54254400D01*
X72745600Y-53695600D01*
G37*
X72745600Y-53695600D02*
X72034400Y-53695600D01*
X72034400Y-54254400D01*
X72745600Y-54254400D01*
X72745600Y-53695600D01*
G36*
X72428100Y-99656900D02*
X71716900Y-99656900D01*
X71716900Y-99098100D01*
X72428100Y-99098100D01*
X72428100Y-99656900D01*
G37*
X72428100Y-99656900D02*
X71716900Y-99656900D01*
X71716900Y-99098100D01*
X72428100Y-99098100D01*
X72428100Y-99656900D01*
G36*
X72428100Y-97828100D02*
X71716900Y-97828100D01*
X71716900Y-98386900D01*
X72428100Y-98386900D01*
X72428100Y-97828100D01*
G37*
X72428100Y-97828100D02*
X71716900Y-97828100D01*
X71716900Y-98386900D01*
X72428100Y-98386900D01*
X72428100Y-97828100D01*
G36*
X74333100Y-99656900D02*
X73621900Y-99656900D01*
X73621900Y-99098100D01*
X74333100Y-99098100D01*
X74333100Y-99656900D01*
G37*
X74333100Y-99656900D02*
X73621900Y-99656900D01*
X73621900Y-99098100D01*
X74333100Y-99098100D01*
X74333100Y-99656900D01*
G36*
X74333100Y-97828100D02*
X73621900Y-97828100D01*
X73621900Y-98386900D01*
X74333100Y-98386900D01*
X74333100Y-97828100D01*
G37*
X74333100Y-97828100D02*
X73621900Y-97828100D01*
X73621900Y-98386900D01*
X74333100Y-98386900D01*
X74333100Y-97828100D01*
G36*
X82270600Y-81876900D02*
X81559400Y-81876900D01*
X81559400Y-81318100D01*
X82270600Y-81318100D01*
X82270600Y-81876900D01*
G37*
X82270600Y-81876900D02*
X81559400Y-81876900D01*
X81559400Y-81318100D01*
X82270600Y-81318100D01*
X82270600Y-81876900D01*
G36*
X82270600Y-80048100D02*
X81559400Y-80048100D01*
X81559400Y-80606900D01*
X82270600Y-80606900D01*
X82270600Y-80048100D01*
G37*
X82270600Y-80048100D02*
X81559400Y-80048100D01*
X81559400Y-80606900D01*
X82270600Y-80606900D01*
X82270600Y-80048100D01*
G36*
X34251900Y-53695600D02*
X34963100Y-53695600D01*
X34963100Y-54254400D01*
X34251900Y-54254400D01*
X34251900Y-53695600D01*
G37*
X34251900Y-53695600D02*
X34963100Y-53695600D01*
X34963100Y-54254400D01*
X34251900Y-54254400D01*
X34251900Y-53695600D01*
G36*
X34251900Y-55524400D02*
X34963100Y-55524400D01*
X34963100Y-54965600D01*
X34251900Y-54965600D01*
X34251900Y-55524400D01*
G37*
X34251900Y-55524400D02*
X34963100Y-55524400D01*
X34963100Y-54965600D01*
X34251900Y-54965600D01*
X34251900Y-55524400D01*
G36*
X27901900Y-68935600D02*
X28613100Y-68935600D01*
X28613100Y-69494400D01*
X27901900Y-69494400D01*
X27901900Y-68935600D01*
G37*
X27901900Y-68935600D02*
X28613100Y-68935600D01*
X28613100Y-69494400D01*
X27901900Y-69494400D01*
X27901900Y-68935600D01*
G36*
X27901900Y-70764400D02*
X28613100Y-70764400D01*
X28613100Y-70205600D01*
X27901900Y-70205600D01*
X27901900Y-70764400D01*
G37*
X27901900Y-70764400D02*
X28613100Y-70764400D01*
X28613100Y-70205600D01*
X27901900Y-70205600D01*
X27901900Y-70764400D01*
G36*
X43776900Y-53695600D02*
X44488100Y-53695600D01*
X44488100Y-54254400D01*
X43776900Y-54254400D01*
X43776900Y-53695600D01*
G37*
X43776900Y-53695600D02*
X44488100Y-53695600D01*
X44488100Y-54254400D01*
X43776900Y-54254400D01*
X43776900Y-53695600D01*
G36*
X43776900Y-55524400D02*
X44488100Y-55524400D01*
X44488100Y-54965600D01*
X43776900Y-54965600D01*
X43776900Y-55524400D01*
G37*
X43776900Y-55524400D02*
X44488100Y-55524400D01*
X44488100Y-54965600D01*
X43776900Y-54965600D01*
X43776900Y-55524400D01*
G36*
X37426900Y-68935600D02*
X38138100Y-68935600D01*
X38138100Y-69494400D01*
X37426900Y-69494400D01*
X37426900Y-68935600D01*
G37*
X37426900Y-68935600D02*
X38138100Y-68935600D01*
X38138100Y-69494400D01*
X37426900Y-69494400D01*
X37426900Y-68935600D01*
G36*
X37426900Y-70764400D02*
X38138100Y-70764400D01*
X38138100Y-70205600D01*
X37426900Y-70205600D01*
X37426900Y-70764400D01*
G37*
X37426900Y-70764400D02*
X38138100Y-70764400D01*
X38138100Y-70205600D01*
X37426900Y-70205600D01*
X37426900Y-70764400D01*
G36*
X57429400Y-53695600D02*
X58140600Y-53695600D01*
X58140600Y-54254400D01*
X57429400Y-54254400D01*
X57429400Y-53695600D01*
G37*
X57429400Y-53695600D02*
X58140600Y-53695600D01*
X58140600Y-54254400D01*
X57429400Y-54254400D01*
X57429400Y-53695600D01*
G36*
X57429400Y-55524400D02*
X58140600Y-55524400D01*
X58140600Y-54965600D01*
X57429400Y-54965600D01*
X57429400Y-55524400D01*
G37*
X57429400Y-55524400D02*
X58140600Y-55524400D01*
X58140600Y-54965600D01*
X57429400Y-54965600D01*
X57429400Y-55524400D01*
G36*
X51079400Y-68935600D02*
X51790600Y-68935600D01*
X51790600Y-69494400D01*
X51079400Y-69494400D01*
X51079400Y-68935600D01*
G37*
X51079400Y-68935600D02*
X51790600Y-68935600D01*
X51790600Y-69494400D01*
X51079400Y-69494400D01*
X51079400Y-68935600D01*
G36*
X51079400Y-70764400D02*
X51790600Y-70764400D01*
X51790600Y-70205600D01*
X51079400Y-70205600D01*
X51079400Y-70764400D01*
G37*
X51079400Y-70764400D02*
X51790600Y-70764400D01*
X51790600Y-70205600D01*
X51079400Y-70205600D01*
X51079400Y-70764400D01*
G36*
X66954400Y-53695600D02*
X67665600Y-53695600D01*
X67665600Y-54254400D01*
X66954400Y-54254400D01*
X66954400Y-53695600D01*
G37*
X66954400Y-53695600D02*
X67665600Y-53695600D01*
X67665600Y-54254400D01*
X66954400Y-54254400D01*
X66954400Y-53695600D01*
G36*
X66954400Y-55524400D02*
X67665600Y-55524400D01*
X67665600Y-54965600D01*
X66954400Y-54965600D01*
X66954400Y-55524400D01*
G37*
X66954400Y-55524400D02*
X67665600Y-55524400D01*
X67665600Y-54965600D01*
X66954400Y-54965600D01*
X66954400Y-55524400D01*
G36*
X60604400Y-68935600D02*
X61315600Y-68935600D01*
X61315600Y-69494400D01*
X60604400Y-69494400D01*
X60604400Y-68935600D01*
G37*
X60604400Y-68935600D02*
X61315600Y-68935600D01*
X61315600Y-69494400D01*
X60604400Y-69494400D01*
X60604400Y-68935600D01*
G36*
X60604400Y-70764400D02*
X61315600Y-70764400D01*
X61315600Y-70205600D01*
X60604400Y-70205600D01*
X60604400Y-70764400D01*
G37*
X60604400Y-70764400D02*
X61315600Y-70764400D01*
X61315600Y-70205600D01*
X60604400Y-70205600D01*
X60604400Y-70764400D01*
G36*
X90131900Y-53695600D02*
X90843100Y-53695600D01*
X90843100Y-54254400D01*
X90131900Y-54254400D01*
X90131900Y-53695600D01*
G37*
X90131900Y-53695600D02*
X90843100Y-53695600D01*
X90843100Y-54254400D01*
X90131900Y-54254400D01*
X90131900Y-53695600D01*
G36*
X90131900Y-55524400D02*
X90843100Y-55524400D01*
X90843100Y-54965600D01*
X90131900Y-54965600D01*
X90131900Y-55524400D01*
G37*
X90131900Y-55524400D02*
X90843100Y-55524400D01*
X90843100Y-54965600D01*
X90131900Y-54965600D01*
X90131900Y-55524400D01*
G36*
X83781900Y-68935600D02*
X84493100Y-68935600D01*
X84493100Y-69494400D01*
X83781900Y-69494400D01*
X83781900Y-68935600D01*
G37*
X83781900Y-68935600D02*
X84493100Y-68935600D01*
X84493100Y-69494400D01*
X83781900Y-69494400D01*
X83781900Y-68935600D01*
G36*
X83781900Y-70764400D02*
X84493100Y-70764400D01*
X84493100Y-70205600D01*
X83781900Y-70205600D01*
X83781900Y-70764400D01*
G37*
X83781900Y-70764400D02*
X84493100Y-70764400D01*
X84493100Y-70205600D01*
X83781900Y-70205600D01*
X83781900Y-70764400D01*
G36*
X99656900Y-53695600D02*
X100368100Y-53695600D01*
X100368100Y-54254400D01*
X99656900Y-54254400D01*
X99656900Y-53695600D01*
G37*
X99656900Y-53695600D02*
X100368100Y-53695600D01*
X100368100Y-54254400D01*
X99656900Y-54254400D01*
X99656900Y-53695600D01*
G36*
X99656900Y-55524400D02*
X100368100Y-55524400D01*
X100368100Y-54965600D01*
X99656900Y-54965600D01*
X99656900Y-55524400D01*
G37*
X99656900Y-55524400D02*
X100368100Y-55524400D01*
X100368100Y-54965600D01*
X99656900Y-54965600D01*
X99656900Y-55524400D01*
G36*
X93306900Y-68935600D02*
X94018100Y-68935600D01*
X94018100Y-69494400D01*
X93306900Y-69494400D01*
X93306900Y-68935600D01*
G37*
X93306900Y-68935600D02*
X94018100Y-68935600D01*
X94018100Y-69494400D01*
X93306900Y-69494400D01*
X93306900Y-68935600D01*
G36*
X93306900Y-70764400D02*
X94018100Y-70764400D01*
X94018100Y-70205600D01*
X93306900Y-70205600D01*
X93306900Y-70764400D01*
G37*
X93306900Y-70764400D02*
X94018100Y-70764400D01*
X94018100Y-70205600D01*
X93306900Y-70205600D01*
X93306900Y-70764400D01*
G36*
X113309400Y-53695600D02*
X114020600Y-53695600D01*
X114020600Y-54254400D01*
X113309400Y-54254400D01*
X113309400Y-53695600D01*
G37*
X113309400Y-53695600D02*
X114020600Y-53695600D01*
X114020600Y-54254400D01*
X113309400Y-54254400D01*
X113309400Y-53695600D01*
G36*
X113309400Y-55524400D02*
X114020600Y-55524400D01*
X114020600Y-54965600D01*
X113309400Y-54965600D01*
X113309400Y-55524400D01*
G37*
X113309400Y-55524400D02*
X114020600Y-55524400D01*
X114020600Y-54965600D01*
X113309400Y-54965600D01*
X113309400Y-55524400D01*
G36*
X106959400Y-68935600D02*
X107670600Y-68935600D01*
X107670600Y-69494400D01*
X106959400Y-69494400D01*
X106959400Y-68935600D01*
G37*
X106959400Y-68935600D02*
X107670600Y-68935600D01*
X107670600Y-69494400D01*
X106959400Y-69494400D01*
X106959400Y-68935600D01*
G36*
X106959400Y-70764400D02*
X107670600Y-70764400D01*
X107670600Y-70205600D01*
X106959400Y-70205600D01*
X106959400Y-70764400D01*
G37*
X106959400Y-70764400D02*
X107670600Y-70764400D01*
X107670600Y-70205600D01*
X106959400Y-70205600D01*
X106959400Y-70764400D01*
G36*
X122834400Y-53695600D02*
X123545600Y-53695600D01*
X123545600Y-54254400D01*
X122834400Y-54254400D01*
X122834400Y-53695600D01*
G37*
X122834400Y-53695600D02*
X123545600Y-53695600D01*
X123545600Y-54254400D01*
X122834400Y-54254400D01*
X122834400Y-53695600D01*
G36*
X122834400Y-55524400D02*
X123545600Y-55524400D01*
X123545600Y-54965600D01*
X122834400Y-54965600D01*
X122834400Y-55524400D01*
G37*
X122834400Y-55524400D02*
X123545600Y-55524400D01*
X123545600Y-54965600D01*
X122834400Y-54965600D01*
X122834400Y-55524400D01*
G36*
X116484400Y-68935600D02*
X117195600Y-68935600D01*
X117195600Y-69494400D01*
X116484400Y-69494400D01*
X116484400Y-68935600D01*
G37*
X116484400Y-68935600D02*
X117195600Y-68935600D01*
X117195600Y-69494400D01*
X116484400Y-69494400D01*
X116484400Y-68935600D01*
G36*
X116484400Y-70764400D02*
X117195600Y-70764400D01*
X117195600Y-70205600D01*
X116484400Y-70205600D01*
X116484400Y-70764400D01*
G37*
X116484400Y-70764400D02*
X117195600Y-70764400D01*
X117195600Y-70205600D01*
X116484400Y-70205600D01*
X116484400Y-70764400D01*
G36*
X32346900Y-53695600D02*
X33058100Y-53695600D01*
X33058100Y-54254400D01*
X32346900Y-54254400D01*
X32346900Y-53695600D01*
G37*
X32346900Y-53695600D02*
X33058100Y-53695600D01*
X33058100Y-54254400D01*
X32346900Y-54254400D01*
X32346900Y-53695600D01*
G36*
X32346900Y-55524400D02*
X33058100Y-55524400D01*
X33058100Y-54965600D01*
X32346900Y-54965600D01*
X32346900Y-55524400D01*
G37*
X32346900Y-55524400D02*
X33058100Y-55524400D01*
X33058100Y-54965600D01*
X32346900Y-54965600D01*
X32346900Y-55524400D01*
G36*
X29806900Y-68935600D02*
X30518100Y-68935600D01*
X30518100Y-69494400D01*
X29806900Y-69494400D01*
X29806900Y-68935600D01*
G37*
X29806900Y-68935600D02*
X30518100Y-68935600D01*
X30518100Y-69494400D01*
X29806900Y-69494400D01*
X29806900Y-68935600D01*
G36*
X29806900Y-70764400D02*
X30518100Y-70764400D01*
X30518100Y-70205600D01*
X29806900Y-70205600D01*
X29806900Y-70764400D01*
G37*
X29806900Y-70764400D02*
X30518100Y-70764400D01*
X30518100Y-70205600D01*
X29806900Y-70205600D01*
X29806900Y-70764400D01*
G36*
X41871900Y-53695600D02*
X42583100Y-53695600D01*
X42583100Y-54254400D01*
X41871900Y-54254400D01*
X41871900Y-53695600D01*
G37*
X41871900Y-53695600D02*
X42583100Y-53695600D01*
X42583100Y-54254400D01*
X41871900Y-54254400D01*
X41871900Y-53695600D01*
G36*
X41871900Y-55524400D02*
X42583100Y-55524400D01*
X42583100Y-54965600D01*
X41871900Y-54965600D01*
X41871900Y-55524400D01*
G37*
X41871900Y-55524400D02*
X42583100Y-55524400D01*
X42583100Y-54965600D01*
X41871900Y-54965600D01*
X41871900Y-55524400D01*
G36*
X39331900Y-68935600D02*
X40043100Y-68935600D01*
X40043100Y-69494400D01*
X39331900Y-69494400D01*
X39331900Y-68935600D01*
G37*
X39331900Y-68935600D02*
X40043100Y-68935600D01*
X40043100Y-69494400D01*
X39331900Y-69494400D01*
X39331900Y-68935600D01*
G36*
X39331900Y-70764400D02*
X40043100Y-70764400D01*
X40043100Y-70205600D01*
X39331900Y-70205600D01*
X39331900Y-70764400D01*
G37*
X39331900Y-70764400D02*
X40043100Y-70764400D01*
X40043100Y-70205600D01*
X39331900Y-70205600D01*
X39331900Y-70764400D01*
G36*
X55524400Y-53695600D02*
X56235600Y-53695600D01*
X56235600Y-54254400D01*
X55524400Y-54254400D01*
X55524400Y-53695600D01*
G37*
X55524400Y-53695600D02*
X56235600Y-53695600D01*
X56235600Y-54254400D01*
X55524400Y-54254400D01*
X55524400Y-53695600D01*
G36*
X55524400Y-55524400D02*
X56235600Y-55524400D01*
X56235600Y-54965600D01*
X55524400Y-54965600D01*
X55524400Y-55524400D01*
G37*
X55524400Y-55524400D02*
X56235600Y-55524400D01*
X56235600Y-54965600D01*
X55524400Y-54965600D01*
X55524400Y-55524400D01*
G36*
X52984400Y-68935600D02*
X53695600Y-68935600D01*
X53695600Y-69494400D01*
X52984400Y-69494400D01*
X52984400Y-68935600D01*
G37*
X52984400Y-68935600D02*
X53695600Y-68935600D01*
X53695600Y-69494400D01*
X52984400Y-69494400D01*
X52984400Y-68935600D01*
G36*
X52984400Y-70764400D02*
X53695600Y-70764400D01*
X53695600Y-70205600D01*
X52984400Y-70205600D01*
X52984400Y-70764400D01*
G37*
X52984400Y-70764400D02*
X53695600Y-70764400D01*
X53695600Y-70205600D01*
X52984400Y-70205600D01*
X52984400Y-70764400D01*
G36*
X65049400Y-53695600D02*
X65760600Y-53695600D01*
X65760600Y-54254400D01*
X65049400Y-54254400D01*
X65049400Y-53695600D01*
G37*
X65049400Y-53695600D02*
X65760600Y-53695600D01*
X65760600Y-54254400D01*
X65049400Y-54254400D01*
X65049400Y-53695600D01*
G36*
X65049400Y-55524400D02*
X65760600Y-55524400D01*
X65760600Y-54965600D01*
X65049400Y-54965600D01*
X65049400Y-55524400D01*
G37*
X65049400Y-55524400D02*
X65760600Y-55524400D01*
X65760600Y-54965600D01*
X65049400Y-54965600D01*
X65049400Y-55524400D01*
G36*
X62509400Y-68935600D02*
X63220600Y-68935600D01*
X63220600Y-69494400D01*
X62509400Y-69494400D01*
X62509400Y-68935600D01*
G37*
X62509400Y-68935600D02*
X63220600Y-68935600D01*
X63220600Y-69494400D01*
X62509400Y-69494400D01*
X62509400Y-68935600D01*
G36*
X62509400Y-70764400D02*
X63220600Y-70764400D01*
X63220600Y-70205600D01*
X62509400Y-70205600D01*
X62509400Y-70764400D01*
G37*
X62509400Y-70764400D02*
X63220600Y-70764400D01*
X63220600Y-70205600D01*
X62509400Y-70205600D01*
X62509400Y-70764400D01*
G36*
X88226900Y-53695600D02*
X88938100Y-53695600D01*
X88938100Y-54254400D01*
X88226900Y-54254400D01*
X88226900Y-53695600D01*
G37*
X88226900Y-53695600D02*
X88938100Y-53695600D01*
X88938100Y-54254400D01*
X88226900Y-54254400D01*
X88226900Y-53695600D01*
G36*
X88226900Y-55524400D02*
X88938100Y-55524400D01*
X88938100Y-54965600D01*
X88226900Y-54965600D01*
X88226900Y-55524400D01*
G37*
X88226900Y-55524400D02*
X88938100Y-55524400D01*
X88938100Y-54965600D01*
X88226900Y-54965600D01*
X88226900Y-55524400D01*
G36*
X85686900Y-68935600D02*
X86398100Y-68935600D01*
X86398100Y-69494400D01*
X85686900Y-69494400D01*
X85686900Y-68935600D01*
G37*
X85686900Y-68935600D02*
X86398100Y-68935600D01*
X86398100Y-69494400D01*
X85686900Y-69494400D01*
X85686900Y-68935600D01*
G36*
X85686900Y-70764400D02*
X86398100Y-70764400D01*
X86398100Y-70205600D01*
X85686900Y-70205600D01*
X85686900Y-70764400D01*
G37*
X85686900Y-70764400D02*
X86398100Y-70764400D01*
X86398100Y-70205600D01*
X85686900Y-70205600D01*
X85686900Y-70764400D01*
G36*
X97751900Y-53695600D02*
X98463100Y-53695600D01*
X98463100Y-54254400D01*
X97751900Y-54254400D01*
X97751900Y-53695600D01*
G37*
X97751900Y-53695600D02*
X98463100Y-53695600D01*
X98463100Y-54254400D01*
X97751900Y-54254400D01*
X97751900Y-53695600D01*
G36*
X97751900Y-55524400D02*
X98463100Y-55524400D01*
X98463100Y-54965600D01*
X97751900Y-54965600D01*
X97751900Y-55524400D01*
G37*
X97751900Y-55524400D02*
X98463100Y-55524400D01*
X98463100Y-54965600D01*
X97751900Y-54965600D01*
X97751900Y-55524400D01*
G36*
X95211900Y-68935600D02*
X95923100Y-68935600D01*
X95923100Y-69494400D01*
X95211900Y-69494400D01*
X95211900Y-68935600D01*
G37*
X95211900Y-68935600D02*
X95923100Y-68935600D01*
X95923100Y-69494400D01*
X95211900Y-69494400D01*
X95211900Y-68935600D01*
G36*
X95211900Y-70764400D02*
X95923100Y-70764400D01*
X95923100Y-70205600D01*
X95211900Y-70205600D01*
X95211900Y-70764400D01*
G37*
X95211900Y-70764400D02*
X95923100Y-70764400D01*
X95923100Y-70205600D01*
X95211900Y-70205600D01*
X95211900Y-70764400D01*
G36*
X111404400Y-53695600D02*
X112115600Y-53695600D01*
X112115600Y-54254400D01*
X111404400Y-54254400D01*
X111404400Y-53695600D01*
G37*
X111404400Y-53695600D02*
X112115600Y-53695600D01*
X112115600Y-54254400D01*
X111404400Y-54254400D01*
X111404400Y-53695600D01*
G36*
X111404400Y-55524400D02*
X112115600Y-55524400D01*
X112115600Y-54965600D01*
X111404400Y-54965600D01*
X111404400Y-55524400D01*
G37*
X111404400Y-55524400D02*
X112115600Y-55524400D01*
X112115600Y-54965600D01*
X111404400Y-54965600D01*
X111404400Y-55524400D01*
G36*
X108864400Y-68935600D02*
X109575600Y-68935600D01*
X109575600Y-69494400D01*
X108864400Y-69494400D01*
X108864400Y-68935600D01*
G37*
X108864400Y-68935600D02*
X109575600Y-68935600D01*
X109575600Y-69494400D01*
X108864400Y-69494400D01*
X108864400Y-68935600D01*
G36*
X108864400Y-70764400D02*
X109575600Y-70764400D01*
X109575600Y-70205600D01*
X108864400Y-70205600D01*
X108864400Y-70764400D01*
G37*
X108864400Y-70764400D02*
X109575600Y-70764400D01*
X109575600Y-70205600D01*
X108864400Y-70205600D01*
X108864400Y-70764400D01*
G36*
X120929400Y-53695600D02*
X121640600Y-53695600D01*
X121640600Y-54254400D01*
X120929400Y-54254400D01*
X120929400Y-53695600D01*
G37*
X120929400Y-53695600D02*
X121640600Y-53695600D01*
X121640600Y-54254400D01*
X120929400Y-54254400D01*
X120929400Y-53695600D01*
G36*
X120929400Y-55524400D02*
X121640600Y-55524400D01*
X121640600Y-54965600D01*
X120929400Y-54965600D01*
X120929400Y-55524400D01*
G37*
X120929400Y-55524400D02*
X121640600Y-55524400D01*
X121640600Y-54965600D01*
X120929400Y-54965600D01*
X120929400Y-55524400D01*
G36*
X118389400Y-68935600D02*
X119100600Y-68935600D01*
X119100600Y-69494400D01*
X118389400Y-69494400D01*
X118389400Y-68935600D01*
G37*
X118389400Y-68935600D02*
X119100600Y-68935600D01*
X119100600Y-69494400D01*
X118389400Y-69494400D01*
X118389400Y-68935600D01*
G36*
X118389400Y-70764400D02*
X119100600Y-70764400D01*
X119100600Y-70205600D01*
X118389400Y-70205600D01*
X118389400Y-70764400D01*
G37*
X118389400Y-70764400D02*
X119100600Y-70764400D01*
X119100600Y-70205600D01*
X118389400Y-70205600D01*
X118389400Y-70764400D01*
G36*
X30441900Y-53695600D02*
X31153100Y-53695600D01*
X31153100Y-54254400D01*
X30441900Y-54254400D01*
X30441900Y-53695600D01*
G37*
X30441900Y-53695600D02*
X31153100Y-53695600D01*
X31153100Y-54254400D01*
X30441900Y-54254400D01*
X30441900Y-53695600D01*
G36*
X30441900Y-55524400D02*
X31153100Y-55524400D01*
X31153100Y-54965600D01*
X30441900Y-54965600D01*
X30441900Y-55524400D01*
G37*
X30441900Y-55524400D02*
X31153100Y-55524400D01*
X31153100Y-54965600D01*
X30441900Y-54965600D01*
X30441900Y-55524400D01*
G36*
X31711900Y-68935600D02*
X32423100Y-68935600D01*
X32423100Y-69494400D01*
X31711900Y-69494400D01*
X31711900Y-68935600D01*
G37*
X31711900Y-68935600D02*
X32423100Y-68935600D01*
X32423100Y-69494400D01*
X31711900Y-69494400D01*
X31711900Y-68935600D01*
G36*
X31711900Y-70764400D02*
X32423100Y-70764400D01*
X32423100Y-70205600D01*
X31711900Y-70205600D01*
X31711900Y-70764400D01*
G37*
X31711900Y-70764400D02*
X32423100Y-70764400D01*
X32423100Y-70205600D01*
X31711900Y-70205600D01*
X31711900Y-70764400D01*
G36*
X39966900Y-53695600D02*
X40678100Y-53695600D01*
X40678100Y-54254400D01*
X39966900Y-54254400D01*
X39966900Y-53695600D01*
G37*
X39966900Y-53695600D02*
X40678100Y-53695600D01*
X40678100Y-54254400D01*
X39966900Y-54254400D01*
X39966900Y-53695600D01*
G36*
X39966900Y-55524400D02*
X40678100Y-55524400D01*
X40678100Y-54965600D01*
X39966900Y-54965600D01*
X39966900Y-55524400D01*
G37*
X39966900Y-55524400D02*
X40678100Y-55524400D01*
X40678100Y-54965600D01*
X39966900Y-54965600D01*
X39966900Y-55524400D01*
G36*
X41236900Y-68935600D02*
X41948100Y-68935600D01*
X41948100Y-69494400D01*
X41236900Y-69494400D01*
X41236900Y-68935600D01*
G37*
X41236900Y-68935600D02*
X41948100Y-68935600D01*
X41948100Y-69494400D01*
X41236900Y-69494400D01*
X41236900Y-68935600D01*
G36*
X41236900Y-70764400D02*
X41948100Y-70764400D01*
X41948100Y-70205600D01*
X41236900Y-70205600D01*
X41236900Y-70764400D01*
G37*
X41236900Y-70764400D02*
X41948100Y-70764400D01*
X41948100Y-70205600D01*
X41236900Y-70205600D01*
X41236900Y-70764400D01*
G36*
X53619400Y-53695600D02*
X54330600Y-53695600D01*
X54330600Y-54254400D01*
X53619400Y-54254400D01*
X53619400Y-53695600D01*
G37*
X53619400Y-53695600D02*
X54330600Y-53695600D01*
X54330600Y-54254400D01*
X53619400Y-54254400D01*
X53619400Y-53695600D01*
G36*
X53619400Y-55524400D02*
X54330600Y-55524400D01*
X54330600Y-54965600D01*
X53619400Y-54965600D01*
X53619400Y-55524400D01*
G37*
X53619400Y-55524400D02*
X54330600Y-55524400D01*
X54330600Y-54965600D01*
X53619400Y-54965600D01*
X53619400Y-55524400D01*
G36*
X54889400Y-68935600D02*
X55600600Y-68935600D01*
X55600600Y-69494400D01*
X54889400Y-69494400D01*
X54889400Y-68935600D01*
G37*
X54889400Y-68935600D02*
X55600600Y-68935600D01*
X55600600Y-69494400D01*
X54889400Y-69494400D01*
X54889400Y-68935600D01*
G36*
X54889400Y-70764400D02*
X55600600Y-70764400D01*
X55600600Y-70205600D01*
X54889400Y-70205600D01*
X54889400Y-70764400D01*
G37*
X54889400Y-70764400D02*
X55600600Y-70764400D01*
X55600600Y-70205600D01*
X54889400Y-70205600D01*
X54889400Y-70764400D01*
G36*
X63144400Y-53695600D02*
X63855600Y-53695600D01*
X63855600Y-54254400D01*
X63144400Y-54254400D01*
X63144400Y-53695600D01*
G37*
X63144400Y-53695600D02*
X63855600Y-53695600D01*
X63855600Y-54254400D01*
X63144400Y-54254400D01*
X63144400Y-53695600D01*
G36*
X63144400Y-55524400D02*
X63855600Y-55524400D01*
X63855600Y-54965600D01*
X63144400Y-54965600D01*
X63144400Y-55524400D01*
G37*
X63144400Y-55524400D02*
X63855600Y-55524400D01*
X63855600Y-54965600D01*
X63144400Y-54965600D01*
X63144400Y-55524400D01*
G36*
X64414400Y-68935600D02*
X65125600Y-68935600D01*
X65125600Y-69494400D01*
X64414400Y-69494400D01*
X64414400Y-68935600D01*
G37*
X64414400Y-68935600D02*
X65125600Y-68935600D01*
X65125600Y-69494400D01*
X64414400Y-69494400D01*
X64414400Y-68935600D01*
G36*
X64414400Y-70764400D02*
X65125600Y-70764400D01*
X65125600Y-70205600D01*
X64414400Y-70205600D01*
X64414400Y-70764400D01*
G37*
X64414400Y-70764400D02*
X65125600Y-70764400D01*
X65125600Y-70205600D01*
X64414400Y-70205600D01*
X64414400Y-70764400D01*
G36*
X86321900Y-53695600D02*
X87033100Y-53695600D01*
X87033100Y-54254400D01*
X86321900Y-54254400D01*
X86321900Y-53695600D01*
G37*
X86321900Y-53695600D02*
X87033100Y-53695600D01*
X87033100Y-54254400D01*
X86321900Y-54254400D01*
X86321900Y-53695600D01*
G36*
X86321900Y-55524400D02*
X87033100Y-55524400D01*
X87033100Y-54965600D01*
X86321900Y-54965600D01*
X86321900Y-55524400D01*
G37*
X86321900Y-55524400D02*
X87033100Y-55524400D01*
X87033100Y-54965600D01*
X86321900Y-54965600D01*
X86321900Y-55524400D01*
G36*
X87591900Y-68935600D02*
X88303100Y-68935600D01*
X88303100Y-69494400D01*
X87591900Y-69494400D01*
X87591900Y-68935600D01*
G37*
X87591900Y-68935600D02*
X88303100Y-68935600D01*
X88303100Y-69494400D01*
X87591900Y-69494400D01*
X87591900Y-68935600D01*
G36*
X87591900Y-70764400D02*
X88303100Y-70764400D01*
X88303100Y-70205600D01*
X87591900Y-70205600D01*
X87591900Y-70764400D01*
G37*
X87591900Y-70764400D02*
X88303100Y-70764400D01*
X88303100Y-70205600D01*
X87591900Y-70205600D01*
X87591900Y-70764400D01*
G36*
X95846900Y-53695600D02*
X96558100Y-53695600D01*
X96558100Y-54254400D01*
X95846900Y-54254400D01*
X95846900Y-53695600D01*
G37*
X95846900Y-53695600D02*
X96558100Y-53695600D01*
X96558100Y-54254400D01*
X95846900Y-54254400D01*
X95846900Y-53695600D01*
G36*
X95846900Y-55524400D02*
X96558100Y-55524400D01*
X96558100Y-54965600D01*
X95846900Y-54965600D01*
X95846900Y-55524400D01*
G37*
X95846900Y-55524400D02*
X96558100Y-55524400D01*
X96558100Y-54965600D01*
X95846900Y-54965600D01*
X95846900Y-55524400D01*
G36*
X97116900Y-68935600D02*
X97828100Y-68935600D01*
X97828100Y-69494400D01*
X97116900Y-69494400D01*
X97116900Y-68935600D01*
G37*
X97116900Y-68935600D02*
X97828100Y-68935600D01*
X97828100Y-69494400D01*
X97116900Y-69494400D01*
X97116900Y-68935600D01*
G36*
X97116900Y-70764400D02*
X97828100Y-70764400D01*
X97828100Y-70205600D01*
X97116900Y-70205600D01*
X97116900Y-70764400D01*
G37*
X97116900Y-70764400D02*
X97828100Y-70764400D01*
X97828100Y-70205600D01*
X97116900Y-70205600D01*
X97116900Y-70764400D01*
G36*
X109499400Y-53695600D02*
X110210600Y-53695600D01*
X110210600Y-54254400D01*
X109499400Y-54254400D01*
X109499400Y-53695600D01*
G37*
X109499400Y-53695600D02*
X110210600Y-53695600D01*
X110210600Y-54254400D01*
X109499400Y-54254400D01*
X109499400Y-53695600D01*
G36*
X109499400Y-55524400D02*
X110210600Y-55524400D01*
X110210600Y-54965600D01*
X109499400Y-54965600D01*
X109499400Y-55524400D01*
G37*
X109499400Y-55524400D02*
X110210600Y-55524400D01*
X110210600Y-54965600D01*
X109499400Y-54965600D01*
X109499400Y-55524400D01*
G36*
X110769400Y-68935600D02*
X111480600Y-68935600D01*
X111480600Y-69494400D01*
X110769400Y-69494400D01*
X110769400Y-68935600D01*
G37*
X110769400Y-68935600D02*
X111480600Y-68935600D01*
X111480600Y-69494400D01*
X110769400Y-69494400D01*
X110769400Y-68935600D01*
G36*
X110769400Y-70764400D02*
X111480600Y-70764400D01*
X111480600Y-70205600D01*
X110769400Y-70205600D01*
X110769400Y-70764400D01*
G37*
X110769400Y-70764400D02*
X111480600Y-70764400D01*
X111480600Y-70205600D01*
X110769400Y-70205600D01*
X110769400Y-70764400D01*
G36*
X119024400Y-53695600D02*
X119735600Y-53695600D01*
X119735600Y-54254400D01*
X119024400Y-54254400D01*
X119024400Y-53695600D01*
G37*
X119024400Y-53695600D02*
X119735600Y-53695600D01*
X119735600Y-54254400D01*
X119024400Y-54254400D01*
X119024400Y-53695600D01*
G36*
X119024400Y-55524400D02*
X119735600Y-55524400D01*
X119735600Y-54965600D01*
X119024400Y-54965600D01*
X119024400Y-55524400D01*
G37*
X119024400Y-55524400D02*
X119735600Y-55524400D01*
X119735600Y-54965600D01*
X119024400Y-54965600D01*
X119024400Y-55524400D01*
G36*
X120294400Y-68935600D02*
X121005600Y-68935600D01*
X121005600Y-69494400D01*
X120294400Y-69494400D01*
X120294400Y-68935600D01*
G37*
X120294400Y-68935600D02*
X121005600Y-68935600D01*
X121005600Y-69494400D01*
X120294400Y-69494400D01*
X120294400Y-68935600D01*
G36*
X120294400Y-70764400D02*
X121005600Y-70764400D01*
X121005600Y-70205600D01*
X120294400Y-70205600D01*
X120294400Y-70764400D01*
G37*
X120294400Y-70764400D02*
X121005600Y-70764400D01*
X121005600Y-70205600D01*
X120294400Y-70205600D01*
X120294400Y-70764400D01*
G36*
X28536900Y-53695600D02*
X29248100Y-53695600D01*
X29248100Y-54254400D01*
X28536900Y-54254400D01*
X28536900Y-53695600D01*
G37*
X28536900Y-53695600D02*
X29248100Y-53695600D01*
X29248100Y-54254400D01*
X28536900Y-54254400D01*
X28536900Y-53695600D01*
G36*
X28536900Y-55524400D02*
X29248100Y-55524400D01*
X29248100Y-54965600D01*
X28536900Y-54965600D01*
X28536900Y-55524400D01*
G37*
X28536900Y-55524400D02*
X29248100Y-55524400D01*
X29248100Y-54965600D01*
X28536900Y-54965600D01*
X28536900Y-55524400D01*
G36*
X33616900Y-68935600D02*
X34328100Y-68935600D01*
X34328100Y-69494400D01*
X33616900Y-69494400D01*
X33616900Y-68935600D01*
G37*
X33616900Y-68935600D02*
X34328100Y-68935600D01*
X34328100Y-69494400D01*
X33616900Y-69494400D01*
X33616900Y-68935600D01*
G36*
X33616900Y-70764400D02*
X34328100Y-70764400D01*
X34328100Y-70205600D01*
X33616900Y-70205600D01*
X33616900Y-70764400D01*
G37*
X33616900Y-70764400D02*
X34328100Y-70764400D01*
X34328100Y-70205600D01*
X33616900Y-70205600D01*
X33616900Y-70764400D01*
G36*
X38061900Y-53695600D02*
X38773100Y-53695600D01*
X38773100Y-54254400D01*
X38061900Y-54254400D01*
X38061900Y-53695600D01*
G37*
X38061900Y-53695600D02*
X38773100Y-53695600D01*
X38773100Y-54254400D01*
X38061900Y-54254400D01*
X38061900Y-53695600D01*
G36*
X38061900Y-55524400D02*
X38773100Y-55524400D01*
X38773100Y-54965600D01*
X38061900Y-54965600D01*
X38061900Y-55524400D01*
G37*
X38061900Y-55524400D02*
X38773100Y-55524400D01*
X38773100Y-54965600D01*
X38061900Y-54965600D01*
X38061900Y-55524400D01*
G36*
X43141900Y-68935600D02*
X43853100Y-68935600D01*
X43853100Y-69494400D01*
X43141900Y-69494400D01*
X43141900Y-68935600D01*
G37*
X43141900Y-68935600D02*
X43853100Y-68935600D01*
X43853100Y-69494400D01*
X43141900Y-69494400D01*
X43141900Y-68935600D01*
G36*
X43141900Y-70764400D02*
X43853100Y-70764400D01*
X43853100Y-70205600D01*
X43141900Y-70205600D01*
X43141900Y-70764400D01*
G37*
X43141900Y-70764400D02*
X43853100Y-70764400D01*
X43853100Y-70205600D01*
X43141900Y-70205600D01*
X43141900Y-70764400D01*
G36*
X51714400Y-53695600D02*
X52425600Y-53695600D01*
X52425600Y-54254400D01*
X51714400Y-54254400D01*
X51714400Y-53695600D01*
G37*
X51714400Y-53695600D02*
X52425600Y-53695600D01*
X52425600Y-54254400D01*
X51714400Y-54254400D01*
X51714400Y-53695600D01*
G36*
X51714400Y-55524400D02*
X52425600Y-55524400D01*
X52425600Y-54965600D01*
X51714400Y-54965600D01*
X51714400Y-55524400D01*
G37*
X51714400Y-55524400D02*
X52425600Y-55524400D01*
X52425600Y-54965600D01*
X51714400Y-54965600D01*
X51714400Y-55524400D01*
G36*
X56794400Y-68935600D02*
X57505600Y-68935600D01*
X57505600Y-69494400D01*
X56794400Y-69494400D01*
X56794400Y-68935600D01*
G37*
X56794400Y-68935600D02*
X57505600Y-68935600D01*
X57505600Y-69494400D01*
X56794400Y-69494400D01*
X56794400Y-68935600D01*
G36*
X56794400Y-70764400D02*
X57505600Y-70764400D01*
X57505600Y-70205600D01*
X56794400Y-70205600D01*
X56794400Y-70764400D01*
G37*
X56794400Y-70764400D02*
X57505600Y-70764400D01*
X57505600Y-70205600D01*
X56794400Y-70205600D01*
X56794400Y-70764400D01*
G36*
X61239400Y-53695600D02*
X61950600Y-53695600D01*
X61950600Y-54254400D01*
X61239400Y-54254400D01*
X61239400Y-53695600D01*
G37*
X61239400Y-53695600D02*
X61950600Y-53695600D01*
X61950600Y-54254400D01*
X61239400Y-54254400D01*
X61239400Y-53695600D01*
G36*
X61239400Y-55524400D02*
X61950600Y-55524400D01*
X61950600Y-54965600D01*
X61239400Y-54965600D01*
X61239400Y-55524400D01*
G37*
X61239400Y-55524400D02*
X61950600Y-55524400D01*
X61950600Y-54965600D01*
X61239400Y-54965600D01*
X61239400Y-55524400D01*
G36*
X66319400Y-68935600D02*
X67030600Y-68935600D01*
X67030600Y-69494400D01*
X66319400Y-69494400D01*
X66319400Y-68935600D01*
G37*
X66319400Y-68935600D02*
X67030600Y-68935600D01*
X67030600Y-69494400D01*
X66319400Y-69494400D01*
X66319400Y-68935600D01*
G36*
X66319400Y-70764400D02*
X67030600Y-70764400D01*
X67030600Y-70205600D01*
X66319400Y-70205600D01*
X66319400Y-70764400D01*
G37*
X66319400Y-70764400D02*
X67030600Y-70764400D01*
X67030600Y-70205600D01*
X66319400Y-70205600D01*
X66319400Y-70764400D01*
G36*
X84416900Y-53695600D02*
X85128100Y-53695600D01*
X85128100Y-54254400D01*
X84416900Y-54254400D01*
X84416900Y-53695600D01*
G37*
X84416900Y-53695600D02*
X85128100Y-53695600D01*
X85128100Y-54254400D01*
X84416900Y-54254400D01*
X84416900Y-53695600D01*
G36*
X84416900Y-55524400D02*
X85128100Y-55524400D01*
X85128100Y-54965600D01*
X84416900Y-54965600D01*
X84416900Y-55524400D01*
G37*
X84416900Y-55524400D02*
X85128100Y-55524400D01*
X85128100Y-54965600D01*
X84416900Y-54965600D01*
X84416900Y-55524400D01*
G36*
X89496900Y-68935600D02*
X90208100Y-68935600D01*
X90208100Y-69494400D01*
X89496900Y-69494400D01*
X89496900Y-68935600D01*
G37*
X89496900Y-68935600D02*
X90208100Y-68935600D01*
X90208100Y-69494400D01*
X89496900Y-69494400D01*
X89496900Y-68935600D01*
G36*
X89496900Y-70764400D02*
X90208100Y-70764400D01*
X90208100Y-70205600D01*
X89496900Y-70205600D01*
X89496900Y-70764400D01*
G37*
X89496900Y-70764400D02*
X90208100Y-70764400D01*
X90208100Y-70205600D01*
X89496900Y-70205600D01*
X89496900Y-70764400D01*
G36*
X93941900Y-53695600D02*
X94653100Y-53695600D01*
X94653100Y-54254400D01*
X93941900Y-54254400D01*
X93941900Y-53695600D01*
G37*
X93941900Y-53695600D02*
X94653100Y-53695600D01*
X94653100Y-54254400D01*
X93941900Y-54254400D01*
X93941900Y-53695600D01*
G36*
X93941900Y-55524400D02*
X94653100Y-55524400D01*
X94653100Y-54965600D01*
X93941900Y-54965600D01*
X93941900Y-55524400D01*
G37*
X93941900Y-55524400D02*
X94653100Y-55524400D01*
X94653100Y-54965600D01*
X93941900Y-54965600D01*
X93941900Y-55524400D01*
G36*
X99021900Y-68935600D02*
X99733100Y-68935600D01*
X99733100Y-69494400D01*
X99021900Y-69494400D01*
X99021900Y-68935600D01*
G37*
X99021900Y-68935600D02*
X99733100Y-68935600D01*
X99733100Y-69494400D01*
X99021900Y-69494400D01*
X99021900Y-68935600D01*
G36*
X99021900Y-70764400D02*
X99733100Y-70764400D01*
X99733100Y-70205600D01*
X99021900Y-70205600D01*
X99021900Y-70764400D01*
G37*
X99021900Y-70764400D02*
X99733100Y-70764400D01*
X99733100Y-70205600D01*
X99021900Y-70205600D01*
X99021900Y-70764400D01*
G36*
X107594400Y-53695600D02*
X108305600Y-53695600D01*
X108305600Y-54254400D01*
X107594400Y-54254400D01*
X107594400Y-53695600D01*
G37*
X107594400Y-53695600D02*
X108305600Y-53695600D01*
X108305600Y-54254400D01*
X107594400Y-54254400D01*
X107594400Y-53695600D01*
G36*
X107594400Y-55524400D02*
X108305600Y-55524400D01*
X108305600Y-54965600D01*
X107594400Y-54965600D01*
X107594400Y-55524400D01*
G37*
X107594400Y-55524400D02*
X108305600Y-55524400D01*
X108305600Y-54965600D01*
X107594400Y-54965600D01*
X107594400Y-55524400D01*
G36*
X117119400Y-53695600D02*
X117830600Y-53695600D01*
X117830600Y-54254400D01*
X117119400Y-54254400D01*
X117119400Y-53695600D01*
G37*
X117119400Y-53695600D02*
X117830600Y-53695600D01*
X117830600Y-54254400D01*
X117119400Y-54254400D01*
X117119400Y-53695600D01*
G36*
X117119400Y-55524400D02*
X117830600Y-55524400D01*
X117830600Y-54965600D01*
X117119400Y-54965600D01*
X117119400Y-55524400D01*
G37*
X117119400Y-55524400D02*
X117830600Y-55524400D01*
X117830600Y-54965600D01*
X117119400Y-54965600D01*
X117119400Y-55524400D01*
G36*
X122199400Y-68935600D02*
X122910600Y-68935600D01*
X122910600Y-69494400D01*
X122199400Y-69494400D01*
X122199400Y-68935600D01*
G37*
X122199400Y-68935600D02*
X122910600Y-68935600D01*
X122910600Y-69494400D01*
X122199400Y-69494400D01*
X122199400Y-68935600D01*
G36*
X122199400Y-70764400D02*
X122910600Y-70764400D01*
X122910600Y-70205600D01*
X122199400Y-70205600D01*
X122199400Y-70764400D01*
G37*
X122199400Y-70764400D02*
X122910600Y-70764400D01*
X122910600Y-70205600D01*
X122199400Y-70205600D01*
X122199400Y-70764400D01*
G36*
X29489400Y-81318100D02*
X30200600Y-81318100D01*
X30200600Y-81876900D01*
X29489400Y-81876900D01*
X29489400Y-81318100D01*
G37*
X29489400Y-81318100D02*
X30200600Y-81318100D01*
X30200600Y-81876900D01*
X29489400Y-81876900D01*
X29489400Y-81318100D01*
G36*
X29489400Y-83146900D02*
X30200600Y-83146900D01*
X30200600Y-82588100D01*
X29489400Y-82588100D01*
X29489400Y-83146900D01*
G37*
X29489400Y-83146900D02*
X30200600Y-83146900D01*
X30200600Y-82588100D01*
X29489400Y-82588100D01*
X29489400Y-83146900D01*
G36*
X34569400Y-96558100D02*
X35280600Y-96558100D01*
X35280600Y-97116900D01*
X34569400Y-97116900D01*
X34569400Y-96558100D01*
G37*
X34569400Y-96558100D02*
X35280600Y-96558100D01*
X35280600Y-97116900D01*
X34569400Y-97116900D01*
X34569400Y-96558100D01*
G36*
X34569400Y-98386900D02*
X35280600Y-98386900D01*
X35280600Y-97828100D01*
X34569400Y-97828100D01*
X34569400Y-98386900D01*
G37*
X34569400Y-98386900D02*
X35280600Y-98386900D01*
X35280600Y-97828100D01*
X34569400Y-97828100D01*
X34569400Y-98386900D01*
G36*
X39014400Y-81318100D02*
X39725600Y-81318100D01*
X39725600Y-81876900D01*
X39014400Y-81876900D01*
X39014400Y-81318100D01*
G37*
X39014400Y-81318100D02*
X39725600Y-81318100D01*
X39725600Y-81876900D01*
X39014400Y-81876900D01*
X39014400Y-81318100D01*
G36*
X39014400Y-83146900D02*
X39725600Y-83146900D01*
X39725600Y-82588100D01*
X39014400Y-82588100D01*
X39014400Y-83146900D01*
G37*
X39014400Y-83146900D02*
X39725600Y-83146900D01*
X39725600Y-82588100D01*
X39014400Y-82588100D01*
X39014400Y-83146900D01*
G36*
X44094400Y-96558100D02*
X44805600Y-96558100D01*
X44805600Y-97116900D01*
X44094400Y-97116900D01*
X44094400Y-96558100D01*
G37*
X44094400Y-96558100D02*
X44805600Y-96558100D01*
X44805600Y-97116900D01*
X44094400Y-97116900D01*
X44094400Y-96558100D01*
G36*
X44094400Y-98386900D02*
X44805600Y-98386900D01*
X44805600Y-97828100D01*
X44094400Y-97828100D01*
X44094400Y-98386900D01*
G37*
X44094400Y-98386900D02*
X44805600Y-98386900D01*
X44805600Y-97828100D01*
X44094400Y-97828100D01*
X44094400Y-98386900D01*
G36*
X52666900Y-81318100D02*
X53378100Y-81318100D01*
X53378100Y-81876900D01*
X52666900Y-81876900D01*
X52666900Y-81318100D01*
G37*
X52666900Y-81318100D02*
X53378100Y-81318100D01*
X53378100Y-81876900D01*
X52666900Y-81876900D01*
X52666900Y-81318100D01*
G36*
X52666900Y-83146900D02*
X53378100Y-83146900D01*
X53378100Y-82588100D01*
X52666900Y-82588100D01*
X52666900Y-83146900D01*
G37*
X52666900Y-83146900D02*
X53378100Y-83146900D01*
X53378100Y-82588100D01*
X52666900Y-82588100D01*
X52666900Y-83146900D01*
G36*
X57746900Y-96558100D02*
X58458100Y-96558100D01*
X58458100Y-97116900D01*
X57746900Y-97116900D01*
X57746900Y-96558100D01*
G37*
X57746900Y-96558100D02*
X58458100Y-96558100D01*
X58458100Y-97116900D01*
X57746900Y-97116900D01*
X57746900Y-96558100D01*
G36*
X57746900Y-98386900D02*
X58458100Y-98386900D01*
X58458100Y-97828100D01*
X57746900Y-97828100D01*
X57746900Y-98386900D01*
G37*
X57746900Y-98386900D02*
X58458100Y-98386900D01*
X58458100Y-97828100D01*
X57746900Y-97828100D01*
X57746900Y-98386900D01*
G36*
X62191900Y-81318100D02*
X62903100Y-81318100D01*
X62903100Y-81876900D01*
X62191900Y-81876900D01*
X62191900Y-81318100D01*
G37*
X62191900Y-81318100D02*
X62903100Y-81318100D01*
X62903100Y-81876900D01*
X62191900Y-81876900D01*
X62191900Y-81318100D01*
G36*
X62191900Y-83146900D02*
X62903100Y-83146900D01*
X62903100Y-82588100D01*
X62191900Y-82588100D01*
X62191900Y-83146900D01*
G37*
X62191900Y-83146900D02*
X62903100Y-83146900D01*
X62903100Y-82588100D01*
X62191900Y-82588100D01*
X62191900Y-83146900D01*
G36*
X67271900Y-96558100D02*
X67983100Y-96558100D01*
X67983100Y-97116900D01*
X67271900Y-97116900D01*
X67271900Y-96558100D01*
G37*
X67271900Y-96558100D02*
X67983100Y-96558100D01*
X67983100Y-97116900D01*
X67271900Y-97116900D01*
X67271900Y-96558100D01*
G36*
X67271900Y-98386900D02*
X67983100Y-98386900D01*
X67983100Y-97828100D01*
X67271900Y-97828100D01*
X67271900Y-98386900D01*
G37*
X67271900Y-98386900D02*
X67983100Y-98386900D01*
X67983100Y-97828100D01*
X67271900Y-97828100D01*
X67271900Y-98386900D01*
G36*
X85369400Y-81318100D02*
X86080600Y-81318100D01*
X86080600Y-81876900D01*
X85369400Y-81876900D01*
X85369400Y-81318100D01*
G37*
X85369400Y-81318100D02*
X86080600Y-81318100D01*
X86080600Y-81876900D01*
X85369400Y-81876900D01*
X85369400Y-81318100D01*
G36*
X85369400Y-83146900D02*
X86080600Y-83146900D01*
X86080600Y-82588100D01*
X85369400Y-82588100D01*
X85369400Y-83146900D01*
G37*
X85369400Y-83146900D02*
X86080600Y-83146900D01*
X86080600Y-82588100D01*
X85369400Y-82588100D01*
X85369400Y-83146900D01*
G36*
X90449400Y-96558100D02*
X91160600Y-96558100D01*
X91160600Y-97116900D01*
X90449400Y-97116900D01*
X90449400Y-96558100D01*
G37*
X90449400Y-96558100D02*
X91160600Y-96558100D01*
X91160600Y-97116900D01*
X90449400Y-97116900D01*
X90449400Y-96558100D01*
G36*
X90449400Y-98386900D02*
X91160600Y-98386900D01*
X91160600Y-97828100D01*
X90449400Y-97828100D01*
X90449400Y-98386900D01*
G37*
X90449400Y-98386900D02*
X91160600Y-98386900D01*
X91160600Y-97828100D01*
X90449400Y-97828100D01*
X90449400Y-98386900D01*
G36*
X94894400Y-81318100D02*
X95605600Y-81318100D01*
X95605600Y-81876900D01*
X94894400Y-81876900D01*
X94894400Y-81318100D01*
G37*
X94894400Y-81318100D02*
X95605600Y-81318100D01*
X95605600Y-81876900D01*
X94894400Y-81876900D01*
X94894400Y-81318100D01*
G36*
X94894400Y-83146900D02*
X95605600Y-83146900D01*
X95605600Y-82588100D01*
X94894400Y-82588100D01*
X94894400Y-83146900D01*
G37*
X94894400Y-83146900D02*
X95605600Y-83146900D01*
X95605600Y-82588100D01*
X94894400Y-82588100D01*
X94894400Y-83146900D01*
G36*
X99974400Y-96558100D02*
X100685600Y-96558100D01*
X100685600Y-97116900D01*
X99974400Y-97116900D01*
X99974400Y-96558100D01*
G37*
X99974400Y-96558100D02*
X100685600Y-96558100D01*
X100685600Y-97116900D01*
X99974400Y-97116900D01*
X99974400Y-96558100D01*
G36*
X99974400Y-98386900D02*
X100685600Y-98386900D01*
X100685600Y-97828100D01*
X99974400Y-97828100D01*
X99974400Y-98386900D01*
G37*
X99974400Y-98386900D02*
X100685600Y-98386900D01*
X100685600Y-97828100D01*
X99974400Y-97828100D01*
X99974400Y-98386900D01*
G36*
X108546900Y-81318100D02*
X109258100Y-81318100D01*
X109258100Y-81876900D01*
X108546900Y-81876900D01*
X108546900Y-81318100D01*
G37*
X108546900Y-81318100D02*
X109258100Y-81318100D01*
X109258100Y-81876900D01*
X108546900Y-81876900D01*
X108546900Y-81318100D01*
G36*
X108546900Y-83146900D02*
X109258100Y-83146900D01*
X109258100Y-82588100D01*
X108546900Y-82588100D01*
X108546900Y-83146900D01*
G37*
X108546900Y-83146900D02*
X109258100Y-83146900D01*
X109258100Y-82588100D01*
X108546900Y-82588100D01*
X108546900Y-83146900D01*
G36*
X113626900Y-96558100D02*
X114338100Y-96558100D01*
X114338100Y-97116900D01*
X113626900Y-97116900D01*
X113626900Y-96558100D01*
G37*
X113626900Y-96558100D02*
X114338100Y-96558100D01*
X114338100Y-97116900D01*
X113626900Y-97116900D01*
X113626900Y-96558100D01*
G36*
X113626900Y-98386900D02*
X114338100Y-98386900D01*
X114338100Y-97828100D01*
X113626900Y-97828100D01*
X113626900Y-98386900D01*
G37*
X113626900Y-98386900D02*
X114338100Y-98386900D01*
X114338100Y-97828100D01*
X113626900Y-97828100D01*
X113626900Y-98386900D01*
G36*
X118071900Y-81318100D02*
X118783100Y-81318100D01*
X118783100Y-81876900D01*
X118071900Y-81876900D01*
X118071900Y-81318100D01*
G37*
X118071900Y-81318100D02*
X118783100Y-81318100D01*
X118783100Y-81876900D01*
X118071900Y-81876900D01*
X118071900Y-81318100D01*
G36*
X118071900Y-83146900D02*
X118783100Y-83146900D01*
X118783100Y-82588100D01*
X118071900Y-82588100D01*
X118071900Y-83146900D01*
G37*
X118071900Y-83146900D02*
X118783100Y-83146900D01*
X118783100Y-82588100D01*
X118071900Y-82588100D01*
X118071900Y-83146900D01*
G36*
X123151900Y-96558100D02*
X123863100Y-96558100D01*
X123863100Y-97116900D01*
X123151900Y-97116900D01*
X123151900Y-96558100D01*
G37*
X123151900Y-96558100D02*
X123863100Y-96558100D01*
X123863100Y-97116900D01*
X123151900Y-97116900D01*
X123151900Y-96558100D01*
G36*
X123151900Y-98386900D02*
X123863100Y-98386900D01*
X123863100Y-97828100D01*
X123151900Y-97828100D01*
X123151900Y-98386900D01*
G37*
X123151900Y-98386900D02*
X123863100Y-98386900D01*
X123863100Y-97828100D01*
X123151900Y-97828100D01*
X123151900Y-98386900D01*
G36*
X31394400Y-81318100D02*
X32105600Y-81318100D01*
X32105600Y-81876900D01*
X31394400Y-81876900D01*
X31394400Y-81318100D01*
G37*
X31394400Y-81318100D02*
X32105600Y-81318100D01*
X32105600Y-81876900D01*
X31394400Y-81876900D01*
X31394400Y-81318100D01*
G36*
X31394400Y-83146900D02*
X32105600Y-83146900D01*
X32105600Y-82588100D01*
X31394400Y-82588100D01*
X31394400Y-83146900D01*
G37*
X31394400Y-83146900D02*
X32105600Y-83146900D01*
X32105600Y-82588100D01*
X31394400Y-82588100D01*
X31394400Y-83146900D01*
G36*
X32664400Y-96558100D02*
X33375600Y-96558100D01*
X33375600Y-97116900D01*
X32664400Y-97116900D01*
X32664400Y-96558100D01*
G37*
X32664400Y-96558100D02*
X33375600Y-96558100D01*
X33375600Y-97116900D01*
X32664400Y-97116900D01*
X32664400Y-96558100D01*
G36*
X32664400Y-98386900D02*
X33375600Y-98386900D01*
X33375600Y-97828100D01*
X32664400Y-97828100D01*
X32664400Y-98386900D01*
G37*
X32664400Y-98386900D02*
X33375600Y-98386900D01*
X33375600Y-97828100D01*
X32664400Y-97828100D01*
X32664400Y-98386900D01*
G36*
X40919400Y-81318100D02*
X41630600Y-81318100D01*
X41630600Y-81876900D01*
X40919400Y-81876900D01*
X40919400Y-81318100D01*
G37*
X40919400Y-81318100D02*
X41630600Y-81318100D01*
X41630600Y-81876900D01*
X40919400Y-81876900D01*
X40919400Y-81318100D01*
G36*
X40919400Y-83146900D02*
X41630600Y-83146900D01*
X41630600Y-82588100D01*
X40919400Y-82588100D01*
X40919400Y-83146900D01*
G37*
X40919400Y-83146900D02*
X41630600Y-83146900D01*
X41630600Y-82588100D01*
X40919400Y-82588100D01*
X40919400Y-83146900D01*
G36*
X42189400Y-96558100D02*
X42900600Y-96558100D01*
X42900600Y-97116900D01*
X42189400Y-97116900D01*
X42189400Y-96558100D01*
G37*
X42189400Y-96558100D02*
X42900600Y-96558100D01*
X42900600Y-97116900D01*
X42189400Y-97116900D01*
X42189400Y-96558100D01*
G36*
X42189400Y-98386900D02*
X42900600Y-98386900D01*
X42900600Y-97828100D01*
X42189400Y-97828100D01*
X42189400Y-98386900D01*
G37*
X42189400Y-98386900D02*
X42900600Y-98386900D01*
X42900600Y-97828100D01*
X42189400Y-97828100D01*
X42189400Y-98386900D01*
G36*
X54571900Y-81318100D02*
X55283100Y-81318100D01*
X55283100Y-81876900D01*
X54571900Y-81876900D01*
X54571900Y-81318100D01*
G37*
X54571900Y-81318100D02*
X55283100Y-81318100D01*
X55283100Y-81876900D01*
X54571900Y-81876900D01*
X54571900Y-81318100D01*
G36*
X54571900Y-83146900D02*
X55283100Y-83146900D01*
X55283100Y-82588100D01*
X54571900Y-82588100D01*
X54571900Y-83146900D01*
G37*
X54571900Y-83146900D02*
X55283100Y-83146900D01*
X55283100Y-82588100D01*
X54571900Y-82588100D01*
X54571900Y-83146900D01*
G36*
X55841900Y-96558100D02*
X56553100Y-96558100D01*
X56553100Y-97116900D01*
X55841900Y-97116900D01*
X55841900Y-96558100D01*
G37*
X55841900Y-96558100D02*
X56553100Y-96558100D01*
X56553100Y-97116900D01*
X55841900Y-97116900D01*
X55841900Y-96558100D01*
G36*
X55841900Y-98386900D02*
X56553100Y-98386900D01*
X56553100Y-97828100D01*
X55841900Y-97828100D01*
X55841900Y-98386900D01*
G37*
X55841900Y-98386900D02*
X56553100Y-98386900D01*
X56553100Y-97828100D01*
X55841900Y-97828100D01*
X55841900Y-98386900D01*
G36*
X64096900Y-81318100D02*
X64808100Y-81318100D01*
X64808100Y-81876900D01*
X64096900Y-81876900D01*
X64096900Y-81318100D01*
G37*
X64096900Y-81318100D02*
X64808100Y-81318100D01*
X64808100Y-81876900D01*
X64096900Y-81876900D01*
X64096900Y-81318100D01*
G36*
X64096900Y-83146900D02*
X64808100Y-83146900D01*
X64808100Y-82588100D01*
X64096900Y-82588100D01*
X64096900Y-83146900D01*
G37*
X64096900Y-83146900D02*
X64808100Y-83146900D01*
X64808100Y-82588100D01*
X64096900Y-82588100D01*
X64096900Y-83146900D01*
G36*
X65366900Y-96558100D02*
X66078100Y-96558100D01*
X66078100Y-97116900D01*
X65366900Y-97116900D01*
X65366900Y-96558100D01*
G37*
X65366900Y-96558100D02*
X66078100Y-96558100D01*
X66078100Y-97116900D01*
X65366900Y-97116900D01*
X65366900Y-96558100D01*
G36*
X65366900Y-98386900D02*
X66078100Y-98386900D01*
X66078100Y-97828100D01*
X65366900Y-97828100D01*
X65366900Y-98386900D01*
G37*
X65366900Y-98386900D02*
X66078100Y-98386900D01*
X66078100Y-97828100D01*
X65366900Y-97828100D01*
X65366900Y-98386900D01*
G36*
X87274400Y-81318100D02*
X87985600Y-81318100D01*
X87985600Y-81876900D01*
X87274400Y-81876900D01*
X87274400Y-81318100D01*
G37*
X87274400Y-81318100D02*
X87985600Y-81318100D01*
X87985600Y-81876900D01*
X87274400Y-81876900D01*
X87274400Y-81318100D01*
G36*
X87274400Y-83146900D02*
X87985600Y-83146900D01*
X87985600Y-82588100D01*
X87274400Y-82588100D01*
X87274400Y-83146900D01*
G37*
X87274400Y-83146900D02*
X87985600Y-83146900D01*
X87985600Y-82588100D01*
X87274400Y-82588100D01*
X87274400Y-83146900D01*
G36*
X88544400Y-96558100D02*
X89255600Y-96558100D01*
X89255600Y-97116900D01*
X88544400Y-97116900D01*
X88544400Y-96558100D01*
G37*
X88544400Y-96558100D02*
X89255600Y-96558100D01*
X89255600Y-97116900D01*
X88544400Y-97116900D01*
X88544400Y-96558100D01*
G36*
X88544400Y-98386900D02*
X89255600Y-98386900D01*
X89255600Y-97828100D01*
X88544400Y-97828100D01*
X88544400Y-98386900D01*
G37*
X88544400Y-98386900D02*
X89255600Y-98386900D01*
X89255600Y-97828100D01*
X88544400Y-97828100D01*
X88544400Y-98386900D01*
G36*
X96799400Y-81318100D02*
X97510600Y-81318100D01*
X97510600Y-81876900D01*
X96799400Y-81876900D01*
X96799400Y-81318100D01*
G37*
X96799400Y-81318100D02*
X97510600Y-81318100D01*
X97510600Y-81876900D01*
X96799400Y-81876900D01*
X96799400Y-81318100D01*
G36*
X96799400Y-83146900D02*
X97510600Y-83146900D01*
X97510600Y-82588100D01*
X96799400Y-82588100D01*
X96799400Y-83146900D01*
G37*
X96799400Y-83146900D02*
X97510600Y-83146900D01*
X97510600Y-82588100D01*
X96799400Y-82588100D01*
X96799400Y-83146900D01*
G36*
X98069400Y-96558100D02*
X98780600Y-96558100D01*
X98780600Y-97116900D01*
X98069400Y-97116900D01*
X98069400Y-96558100D01*
G37*
X98069400Y-96558100D02*
X98780600Y-96558100D01*
X98780600Y-97116900D01*
X98069400Y-97116900D01*
X98069400Y-96558100D01*
G36*
X98069400Y-98386900D02*
X98780600Y-98386900D01*
X98780600Y-97828100D01*
X98069400Y-97828100D01*
X98069400Y-98386900D01*
G37*
X98069400Y-98386900D02*
X98780600Y-98386900D01*
X98780600Y-97828100D01*
X98069400Y-97828100D01*
X98069400Y-98386900D01*
G36*
X110451900Y-81318100D02*
X111163100Y-81318100D01*
X111163100Y-81876900D01*
X110451900Y-81876900D01*
X110451900Y-81318100D01*
G37*
X110451900Y-81318100D02*
X111163100Y-81318100D01*
X111163100Y-81876900D01*
X110451900Y-81876900D01*
X110451900Y-81318100D01*
G36*
X110451900Y-83146900D02*
X111163100Y-83146900D01*
X111163100Y-82588100D01*
X110451900Y-82588100D01*
X110451900Y-83146900D01*
G37*
X110451900Y-83146900D02*
X111163100Y-83146900D01*
X111163100Y-82588100D01*
X110451900Y-82588100D01*
X110451900Y-83146900D01*
G36*
X111721900Y-96558100D02*
X112433100Y-96558100D01*
X112433100Y-97116900D01*
X111721900Y-97116900D01*
X111721900Y-96558100D01*
G37*
X111721900Y-96558100D02*
X112433100Y-96558100D01*
X112433100Y-97116900D01*
X111721900Y-97116900D01*
X111721900Y-96558100D01*
G36*
X111721900Y-98386900D02*
X112433100Y-98386900D01*
X112433100Y-97828100D01*
X111721900Y-97828100D01*
X111721900Y-98386900D01*
G37*
X111721900Y-98386900D02*
X112433100Y-98386900D01*
X112433100Y-97828100D01*
X111721900Y-97828100D01*
X111721900Y-98386900D01*
G36*
X119976900Y-81318100D02*
X120688100Y-81318100D01*
X120688100Y-81876900D01*
X119976900Y-81876900D01*
X119976900Y-81318100D01*
G37*
X119976900Y-81318100D02*
X120688100Y-81318100D01*
X120688100Y-81876900D01*
X119976900Y-81876900D01*
X119976900Y-81318100D01*
G36*
X119976900Y-83146900D02*
X120688100Y-83146900D01*
X120688100Y-82588100D01*
X119976900Y-82588100D01*
X119976900Y-83146900D01*
G37*
X119976900Y-83146900D02*
X120688100Y-83146900D01*
X120688100Y-82588100D01*
X119976900Y-82588100D01*
X119976900Y-83146900D01*
G36*
X121246900Y-96558100D02*
X121958100Y-96558100D01*
X121958100Y-97116900D01*
X121246900Y-97116900D01*
X121246900Y-96558100D01*
G37*
X121246900Y-96558100D02*
X121958100Y-96558100D01*
X121958100Y-97116900D01*
X121246900Y-97116900D01*
X121246900Y-96558100D01*
G36*
X121246900Y-98386900D02*
X121958100Y-98386900D01*
X121958100Y-97828100D01*
X121246900Y-97828100D01*
X121246900Y-98386900D01*
G37*
X121246900Y-98386900D02*
X121958100Y-98386900D01*
X121958100Y-97828100D01*
X121246900Y-97828100D01*
X121246900Y-98386900D01*
G36*
X33299400Y-81318100D02*
X34010600Y-81318100D01*
X34010600Y-81876900D01*
X33299400Y-81876900D01*
X33299400Y-81318100D01*
G37*
X33299400Y-81318100D02*
X34010600Y-81318100D01*
X34010600Y-81876900D01*
X33299400Y-81876900D01*
X33299400Y-81318100D01*
G36*
X33299400Y-83146900D02*
X34010600Y-83146900D01*
X34010600Y-82588100D01*
X33299400Y-82588100D01*
X33299400Y-83146900D01*
G37*
X33299400Y-83146900D02*
X34010600Y-83146900D01*
X34010600Y-82588100D01*
X33299400Y-82588100D01*
X33299400Y-83146900D01*
G36*
X30759400Y-96558100D02*
X31470600Y-96558100D01*
X31470600Y-97116900D01*
X30759400Y-97116900D01*
X30759400Y-96558100D01*
G37*
X30759400Y-96558100D02*
X31470600Y-96558100D01*
X31470600Y-97116900D01*
X30759400Y-97116900D01*
X30759400Y-96558100D01*
G36*
X30759400Y-98386900D02*
X31470600Y-98386900D01*
X31470600Y-97828100D01*
X30759400Y-97828100D01*
X30759400Y-98386900D01*
G37*
X30759400Y-98386900D02*
X31470600Y-98386900D01*
X31470600Y-97828100D01*
X30759400Y-97828100D01*
X30759400Y-98386900D01*
G36*
X42824400Y-81318100D02*
X43535600Y-81318100D01*
X43535600Y-81876900D01*
X42824400Y-81876900D01*
X42824400Y-81318100D01*
G37*
X42824400Y-81318100D02*
X43535600Y-81318100D01*
X43535600Y-81876900D01*
X42824400Y-81876900D01*
X42824400Y-81318100D01*
G36*
X42824400Y-83146900D02*
X43535600Y-83146900D01*
X43535600Y-82588100D01*
X42824400Y-82588100D01*
X42824400Y-83146900D01*
G37*
X42824400Y-83146900D02*
X43535600Y-83146900D01*
X43535600Y-82588100D01*
X42824400Y-82588100D01*
X42824400Y-83146900D01*
G36*
X40284400Y-96558100D02*
X40995600Y-96558100D01*
X40995600Y-97116900D01*
X40284400Y-97116900D01*
X40284400Y-96558100D01*
G37*
X40284400Y-96558100D02*
X40995600Y-96558100D01*
X40995600Y-97116900D01*
X40284400Y-97116900D01*
X40284400Y-96558100D01*
G36*
X40284400Y-98386900D02*
X40995600Y-98386900D01*
X40995600Y-97828100D01*
X40284400Y-97828100D01*
X40284400Y-98386900D01*
G37*
X40284400Y-98386900D02*
X40995600Y-98386900D01*
X40995600Y-97828100D01*
X40284400Y-97828100D01*
X40284400Y-98386900D01*
G36*
X56476900Y-81318100D02*
X57188100Y-81318100D01*
X57188100Y-81876900D01*
X56476900Y-81876900D01*
X56476900Y-81318100D01*
G37*
X56476900Y-81318100D02*
X57188100Y-81318100D01*
X57188100Y-81876900D01*
X56476900Y-81876900D01*
X56476900Y-81318100D01*
G36*
X56476900Y-83146900D02*
X57188100Y-83146900D01*
X57188100Y-82588100D01*
X56476900Y-82588100D01*
X56476900Y-83146900D01*
G37*
X56476900Y-83146900D02*
X57188100Y-83146900D01*
X57188100Y-82588100D01*
X56476900Y-82588100D01*
X56476900Y-83146900D01*
G36*
X53936900Y-96558100D02*
X54648100Y-96558100D01*
X54648100Y-97116900D01*
X53936900Y-97116900D01*
X53936900Y-96558100D01*
G37*
X53936900Y-96558100D02*
X54648100Y-96558100D01*
X54648100Y-97116900D01*
X53936900Y-97116900D01*
X53936900Y-96558100D01*
G36*
X53936900Y-98386900D02*
X54648100Y-98386900D01*
X54648100Y-97828100D01*
X53936900Y-97828100D01*
X53936900Y-98386900D01*
G37*
X53936900Y-98386900D02*
X54648100Y-98386900D01*
X54648100Y-97828100D01*
X53936900Y-97828100D01*
X53936900Y-98386900D01*
G36*
X66001900Y-81318100D02*
X66713100Y-81318100D01*
X66713100Y-81876900D01*
X66001900Y-81876900D01*
X66001900Y-81318100D01*
G37*
X66001900Y-81318100D02*
X66713100Y-81318100D01*
X66713100Y-81876900D01*
X66001900Y-81876900D01*
X66001900Y-81318100D01*
G36*
X66001900Y-83146900D02*
X66713100Y-83146900D01*
X66713100Y-82588100D01*
X66001900Y-82588100D01*
X66001900Y-83146900D01*
G37*
X66001900Y-83146900D02*
X66713100Y-83146900D01*
X66713100Y-82588100D01*
X66001900Y-82588100D01*
X66001900Y-83146900D01*
G36*
X63461900Y-96558100D02*
X64173100Y-96558100D01*
X64173100Y-97116900D01*
X63461900Y-97116900D01*
X63461900Y-96558100D01*
G37*
X63461900Y-96558100D02*
X64173100Y-96558100D01*
X64173100Y-97116900D01*
X63461900Y-97116900D01*
X63461900Y-96558100D01*
G36*
X63461900Y-98386900D02*
X64173100Y-98386900D01*
X64173100Y-97828100D01*
X63461900Y-97828100D01*
X63461900Y-98386900D01*
G37*
X63461900Y-98386900D02*
X64173100Y-98386900D01*
X64173100Y-97828100D01*
X63461900Y-97828100D01*
X63461900Y-98386900D01*
G36*
X89179400Y-81318100D02*
X89890600Y-81318100D01*
X89890600Y-81876900D01*
X89179400Y-81876900D01*
X89179400Y-81318100D01*
G37*
X89179400Y-81318100D02*
X89890600Y-81318100D01*
X89890600Y-81876900D01*
X89179400Y-81876900D01*
X89179400Y-81318100D01*
G36*
X89179400Y-83146900D02*
X89890600Y-83146900D01*
X89890600Y-82588100D01*
X89179400Y-82588100D01*
X89179400Y-83146900D01*
G37*
X89179400Y-83146900D02*
X89890600Y-83146900D01*
X89890600Y-82588100D01*
X89179400Y-82588100D01*
X89179400Y-83146900D01*
G36*
X86639400Y-96558100D02*
X87350600Y-96558100D01*
X87350600Y-97116900D01*
X86639400Y-97116900D01*
X86639400Y-96558100D01*
G37*
X86639400Y-96558100D02*
X87350600Y-96558100D01*
X87350600Y-97116900D01*
X86639400Y-97116900D01*
X86639400Y-96558100D01*
G36*
X86639400Y-98386900D02*
X87350600Y-98386900D01*
X87350600Y-97828100D01*
X86639400Y-97828100D01*
X86639400Y-98386900D01*
G37*
X86639400Y-98386900D02*
X87350600Y-98386900D01*
X87350600Y-97828100D01*
X86639400Y-97828100D01*
X86639400Y-98386900D01*
G36*
X98704400Y-81318100D02*
X99415600Y-81318100D01*
X99415600Y-81876900D01*
X98704400Y-81876900D01*
X98704400Y-81318100D01*
G37*
X98704400Y-81318100D02*
X99415600Y-81318100D01*
X99415600Y-81876900D01*
X98704400Y-81876900D01*
X98704400Y-81318100D01*
G36*
X98704400Y-83146900D02*
X99415600Y-83146900D01*
X99415600Y-82588100D01*
X98704400Y-82588100D01*
X98704400Y-83146900D01*
G37*
X98704400Y-83146900D02*
X99415600Y-83146900D01*
X99415600Y-82588100D01*
X98704400Y-82588100D01*
X98704400Y-83146900D01*
G36*
X96164400Y-96558100D02*
X96875600Y-96558100D01*
X96875600Y-97116900D01*
X96164400Y-97116900D01*
X96164400Y-96558100D01*
G37*
X96164400Y-96558100D02*
X96875600Y-96558100D01*
X96875600Y-97116900D01*
X96164400Y-97116900D01*
X96164400Y-96558100D01*
G36*
X96164400Y-98386900D02*
X96875600Y-98386900D01*
X96875600Y-97828100D01*
X96164400Y-97828100D01*
X96164400Y-98386900D01*
G37*
X96164400Y-98386900D02*
X96875600Y-98386900D01*
X96875600Y-97828100D01*
X96164400Y-97828100D01*
X96164400Y-98386900D01*
G36*
X112356900Y-81318100D02*
X113068100Y-81318100D01*
X113068100Y-81876900D01*
X112356900Y-81876900D01*
X112356900Y-81318100D01*
G37*
X112356900Y-81318100D02*
X113068100Y-81318100D01*
X113068100Y-81876900D01*
X112356900Y-81876900D01*
X112356900Y-81318100D01*
G36*
X112356900Y-83146900D02*
X113068100Y-83146900D01*
X113068100Y-82588100D01*
X112356900Y-82588100D01*
X112356900Y-83146900D01*
G37*
X112356900Y-83146900D02*
X113068100Y-83146900D01*
X113068100Y-82588100D01*
X112356900Y-82588100D01*
X112356900Y-83146900D01*
G36*
X109816900Y-96558100D02*
X110528100Y-96558100D01*
X110528100Y-97116900D01*
X109816900Y-97116900D01*
X109816900Y-96558100D01*
G37*
X109816900Y-96558100D02*
X110528100Y-96558100D01*
X110528100Y-97116900D01*
X109816900Y-97116900D01*
X109816900Y-96558100D01*
G36*
X109816900Y-98386900D02*
X110528100Y-98386900D01*
X110528100Y-97828100D01*
X109816900Y-97828100D01*
X109816900Y-98386900D01*
G37*
X109816900Y-98386900D02*
X110528100Y-98386900D01*
X110528100Y-97828100D01*
X109816900Y-97828100D01*
X109816900Y-98386900D01*
G36*
X121881900Y-81318100D02*
X122593100Y-81318100D01*
X122593100Y-81876900D01*
X121881900Y-81876900D01*
X121881900Y-81318100D01*
G37*
X121881900Y-81318100D02*
X122593100Y-81318100D01*
X122593100Y-81876900D01*
X121881900Y-81876900D01*
X121881900Y-81318100D01*
G36*
X121881900Y-83146900D02*
X122593100Y-83146900D01*
X122593100Y-82588100D01*
X121881900Y-82588100D01*
X121881900Y-83146900D01*
G37*
X121881900Y-83146900D02*
X122593100Y-83146900D01*
X122593100Y-82588100D01*
X121881900Y-82588100D01*
X121881900Y-83146900D01*
G36*
X119341900Y-96558100D02*
X120053100Y-96558100D01*
X120053100Y-97116900D01*
X119341900Y-97116900D01*
X119341900Y-96558100D01*
G37*
X119341900Y-96558100D02*
X120053100Y-96558100D01*
X120053100Y-97116900D01*
X119341900Y-97116900D01*
X119341900Y-96558100D01*
G36*
X119341900Y-98386900D02*
X120053100Y-98386900D01*
X120053100Y-97828100D01*
X119341900Y-97828100D01*
X119341900Y-98386900D01*
G37*
X119341900Y-98386900D02*
X120053100Y-98386900D01*
X120053100Y-97828100D01*
X119341900Y-97828100D01*
X119341900Y-98386900D01*
G36*
X35204400Y-81318100D02*
X35915600Y-81318100D01*
X35915600Y-81876900D01*
X35204400Y-81876900D01*
X35204400Y-81318100D01*
G37*
X35204400Y-81318100D02*
X35915600Y-81318100D01*
X35915600Y-81876900D01*
X35204400Y-81876900D01*
X35204400Y-81318100D01*
G36*
X35204400Y-83146900D02*
X35915600Y-83146900D01*
X35915600Y-82588100D01*
X35204400Y-82588100D01*
X35204400Y-83146900D01*
G37*
X35204400Y-83146900D02*
X35915600Y-83146900D01*
X35915600Y-82588100D01*
X35204400Y-82588100D01*
X35204400Y-83146900D01*
G36*
X28854400Y-96558100D02*
X29565600Y-96558100D01*
X29565600Y-97116900D01*
X28854400Y-97116900D01*
X28854400Y-96558100D01*
G37*
X28854400Y-96558100D02*
X29565600Y-96558100D01*
X29565600Y-97116900D01*
X28854400Y-97116900D01*
X28854400Y-96558100D01*
G36*
X28854400Y-98386900D02*
X29565600Y-98386900D01*
X29565600Y-97828100D01*
X28854400Y-97828100D01*
X28854400Y-98386900D01*
G37*
X28854400Y-98386900D02*
X29565600Y-98386900D01*
X29565600Y-97828100D01*
X28854400Y-97828100D01*
X28854400Y-98386900D01*
G36*
X44729400Y-81318100D02*
X45440600Y-81318100D01*
X45440600Y-81876900D01*
X44729400Y-81876900D01*
X44729400Y-81318100D01*
G37*
X44729400Y-81318100D02*
X45440600Y-81318100D01*
X45440600Y-81876900D01*
X44729400Y-81876900D01*
X44729400Y-81318100D01*
G36*
X44729400Y-83146900D02*
X45440600Y-83146900D01*
X45440600Y-82588100D01*
X44729400Y-82588100D01*
X44729400Y-83146900D01*
G37*
X44729400Y-83146900D02*
X45440600Y-83146900D01*
X45440600Y-82588100D01*
X44729400Y-82588100D01*
X44729400Y-83146900D01*
G36*
X38379400Y-96558100D02*
X39090600Y-96558100D01*
X39090600Y-97116900D01*
X38379400Y-97116900D01*
X38379400Y-96558100D01*
G37*
X38379400Y-96558100D02*
X39090600Y-96558100D01*
X39090600Y-97116900D01*
X38379400Y-97116900D01*
X38379400Y-96558100D01*
G36*
X38379400Y-98386900D02*
X39090600Y-98386900D01*
X39090600Y-97828100D01*
X38379400Y-97828100D01*
X38379400Y-98386900D01*
G37*
X38379400Y-98386900D02*
X39090600Y-98386900D01*
X39090600Y-97828100D01*
X38379400Y-97828100D01*
X38379400Y-98386900D01*
G36*
X58381900Y-81318100D02*
X59093100Y-81318100D01*
X59093100Y-81876900D01*
X58381900Y-81876900D01*
X58381900Y-81318100D01*
G37*
X58381900Y-81318100D02*
X59093100Y-81318100D01*
X59093100Y-81876900D01*
X58381900Y-81876900D01*
X58381900Y-81318100D01*
G36*
X58381900Y-83146900D02*
X59093100Y-83146900D01*
X59093100Y-82588100D01*
X58381900Y-82588100D01*
X58381900Y-83146900D01*
G37*
X58381900Y-83146900D02*
X59093100Y-83146900D01*
X59093100Y-82588100D01*
X58381900Y-82588100D01*
X58381900Y-83146900D01*
G36*
X52031900Y-96558100D02*
X52743100Y-96558100D01*
X52743100Y-97116900D01*
X52031900Y-97116900D01*
X52031900Y-96558100D01*
G37*
X52031900Y-96558100D02*
X52743100Y-96558100D01*
X52743100Y-97116900D01*
X52031900Y-97116900D01*
X52031900Y-96558100D01*
G36*
X52031900Y-98386900D02*
X52743100Y-98386900D01*
X52743100Y-97828100D01*
X52031900Y-97828100D01*
X52031900Y-98386900D01*
G37*
X52031900Y-98386900D02*
X52743100Y-98386900D01*
X52743100Y-97828100D01*
X52031900Y-97828100D01*
X52031900Y-98386900D01*
G36*
X67906900Y-81318100D02*
X68618100Y-81318100D01*
X68618100Y-81876900D01*
X67906900Y-81876900D01*
X67906900Y-81318100D01*
G37*
X67906900Y-81318100D02*
X68618100Y-81318100D01*
X68618100Y-81876900D01*
X67906900Y-81876900D01*
X67906900Y-81318100D01*
G36*
X67906900Y-83146900D02*
X68618100Y-83146900D01*
X68618100Y-82588100D01*
X67906900Y-82588100D01*
X67906900Y-83146900D01*
G37*
X67906900Y-83146900D02*
X68618100Y-83146900D01*
X68618100Y-82588100D01*
X67906900Y-82588100D01*
X67906900Y-83146900D01*
G36*
X61556900Y-96558100D02*
X62268100Y-96558100D01*
X62268100Y-97116900D01*
X61556900Y-97116900D01*
X61556900Y-96558100D01*
G37*
X61556900Y-96558100D02*
X62268100Y-96558100D01*
X62268100Y-97116900D01*
X61556900Y-97116900D01*
X61556900Y-96558100D01*
G36*
X61556900Y-98386900D02*
X62268100Y-98386900D01*
X62268100Y-97828100D01*
X61556900Y-97828100D01*
X61556900Y-98386900D01*
G37*
X61556900Y-98386900D02*
X62268100Y-98386900D01*
X62268100Y-97828100D01*
X61556900Y-97828100D01*
X61556900Y-98386900D01*
G36*
X91084400Y-81318100D02*
X91795600Y-81318100D01*
X91795600Y-81876900D01*
X91084400Y-81876900D01*
X91084400Y-81318100D01*
G37*
X91084400Y-81318100D02*
X91795600Y-81318100D01*
X91795600Y-81876900D01*
X91084400Y-81876900D01*
X91084400Y-81318100D01*
G36*
X91084400Y-83146900D02*
X91795600Y-83146900D01*
X91795600Y-82588100D01*
X91084400Y-82588100D01*
X91084400Y-83146900D01*
G37*
X91084400Y-83146900D02*
X91795600Y-83146900D01*
X91795600Y-82588100D01*
X91084400Y-82588100D01*
X91084400Y-83146900D01*
G36*
X84734400Y-96558100D02*
X85445600Y-96558100D01*
X85445600Y-97116900D01*
X84734400Y-97116900D01*
X84734400Y-96558100D01*
G37*
X84734400Y-96558100D02*
X85445600Y-96558100D01*
X85445600Y-97116900D01*
X84734400Y-97116900D01*
X84734400Y-96558100D01*
G36*
X84734400Y-98386900D02*
X85445600Y-98386900D01*
X85445600Y-97828100D01*
X84734400Y-97828100D01*
X84734400Y-98386900D01*
G37*
X84734400Y-98386900D02*
X85445600Y-98386900D01*
X85445600Y-97828100D01*
X84734400Y-97828100D01*
X84734400Y-98386900D01*
G36*
X100609400Y-81318100D02*
X101320600Y-81318100D01*
X101320600Y-81876900D01*
X100609400Y-81876900D01*
X100609400Y-81318100D01*
G37*
X100609400Y-81318100D02*
X101320600Y-81318100D01*
X101320600Y-81876900D01*
X100609400Y-81876900D01*
X100609400Y-81318100D01*
G36*
X100609400Y-83146900D02*
X101320600Y-83146900D01*
X101320600Y-82588100D01*
X100609400Y-82588100D01*
X100609400Y-83146900D01*
G37*
X100609400Y-83146900D02*
X101320600Y-83146900D01*
X101320600Y-82588100D01*
X100609400Y-82588100D01*
X100609400Y-83146900D01*
G36*
X94259400Y-96558100D02*
X94970600Y-96558100D01*
X94970600Y-97116900D01*
X94259400Y-97116900D01*
X94259400Y-96558100D01*
G37*
X94259400Y-96558100D02*
X94970600Y-96558100D01*
X94970600Y-97116900D01*
X94259400Y-97116900D01*
X94259400Y-96558100D01*
G36*
X94259400Y-98386900D02*
X94970600Y-98386900D01*
X94970600Y-97828100D01*
X94259400Y-97828100D01*
X94259400Y-98386900D01*
G37*
X94259400Y-98386900D02*
X94970600Y-98386900D01*
X94970600Y-97828100D01*
X94259400Y-97828100D01*
X94259400Y-98386900D01*
G36*
X114261900Y-81318100D02*
X114973100Y-81318100D01*
X114973100Y-81876900D01*
X114261900Y-81876900D01*
X114261900Y-81318100D01*
G37*
X114261900Y-81318100D02*
X114973100Y-81318100D01*
X114973100Y-81876900D01*
X114261900Y-81876900D01*
X114261900Y-81318100D01*
G36*
X114261900Y-83146900D02*
X114973100Y-83146900D01*
X114973100Y-82588100D01*
X114261900Y-82588100D01*
X114261900Y-83146900D01*
G37*
X114261900Y-83146900D02*
X114973100Y-83146900D01*
X114973100Y-82588100D01*
X114261900Y-82588100D01*
X114261900Y-83146900D01*
G36*
X107911900Y-96558100D02*
X108623100Y-96558100D01*
X108623100Y-97116900D01*
X107911900Y-97116900D01*
X107911900Y-96558100D01*
G37*
X107911900Y-96558100D02*
X108623100Y-96558100D01*
X108623100Y-97116900D01*
X107911900Y-97116900D01*
X107911900Y-96558100D01*
G36*
X107911900Y-98386900D02*
X108623100Y-98386900D01*
X108623100Y-97828100D01*
X107911900Y-97828100D01*
X107911900Y-98386900D01*
G37*
X107911900Y-98386900D02*
X108623100Y-98386900D01*
X108623100Y-97828100D01*
X107911900Y-97828100D01*
X107911900Y-98386900D01*
G36*
X123786900Y-81318100D02*
X124498100Y-81318100D01*
X124498100Y-81876900D01*
X123786900Y-81876900D01*
X123786900Y-81318100D01*
G37*
X123786900Y-81318100D02*
X124498100Y-81318100D01*
X124498100Y-81876900D01*
X123786900Y-81876900D01*
X123786900Y-81318100D01*
G36*
X123786900Y-83146900D02*
X124498100Y-83146900D01*
X124498100Y-82588100D01*
X123786900Y-82588100D01*
X123786900Y-83146900D01*
G37*
X123786900Y-83146900D02*
X124498100Y-83146900D01*
X124498100Y-82588100D01*
X123786900Y-82588100D01*
X123786900Y-83146900D01*
G36*
X117436900Y-96558100D02*
X118148100Y-96558100D01*
X118148100Y-97116900D01*
X117436900Y-97116900D01*
X117436900Y-96558100D01*
G37*
X117436900Y-96558100D02*
X118148100Y-96558100D01*
X118148100Y-97116900D01*
X117436900Y-97116900D01*
X117436900Y-96558100D01*
G36*
X117436900Y-98386900D02*
X118148100Y-98386900D01*
X118148100Y-97828100D01*
X117436900Y-97828100D01*
X117436900Y-98386900D01*
G37*
X117436900Y-98386900D02*
X118148100Y-98386900D01*
X118148100Y-97828100D01*
X117436900Y-97828100D01*
X117436900Y-98386900D01*
G36*
X112674400Y-68935600D02*
X113385600Y-68935600D01*
X113385600Y-69494400D01*
X112674400Y-69494400D01*
X112674400Y-68935600D01*
G37*
X112674400Y-68935600D02*
X113385600Y-68935600D01*
X113385600Y-69494400D01*
X112674400Y-69494400D01*
X112674400Y-68935600D01*
G36*
X112674400Y-70764400D02*
X113385600Y-70764400D01*
X113385600Y-70205600D01*
X112674400Y-70205600D01*
X112674400Y-70764400D01*
G37*
X112674400Y-70764400D02*
X113385600Y-70764400D01*
X113385600Y-70205600D01*
X112674400Y-70205600D01*
X112674400Y-70764400D01*
D13*
G36*
X77861701Y-95191156D02*
X77578858Y-95473999D01*
X76730330Y-94625471D01*
X77013173Y-94342628D01*
X77861701Y-95191156D01*
G37*
X77861701Y-95191156D02*
X77578858Y-95473999D01*
X76730330Y-94625471D01*
X77013173Y-94342628D01*
X77861701Y-95191156D01*
G36*
X78427386Y-94625471D02*
X78144544Y-94908313D01*
X77154594Y-93918364D01*
X77437437Y-93635521D01*
X78427386Y-94625471D01*
G37*
X78427386Y-94625471D02*
X78144544Y-94908313D01*
X77154594Y-93918364D01*
X77437437Y-93635521D01*
X78427386Y-94625471D01*
G36*
X78993072Y-94059785D02*
X78710229Y-94342628D01*
X77720280Y-93352679D01*
X78003122Y-93069836D01*
X78993072Y-94059785D01*
G37*
X78993072Y-94059785D02*
X78710229Y-94342628D01*
X77720280Y-93352679D01*
X78003122Y-93069836D01*
X78993072Y-94059785D01*
G36*
X79558757Y-93494100D02*
X79275914Y-93776943D01*
X78285965Y-92786993D01*
X78568808Y-92504150D01*
X79558757Y-93494100D01*
G37*
X79558757Y-93494100D02*
X79275914Y-93776943D01*
X78285965Y-92786993D01*
X78568808Y-92504150D01*
X79558757Y-93494100D01*
G36*
X80124443Y-92928414D02*
X79841600Y-93211257D01*
X78851650Y-92221308D01*
X79134493Y-91938465D01*
X80124443Y-92928414D01*
G37*
X80124443Y-92928414D02*
X79841600Y-93211257D01*
X78851650Y-92221308D01*
X79134493Y-91938465D01*
X80124443Y-92928414D01*
G36*
X80690128Y-92362729D02*
X80407285Y-92645572D01*
X79417336Y-91655622D01*
X79700179Y-91372780D01*
X80690128Y-92362729D01*
G37*
X80690128Y-92362729D02*
X80407285Y-92645572D01*
X79417336Y-91655622D01*
X79700179Y-91372780D01*
X80690128Y-92362729D01*
G36*
X81255813Y-91797044D02*
X80972971Y-92079886D01*
X79983021Y-91089937D01*
X80265864Y-90807094D01*
X81255813Y-91797044D01*
G37*
X81255813Y-91797044D02*
X80972971Y-92079886D01*
X79983021Y-91089937D01*
X80265864Y-90807094D01*
X81255813Y-91797044D01*
G36*
X81821499Y-91231358D02*
X81538656Y-91514201D01*
X80548707Y-90524251D01*
X80831549Y-90241409D01*
X81821499Y-91231358D01*
G37*
X81821499Y-91231358D02*
X81538656Y-91514201D01*
X80548707Y-90524251D01*
X80831549Y-90241409D01*
X81821499Y-91231358D01*
G36*
X81538656Y-88190799D02*
X80548707Y-89180749D01*
X80831549Y-89463591D01*
X81821499Y-88473642D01*
X81538656Y-88190799D01*
G37*
X81538656Y-88190799D02*
X80548707Y-89180749D01*
X80831549Y-89463591D01*
X81821499Y-88473642D01*
X81538656Y-88190799D01*
G36*
X80972971Y-87625114D02*
X79983021Y-88615063D01*
X80265864Y-88897906D01*
X81255813Y-87907956D01*
X80972971Y-87625114D01*
G37*
X80972971Y-87625114D02*
X79983021Y-88615063D01*
X80265864Y-88897906D01*
X81255813Y-87907956D01*
X80972971Y-87625114D01*
G36*
X80407285Y-87059428D02*
X79417336Y-88049378D01*
X79700179Y-88332220D01*
X80690128Y-87342271D01*
X80407285Y-87059428D01*
G37*
X80407285Y-87059428D02*
X79417336Y-88049378D01*
X79700179Y-88332220D01*
X80690128Y-87342271D01*
X80407285Y-87059428D01*
G36*
X79841600Y-86493743D02*
X78851650Y-87483692D01*
X79134493Y-87766535D01*
X80124443Y-86776586D01*
X79841600Y-86493743D01*
G37*
X79841600Y-86493743D02*
X78851650Y-87483692D01*
X79134493Y-87766535D01*
X80124443Y-86776586D01*
X79841600Y-86493743D01*
G36*
X79275914Y-85928057D02*
X78285965Y-86918007D01*
X78568808Y-87200850D01*
X79558757Y-86210900D01*
X79275914Y-85928057D01*
G37*
X79275914Y-85928057D02*
X78285965Y-86918007D01*
X78568808Y-87200850D01*
X79558757Y-86210900D01*
X79275914Y-85928057D01*
G36*
X78710229Y-85362372D02*
X77720280Y-86352321D01*
X78003122Y-86635164D01*
X78993072Y-85645215D01*
X78710229Y-85362372D01*
G37*
X78710229Y-85362372D02*
X77720280Y-86352321D01*
X78003122Y-86635164D01*
X78993072Y-85645215D01*
X78710229Y-85362372D01*
G36*
X78144544Y-84796687D02*
X77154594Y-85786636D01*
X77437437Y-86069479D01*
X78427386Y-85079529D01*
X78144544Y-84796687D01*
G37*
X78144544Y-84796687D02*
X77154594Y-85786636D01*
X77437437Y-86069479D01*
X78427386Y-85079529D01*
X78144544Y-84796687D01*
G36*
X77578858Y-84231001D02*
X76588909Y-85220951D01*
X76871751Y-85503793D01*
X77861701Y-84513844D01*
X77578858Y-84231001D01*
G37*
X77578858Y-84231001D02*
X76588909Y-85220951D01*
X76871751Y-85503793D01*
X77861701Y-84513844D01*
X77578858Y-84231001D01*
G36*
X75811091Y-85220951D02*
X75528249Y-85503793D01*
X74538299Y-84513844D01*
X74821142Y-84231001D01*
X75811091Y-85220951D01*
G37*
X75811091Y-85220951D02*
X75528249Y-85503793D01*
X74538299Y-84513844D01*
X74821142Y-84231001D01*
X75811091Y-85220951D01*
G36*
X75245406Y-85786636D02*
X74962563Y-86069479D01*
X73972614Y-85079529D01*
X74255456Y-84796687D01*
X75245406Y-85786636D01*
G37*
X75245406Y-85786636D02*
X74962563Y-86069479D01*
X73972614Y-85079529D01*
X74255456Y-84796687D01*
X75245406Y-85786636D01*
G36*
X74679720Y-86352321D02*
X74396878Y-86635164D01*
X73406928Y-85645215D01*
X73689771Y-85362372D01*
X74679720Y-86352321D01*
G37*
X74679720Y-86352321D02*
X74396878Y-86635164D01*
X73406928Y-85645215D01*
X73689771Y-85362372D01*
X74679720Y-86352321D01*
G36*
X74114035Y-86918007D02*
X73831192Y-87200850D01*
X72841243Y-86210900D01*
X73124086Y-85928057D01*
X74114035Y-86918007D01*
G37*
X74114035Y-86918007D02*
X73831192Y-87200850D01*
X72841243Y-86210900D01*
X73124086Y-85928057D01*
X74114035Y-86918007D01*
G36*
X73548350Y-87483692D02*
X73265507Y-87766535D01*
X72275557Y-86776586D01*
X72558400Y-86493743D01*
X73548350Y-87483692D01*
G37*
X73548350Y-87483692D02*
X73265507Y-87766535D01*
X72275557Y-86776586D01*
X72558400Y-86493743D01*
X73548350Y-87483692D01*
G36*
X72982664Y-88049378D02*
X72699821Y-88332220D01*
X71709872Y-87342271D01*
X71992715Y-87059428D01*
X72982664Y-88049378D01*
G37*
X72982664Y-88049378D02*
X72699821Y-88332220D01*
X71709872Y-87342271D01*
X71992715Y-87059428D01*
X72982664Y-88049378D01*
G36*
X72416979Y-88615063D02*
X72134136Y-88897906D01*
X71144187Y-87907956D01*
X71427029Y-87625114D01*
X72416979Y-88615063D01*
G37*
X72416979Y-88615063D02*
X72134136Y-88897906D01*
X71144187Y-87907956D01*
X71427029Y-87625114D01*
X72416979Y-88615063D01*
G36*
X71851293Y-89180749D02*
X71568451Y-89463591D01*
X70578501Y-88473642D01*
X70861344Y-88190799D01*
X71851293Y-89180749D01*
G37*
X71851293Y-89180749D02*
X71568451Y-89463591D01*
X70578501Y-88473642D01*
X70861344Y-88190799D01*
X71851293Y-89180749D01*
G36*
X71568451Y-90241409D02*
X70578501Y-91231358D01*
X70861344Y-91514201D01*
X71851293Y-90524251D01*
X71568451Y-90241409D01*
G37*
X71568451Y-90241409D02*
X70578501Y-91231358D01*
X70861344Y-91514201D01*
X71851293Y-90524251D01*
X71568451Y-90241409D01*
G36*
X72134136Y-90807094D02*
X71144187Y-91797044D01*
X71427029Y-92079886D01*
X72416979Y-91089937D01*
X72134136Y-90807094D01*
G37*
X72134136Y-90807094D02*
X71144187Y-91797044D01*
X71427029Y-92079886D01*
X72416979Y-91089937D01*
X72134136Y-90807094D01*
G36*
X72699821Y-91372780D02*
X71709872Y-92362729D01*
X71992715Y-92645572D01*
X72982664Y-91655622D01*
X72699821Y-91372780D01*
G37*
X72699821Y-91372780D02*
X71709872Y-92362729D01*
X71992715Y-92645572D01*
X72982664Y-91655622D01*
X72699821Y-91372780D01*
G36*
X73265507Y-91938465D02*
X72275557Y-92928414D01*
X72558400Y-93211257D01*
X73548350Y-92221308D01*
X73265507Y-91938465D01*
G37*
X73265507Y-91938465D02*
X72275557Y-92928414D01*
X72558400Y-93211257D01*
X73548350Y-92221308D01*
X73265507Y-91938465D01*
G36*
X73831192Y-92504150D02*
X72841243Y-93494100D01*
X73124086Y-93776943D01*
X74114035Y-92786993D01*
X73831192Y-92504150D01*
G37*
X73831192Y-92504150D02*
X72841243Y-93494100D01*
X73124086Y-93776943D01*
X74114035Y-92786993D01*
X73831192Y-92504150D01*
G36*
X74396878Y-93069836D02*
X73406928Y-94059785D01*
X73689771Y-94342628D01*
X74679720Y-93352679D01*
X74396878Y-93069836D01*
G37*
X74396878Y-93069836D02*
X73406928Y-94059785D01*
X73689771Y-94342628D01*
X74679720Y-93352679D01*
X74396878Y-93069836D01*
G36*
X74962563Y-93635521D02*
X73972614Y-94625471D01*
X74255456Y-94908313D01*
X75245406Y-93918364D01*
X74962563Y-93635521D01*
G37*
X74962563Y-93635521D02*
X73972614Y-94625471D01*
X74255456Y-94908313D01*
X75245406Y-93918364D01*
X74962563Y-93635521D01*
G36*
X75386827Y-94342628D02*
X74538299Y-95191156D01*
X74821142Y-95473999D01*
X75669670Y-94625471D01*
X75386827Y-94342628D01*
G37*
X75386827Y-94342628D02*
X74538299Y-95191156D01*
X74821142Y-95473999D01*
X75669670Y-94625471D01*
X75386827Y-94342628D01*
G36*
X57102500Y-58730000D02*
X57102500Y-60130000D01*
X57302500Y-60130000D01*
X57302500Y-58730000D01*
X57102500Y-58730000D01*
G37*
X57102500Y-58730000D02*
X57102500Y-60130000D01*
X57302500Y-60130000D01*
X57302500Y-58730000D01*
X57102500Y-58730000D01*
G36*
X56452500Y-58730000D02*
X56452500Y-60130000D01*
X56652500Y-60130000D01*
X56652500Y-58730000D01*
X56452500Y-58730000D01*
G37*
X56452500Y-58730000D02*
X56452500Y-60130000D01*
X56652500Y-60130000D01*
X56652500Y-58730000D01*
X56452500Y-58730000D01*
G36*
X55802500Y-58730000D02*
X55802500Y-60130000D01*
X56002500Y-60130000D01*
X56002500Y-58730000D01*
X55802500Y-58730000D01*
G37*
X55802500Y-58730000D02*
X55802500Y-60130000D01*
X56002500Y-60130000D01*
X56002500Y-58730000D01*
X55802500Y-58730000D01*
G36*
X55152500Y-58730000D02*
X55152500Y-60130000D01*
X55352500Y-60130000D01*
X55352500Y-58730000D01*
X55152500Y-58730000D01*
G37*
X55152500Y-58730000D02*
X55152500Y-60130000D01*
X55352500Y-60130000D01*
X55352500Y-58730000D01*
X55152500Y-58730000D01*
G36*
X54502500Y-58730000D02*
X54502500Y-60130000D01*
X54702500Y-60130000D01*
X54702500Y-58730000D01*
X54502500Y-58730000D01*
G37*
X54502500Y-58730000D02*
X54502500Y-60130000D01*
X54702500Y-60130000D01*
X54702500Y-58730000D01*
X54502500Y-58730000D01*
G36*
X53852500Y-58730000D02*
X53852500Y-60130000D01*
X54052500Y-60130000D01*
X54052500Y-58730000D01*
X53852500Y-58730000D01*
G37*
X53852500Y-58730000D02*
X53852500Y-60130000D01*
X54052500Y-60130000D01*
X54052500Y-58730000D01*
X53852500Y-58730000D01*
G36*
X53202500Y-58730000D02*
X53202500Y-60130000D01*
X53402500Y-60130000D01*
X53402500Y-58730000D01*
X53202500Y-58730000D01*
G37*
X53202500Y-58730000D02*
X53202500Y-60130000D01*
X53402500Y-60130000D01*
X53402500Y-58730000D01*
X53202500Y-58730000D01*
G36*
X52552500Y-58730000D02*
X52552500Y-60130000D01*
X52752500Y-60130000D01*
X52752500Y-58730000D01*
X52552500Y-58730000D01*
G37*
X52552500Y-58730000D02*
X52552500Y-60130000D01*
X52752500Y-60130000D01*
X52752500Y-58730000D01*
X52552500Y-58730000D01*
G36*
X52552500Y-64330000D02*
X52552500Y-65730000D01*
X52752500Y-65730000D01*
X52752500Y-64330000D01*
X52552500Y-64330000D01*
G37*
X52552500Y-64330000D02*
X52552500Y-65730000D01*
X52752500Y-65730000D01*
X52752500Y-64330000D01*
X52552500Y-64330000D01*
G36*
X53202500Y-64330000D02*
X53202500Y-65730000D01*
X53402500Y-65730000D01*
X53402500Y-64330000D01*
X53202500Y-64330000D01*
G37*
X53202500Y-64330000D02*
X53202500Y-65730000D01*
X53402500Y-65730000D01*
X53402500Y-64330000D01*
X53202500Y-64330000D01*
G36*
X53852500Y-64330000D02*
X53852500Y-65730000D01*
X54052500Y-65730000D01*
X54052500Y-64330000D01*
X53852500Y-64330000D01*
G37*
X53852500Y-64330000D02*
X53852500Y-65730000D01*
X54052500Y-65730000D01*
X54052500Y-64330000D01*
X53852500Y-64330000D01*
G36*
X54502500Y-64330000D02*
X54502500Y-65730000D01*
X54702500Y-65730000D01*
X54702500Y-64330000D01*
X54502500Y-64330000D01*
G37*
X54502500Y-64330000D02*
X54502500Y-65730000D01*
X54702500Y-65730000D01*
X54702500Y-64330000D01*
X54502500Y-64330000D01*
G36*
X55152500Y-64330000D02*
X55152500Y-65730000D01*
X55352500Y-65730000D01*
X55352500Y-64330000D01*
X55152500Y-64330000D01*
G37*
X55152500Y-64330000D02*
X55152500Y-65730000D01*
X55352500Y-65730000D01*
X55352500Y-64330000D01*
X55152500Y-64330000D01*
G36*
X55802500Y-64330000D02*
X55802500Y-65730000D01*
X56002500Y-65730000D01*
X56002500Y-64330000D01*
X55802500Y-64330000D01*
G37*
X55802500Y-64330000D02*
X55802500Y-65730000D01*
X56002500Y-65730000D01*
X56002500Y-64330000D01*
X55802500Y-64330000D01*
G36*
X56452500Y-64330000D02*
X56452500Y-65730000D01*
X56652500Y-65730000D01*
X56652500Y-64330000D01*
X56452500Y-64330000D01*
G37*
X56452500Y-64330000D02*
X56452500Y-65730000D01*
X56652500Y-65730000D01*
X56652500Y-64330000D01*
X56452500Y-64330000D01*
G36*
X57102500Y-64330000D02*
X57102500Y-65730000D01*
X57302500Y-65730000D01*
X57302500Y-64330000D01*
X57102500Y-64330000D01*
G37*
X57102500Y-64330000D02*
X57102500Y-65730000D01*
X57302500Y-65730000D01*
X57302500Y-64330000D01*
X57102500Y-64330000D01*
G36*
X102123750Y-93352500D02*
X102123750Y-91952500D01*
X101923750Y-91952500D01*
X101923750Y-93352500D01*
X102123750Y-93352500D01*
G37*
X102123750Y-93352500D02*
X102123750Y-91952500D01*
X101923750Y-91952500D01*
X101923750Y-93352500D01*
X102123750Y-93352500D01*
G36*
X102773750Y-93352500D02*
X102773750Y-91952500D01*
X102573750Y-91952500D01*
X102573750Y-93352500D01*
X102773750Y-93352500D01*
G37*
X102773750Y-93352500D02*
X102773750Y-91952500D01*
X102573750Y-91952500D01*
X102573750Y-93352500D01*
X102773750Y-93352500D01*
G36*
X103423750Y-93352500D02*
X103423750Y-91952500D01*
X103223750Y-91952500D01*
X103223750Y-93352500D01*
X103423750Y-93352500D01*
G37*
X103423750Y-93352500D02*
X103423750Y-91952500D01*
X103223750Y-91952500D01*
X103223750Y-93352500D01*
X103423750Y-93352500D01*
G36*
X104073750Y-93352500D02*
X104073750Y-91952500D01*
X103873750Y-91952500D01*
X103873750Y-93352500D01*
X104073750Y-93352500D01*
G37*
X104073750Y-93352500D02*
X104073750Y-91952500D01*
X103873750Y-91952500D01*
X103873750Y-93352500D01*
X104073750Y-93352500D01*
G36*
X104723750Y-93352500D02*
X104723750Y-91952500D01*
X104523750Y-91952500D01*
X104523750Y-93352500D01*
X104723750Y-93352500D01*
G37*
X104723750Y-93352500D02*
X104723750Y-91952500D01*
X104523750Y-91952500D01*
X104523750Y-93352500D01*
X104723750Y-93352500D01*
G36*
X105373750Y-93352500D02*
X105373750Y-91952500D01*
X105173750Y-91952500D01*
X105173750Y-93352500D01*
X105373750Y-93352500D01*
G37*
X105373750Y-93352500D02*
X105373750Y-91952500D01*
X105173750Y-91952500D01*
X105173750Y-93352500D01*
X105373750Y-93352500D01*
G36*
X106023750Y-93352500D02*
X106023750Y-91952500D01*
X105823750Y-91952500D01*
X105823750Y-93352500D01*
X106023750Y-93352500D01*
G37*
X106023750Y-93352500D02*
X106023750Y-91952500D01*
X105823750Y-91952500D01*
X105823750Y-93352500D01*
X106023750Y-93352500D01*
G36*
X106673750Y-93352500D02*
X106673750Y-91952500D01*
X106473750Y-91952500D01*
X106473750Y-93352500D01*
X106673750Y-93352500D01*
G37*
X106673750Y-93352500D02*
X106673750Y-91952500D01*
X106473750Y-91952500D01*
X106473750Y-93352500D01*
X106673750Y-93352500D01*
G36*
X106673750Y-87752500D02*
X106673750Y-86352500D01*
X106473750Y-86352500D01*
X106473750Y-87752500D01*
X106673750Y-87752500D01*
G37*
X106673750Y-87752500D02*
X106673750Y-86352500D01*
X106473750Y-86352500D01*
X106473750Y-87752500D01*
X106673750Y-87752500D01*
G36*
X106023750Y-87752500D02*
X106023750Y-86352500D01*
X105823750Y-86352500D01*
X105823750Y-87752500D01*
X106023750Y-87752500D01*
G37*
X106023750Y-87752500D02*
X106023750Y-86352500D01*
X105823750Y-86352500D01*
X105823750Y-87752500D01*
X106023750Y-87752500D01*
G36*
X105373750Y-87752500D02*
X105373750Y-86352500D01*
X105173750Y-86352500D01*
X105173750Y-87752500D01*
X105373750Y-87752500D01*
G37*
X105373750Y-87752500D02*
X105373750Y-86352500D01*
X105173750Y-86352500D01*
X105173750Y-87752500D01*
X105373750Y-87752500D01*
G36*
X104723750Y-87752500D02*
X104723750Y-86352500D01*
X104523750Y-86352500D01*
X104523750Y-87752500D01*
X104723750Y-87752500D01*
G37*
X104723750Y-87752500D02*
X104723750Y-86352500D01*
X104523750Y-86352500D01*
X104523750Y-87752500D01*
X104723750Y-87752500D01*
G36*
X104073750Y-87752500D02*
X104073750Y-86352500D01*
X103873750Y-86352500D01*
X103873750Y-87752500D01*
X104073750Y-87752500D01*
G37*
X104073750Y-87752500D02*
X104073750Y-86352500D01*
X103873750Y-86352500D01*
X103873750Y-87752500D01*
X104073750Y-87752500D01*
G36*
X103423750Y-87752500D02*
X103423750Y-86352500D01*
X103223750Y-86352500D01*
X103223750Y-87752500D01*
X103423750Y-87752500D01*
G37*
X103423750Y-87752500D02*
X103423750Y-86352500D01*
X103223750Y-86352500D01*
X103223750Y-87752500D01*
X103423750Y-87752500D01*
G36*
X102773750Y-87752500D02*
X102773750Y-86352500D01*
X102573750Y-86352500D01*
X102573750Y-87752500D01*
X102773750Y-87752500D01*
G37*
X102773750Y-87752500D02*
X102773750Y-86352500D01*
X102573750Y-86352500D01*
X102573750Y-87752500D01*
X102773750Y-87752500D01*
G36*
X102123750Y-87752500D02*
X102123750Y-86352500D01*
X101923750Y-86352500D01*
X101923750Y-87752500D01*
X102123750Y-87752500D01*
G37*
X102123750Y-87752500D02*
X102123750Y-86352500D01*
X101923750Y-86352500D01*
X101923750Y-87752500D01*
X102123750Y-87752500D01*
G36*
X46243750Y-93352500D02*
X46243750Y-91952500D01*
X46043750Y-91952500D01*
X46043750Y-93352500D01*
X46243750Y-93352500D01*
G37*
X46243750Y-93352500D02*
X46243750Y-91952500D01*
X46043750Y-91952500D01*
X46043750Y-93352500D01*
X46243750Y-93352500D01*
G36*
X46893750Y-93352500D02*
X46893750Y-91952500D01*
X46693750Y-91952500D01*
X46693750Y-93352500D01*
X46893750Y-93352500D01*
G37*
X46893750Y-93352500D02*
X46893750Y-91952500D01*
X46693750Y-91952500D01*
X46693750Y-93352500D01*
X46893750Y-93352500D01*
G36*
X47543750Y-93352500D02*
X47543750Y-91952500D01*
X47343750Y-91952500D01*
X47343750Y-93352500D01*
X47543750Y-93352500D01*
G37*
X47543750Y-93352500D02*
X47543750Y-91952500D01*
X47343750Y-91952500D01*
X47343750Y-93352500D01*
X47543750Y-93352500D01*
G36*
X48193750Y-93352500D02*
X48193750Y-91952500D01*
X47993750Y-91952500D01*
X47993750Y-93352500D01*
X48193750Y-93352500D01*
G37*
X48193750Y-93352500D02*
X48193750Y-91952500D01*
X47993750Y-91952500D01*
X47993750Y-93352500D01*
X48193750Y-93352500D01*
G36*
X48843750Y-93352500D02*
X48843750Y-91952500D01*
X48643750Y-91952500D01*
X48643750Y-93352500D01*
X48843750Y-93352500D01*
G37*
X48843750Y-93352500D02*
X48843750Y-91952500D01*
X48643750Y-91952500D01*
X48643750Y-93352500D01*
X48843750Y-93352500D01*
G36*
X49493750Y-93352500D02*
X49493750Y-91952500D01*
X49293750Y-91952500D01*
X49293750Y-93352500D01*
X49493750Y-93352500D01*
G37*
X49493750Y-93352500D02*
X49493750Y-91952500D01*
X49293750Y-91952500D01*
X49293750Y-93352500D01*
X49493750Y-93352500D01*
G36*
X50143750Y-93352500D02*
X50143750Y-91952500D01*
X49943750Y-91952500D01*
X49943750Y-93352500D01*
X50143750Y-93352500D01*
G37*
X50143750Y-93352500D02*
X50143750Y-91952500D01*
X49943750Y-91952500D01*
X49943750Y-93352500D01*
X50143750Y-93352500D01*
G36*
X50793750Y-93352500D02*
X50793750Y-91952500D01*
X50593750Y-91952500D01*
X50593750Y-93352500D01*
X50793750Y-93352500D01*
G37*
X50793750Y-93352500D02*
X50793750Y-91952500D01*
X50593750Y-91952500D01*
X50593750Y-93352500D01*
X50793750Y-93352500D01*
G36*
X50793750Y-87752500D02*
X50793750Y-86352500D01*
X50593750Y-86352500D01*
X50593750Y-87752500D01*
X50793750Y-87752500D01*
G37*
X50793750Y-87752500D02*
X50793750Y-86352500D01*
X50593750Y-86352500D01*
X50593750Y-87752500D01*
X50793750Y-87752500D01*
G36*
X50143750Y-87752500D02*
X50143750Y-86352500D01*
X49943750Y-86352500D01*
X49943750Y-87752500D01*
X50143750Y-87752500D01*
G37*
X50143750Y-87752500D02*
X50143750Y-86352500D01*
X49943750Y-86352500D01*
X49943750Y-87752500D01*
X50143750Y-87752500D01*
G36*
X49493750Y-87752500D02*
X49493750Y-86352500D01*
X49293750Y-86352500D01*
X49293750Y-87752500D01*
X49493750Y-87752500D01*
G37*
X49493750Y-87752500D02*
X49493750Y-86352500D01*
X49293750Y-86352500D01*
X49293750Y-87752500D01*
X49493750Y-87752500D01*
G36*
X48843750Y-87752500D02*
X48843750Y-86352500D01*
X48643750Y-86352500D01*
X48643750Y-87752500D01*
X48843750Y-87752500D01*
G37*
X48843750Y-87752500D02*
X48843750Y-86352500D01*
X48643750Y-86352500D01*
X48643750Y-87752500D01*
X48843750Y-87752500D01*
G36*
X48193750Y-87752500D02*
X48193750Y-86352500D01*
X47993750Y-86352500D01*
X47993750Y-87752500D01*
X48193750Y-87752500D01*
G37*
X48193750Y-87752500D02*
X48193750Y-86352500D01*
X47993750Y-86352500D01*
X47993750Y-87752500D01*
X48193750Y-87752500D01*
G36*
X47543750Y-87752500D02*
X47543750Y-86352500D01*
X47343750Y-86352500D01*
X47343750Y-87752500D01*
X47543750Y-87752500D01*
G37*
X47543750Y-87752500D02*
X47543750Y-86352500D01*
X47343750Y-86352500D01*
X47343750Y-87752500D01*
X47543750Y-87752500D01*
G36*
X46893750Y-87752500D02*
X46893750Y-86352500D01*
X46693750Y-86352500D01*
X46693750Y-87752500D01*
X46893750Y-87752500D01*
G37*
X46893750Y-87752500D02*
X46893750Y-86352500D01*
X46693750Y-86352500D01*
X46693750Y-87752500D01*
X46893750Y-87752500D01*
G36*
X46243750Y-87752500D02*
X46243750Y-86352500D01*
X46043750Y-86352500D01*
X46043750Y-87752500D01*
X46243750Y-87752500D01*
G37*
X46243750Y-87752500D02*
X46243750Y-86352500D01*
X46043750Y-86352500D01*
X46043750Y-87752500D01*
X46243750Y-87752500D01*
G36*
X106156250Y-58730000D02*
X106156250Y-60130000D01*
X106356250Y-60130000D01*
X106356250Y-58730000D01*
X106156250Y-58730000D01*
G37*
X106156250Y-58730000D02*
X106156250Y-60130000D01*
X106356250Y-60130000D01*
X106356250Y-58730000D01*
X106156250Y-58730000D01*
G36*
X105506250Y-58730000D02*
X105506250Y-60130000D01*
X105706250Y-60130000D01*
X105706250Y-58730000D01*
X105506250Y-58730000D01*
G37*
X105506250Y-58730000D02*
X105506250Y-60130000D01*
X105706250Y-60130000D01*
X105706250Y-58730000D01*
X105506250Y-58730000D01*
G36*
X104856250Y-58730000D02*
X104856250Y-60130000D01*
X105056250Y-60130000D01*
X105056250Y-58730000D01*
X104856250Y-58730000D01*
G37*
X104856250Y-58730000D02*
X104856250Y-60130000D01*
X105056250Y-60130000D01*
X105056250Y-58730000D01*
X104856250Y-58730000D01*
G36*
X104206250Y-58730000D02*
X104206250Y-60130000D01*
X104406250Y-60130000D01*
X104406250Y-58730000D01*
X104206250Y-58730000D01*
G37*
X104206250Y-58730000D02*
X104206250Y-60130000D01*
X104406250Y-60130000D01*
X104406250Y-58730000D01*
X104206250Y-58730000D01*
G36*
X103556250Y-58730000D02*
X103556250Y-60130000D01*
X103756250Y-60130000D01*
X103756250Y-58730000D01*
X103556250Y-58730000D01*
G37*
X103556250Y-58730000D02*
X103556250Y-60130000D01*
X103756250Y-60130000D01*
X103756250Y-58730000D01*
X103556250Y-58730000D01*
G36*
X102906250Y-58730000D02*
X102906250Y-60130000D01*
X103106250Y-60130000D01*
X103106250Y-58730000D01*
X102906250Y-58730000D01*
G37*
X102906250Y-58730000D02*
X102906250Y-60130000D01*
X103106250Y-60130000D01*
X103106250Y-58730000D01*
X102906250Y-58730000D01*
G36*
X102256250Y-58730000D02*
X102256250Y-60130000D01*
X102456250Y-60130000D01*
X102456250Y-58730000D01*
X102256250Y-58730000D01*
G37*
X102256250Y-58730000D02*
X102256250Y-60130000D01*
X102456250Y-60130000D01*
X102456250Y-58730000D01*
X102256250Y-58730000D01*
G36*
X101606250Y-58730000D02*
X101606250Y-60130000D01*
X101806250Y-60130000D01*
X101806250Y-58730000D01*
X101606250Y-58730000D01*
G37*
X101606250Y-58730000D02*
X101606250Y-60130000D01*
X101806250Y-60130000D01*
X101806250Y-58730000D01*
X101606250Y-58730000D01*
G36*
X101606250Y-64330000D02*
X101606250Y-65730000D01*
X101806250Y-65730000D01*
X101806250Y-64330000D01*
X101606250Y-64330000D01*
G37*
X101606250Y-64330000D02*
X101606250Y-65730000D01*
X101806250Y-65730000D01*
X101806250Y-64330000D01*
X101606250Y-64330000D01*
G36*
X102256250Y-64330000D02*
X102256250Y-65730000D01*
X102456250Y-65730000D01*
X102456250Y-64330000D01*
X102256250Y-64330000D01*
G37*
X102256250Y-64330000D02*
X102256250Y-65730000D01*
X102456250Y-65730000D01*
X102456250Y-64330000D01*
X102256250Y-64330000D01*
G36*
X102906250Y-64330000D02*
X102906250Y-65730000D01*
X103106250Y-65730000D01*
X103106250Y-64330000D01*
X102906250Y-64330000D01*
G37*
X102906250Y-64330000D02*
X102906250Y-65730000D01*
X103106250Y-65730000D01*
X103106250Y-64330000D01*
X102906250Y-64330000D01*
G36*
X103556250Y-64330000D02*
X103556250Y-65730000D01*
X103756250Y-65730000D01*
X103756250Y-64330000D01*
X103556250Y-64330000D01*
G37*
X103556250Y-64330000D02*
X103556250Y-65730000D01*
X103756250Y-65730000D01*
X103756250Y-64330000D01*
X103556250Y-64330000D01*
G36*
X104206250Y-64330000D02*
X104206250Y-65730000D01*
X104406250Y-65730000D01*
X104406250Y-64330000D01*
X104206250Y-64330000D01*
G37*
X104206250Y-64330000D02*
X104206250Y-65730000D01*
X104406250Y-65730000D01*
X104406250Y-64330000D01*
X104206250Y-64330000D01*
G36*
X104856250Y-64330000D02*
X104856250Y-65730000D01*
X105056250Y-65730000D01*
X105056250Y-64330000D01*
X104856250Y-64330000D01*
G37*
X104856250Y-64330000D02*
X104856250Y-65730000D01*
X105056250Y-65730000D01*
X105056250Y-64330000D01*
X104856250Y-64330000D01*
G36*
X105506250Y-64330000D02*
X105506250Y-65730000D01*
X105706250Y-65730000D01*
X105706250Y-64330000D01*
X105506250Y-64330000D01*
G37*
X105506250Y-64330000D02*
X105506250Y-65730000D01*
X105706250Y-65730000D01*
X105706250Y-64330000D01*
X105506250Y-64330000D01*
G36*
X106156250Y-64330000D02*
X106156250Y-65730000D01*
X106356250Y-65730000D01*
X106356250Y-64330000D01*
X106156250Y-64330000D01*
G37*
X106156250Y-64330000D02*
X106156250Y-65730000D01*
X106356250Y-65730000D01*
X106356250Y-64330000D01*
X106156250Y-64330000D01*
G36*
X50276250Y-58730000D02*
X50276250Y-60130000D01*
X50476250Y-60130000D01*
X50476250Y-58730000D01*
X50276250Y-58730000D01*
G37*
X50276250Y-58730000D02*
X50276250Y-60130000D01*
X50476250Y-60130000D01*
X50476250Y-58730000D01*
X50276250Y-58730000D01*
G36*
X49626250Y-58730000D02*
X49626250Y-60130000D01*
X49826250Y-60130000D01*
X49826250Y-58730000D01*
X49626250Y-58730000D01*
G37*
X49626250Y-58730000D02*
X49626250Y-60130000D01*
X49826250Y-60130000D01*
X49826250Y-58730000D01*
X49626250Y-58730000D01*
G36*
X48976250Y-58730000D02*
X48976250Y-60130000D01*
X49176250Y-60130000D01*
X49176250Y-58730000D01*
X48976250Y-58730000D01*
G37*
X48976250Y-58730000D02*
X48976250Y-60130000D01*
X49176250Y-60130000D01*
X49176250Y-58730000D01*
X48976250Y-58730000D01*
G36*
X48326250Y-58730000D02*
X48326250Y-60130000D01*
X48526250Y-60130000D01*
X48526250Y-58730000D01*
X48326250Y-58730000D01*
G37*
X48326250Y-58730000D02*
X48326250Y-60130000D01*
X48526250Y-60130000D01*
X48526250Y-58730000D01*
X48326250Y-58730000D01*
G36*
X47676250Y-58730000D02*
X47676250Y-60130000D01*
X47876250Y-60130000D01*
X47876250Y-58730000D01*
X47676250Y-58730000D01*
G37*
X47676250Y-58730000D02*
X47676250Y-60130000D01*
X47876250Y-60130000D01*
X47876250Y-58730000D01*
X47676250Y-58730000D01*
G36*
X47026250Y-58730000D02*
X47026250Y-60130000D01*
X47226250Y-60130000D01*
X47226250Y-58730000D01*
X47026250Y-58730000D01*
G37*
X47026250Y-58730000D02*
X47026250Y-60130000D01*
X47226250Y-60130000D01*
X47226250Y-58730000D01*
X47026250Y-58730000D01*
G36*
X46376250Y-58730000D02*
X46376250Y-60130000D01*
X46576250Y-60130000D01*
X46576250Y-58730000D01*
X46376250Y-58730000D01*
G37*
X46376250Y-58730000D02*
X46376250Y-60130000D01*
X46576250Y-60130000D01*
X46576250Y-58730000D01*
X46376250Y-58730000D01*
G36*
X45726250Y-58730000D02*
X45726250Y-60130000D01*
X45926250Y-60130000D01*
X45926250Y-58730000D01*
X45726250Y-58730000D01*
G37*
X45726250Y-58730000D02*
X45726250Y-60130000D01*
X45926250Y-60130000D01*
X45926250Y-58730000D01*
X45726250Y-58730000D01*
G36*
X45726250Y-64330000D02*
X45726250Y-65730000D01*
X45926250Y-65730000D01*
X45926250Y-64330000D01*
X45726250Y-64330000D01*
G37*
X45726250Y-64330000D02*
X45726250Y-65730000D01*
X45926250Y-65730000D01*
X45926250Y-64330000D01*
X45726250Y-64330000D01*
G36*
X46376250Y-64330000D02*
X46376250Y-65730000D01*
X46576250Y-65730000D01*
X46576250Y-64330000D01*
X46376250Y-64330000D01*
G37*
X46376250Y-64330000D02*
X46376250Y-65730000D01*
X46576250Y-65730000D01*
X46576250Y-64330000D01*
X46376250Y-64330000D01*
G36*
X47026250Y-64330000D02*
X47026250Y-65730000D01*
X47226250Y-65730000D01*
X47226250Y-64330000D01*
X47026250Y-64330000D01*
G37*
X47026250Y-64330000D02*
X47026250Y-65730000D01*
X47226250Y-65730000D01*
X47226250Y-64330000D01*
X47026250Y-64330000D01*
G36*
X47676250Y-64330000D02*
X47676250Y-65730000D01*
X47876250Y-65730000D01*
X47876250Y-64330000D01*
X47676250Y-64330000D01*
G37*
X47676250Y-64330000D02*
X47676250Y-65730000D01*
X47876250Y-65730000D01*
X47876250Y-64330000D01*
X47676250Y-64330000D01*
G36*
X48326250Y-64330000D02*
X48326250Y-65730000D01*
X48526250Y-65730000D01*
X48526250Y-64330000D01*
X48326250Y-64330000D01*
G37*
X48326250Y-64330000D02*
X48326250Y-65730000D01*
X48526250Y-65730000D01*
X48526250Y-64330000D01*
X48326250Y-64330000D01*
G36*
X48976250Y-64330000D02*
X48976250Y-65730000D01*
X49176250Y-65730000D01*
X49176250Y-64330000D01*
X48976250Y-64330000D01*
G37*
X48976250Y-64330000D02*
X48976250Y-65730000D01*
X49176250Y-65730000D01*
X49176250Y-64330000D01*
X48976250Y-64330000D01*
G36*
X49626250Y-64330000D02*
X49626250Y-65730000D01*
X49826250Y-65730000D01*
X49826250Y-64330000D01*
X49626250Y-64330000D01*
G37*
X49626250Y-64330000D02*
X49626250Y-65730000D01*
X49826250Y-65730000D01*
X49826250Y-64330000D01*
X49626250Y-64330000D01*
G36*
X50276250Y-64330000D02*
X50276250Y-65730000D01*
X50476250Y-65730000D01*
X50476250Y-64330000D01*
X50276250Y-64330000D01*
G37*
X50276250Y-64330000D02*
X50276250Y-65730000D01*
X50476250Y-65730000D01*
X50476250Y-64330000D01*
X50276250Y-64330000D01*
G36*
X118475000Y-93352500D02*
X118475000Y-91952500D01*
X118275000Y-91952500D01*
X118275000Y-93352500D01*
X118475000Y-93352500D01*
G37*
X118475000Y-93352500D02*
X118475000Y-91952500D01*
X118275000Y-91952500D01*
X118275000Y-93352500D01*
X118475000Y-93352500D01*
G36*
X119125000Y-93352500D02*
X119125000Y-91952500D01*
X118925000Y-91952500D01*
X118925000Y-93352500D01*
X119125000Y-93352500D01*
G37*
X119125000Y-93352500D02*
X119125000Y-91952500D01*
X118925000Y-91952500D01*
X118925000Y-93352500D01*
X119125000Y-93352500D01*
G36*
X119775000Y-93352500D02*
X119775000Y-91952500D01*
X119575000Y-91952500D01*
X119575000Y-93352500D01*
X119775000Y-93352500D01*
G37*
X119775000Y-93352500D02*
X119775000Y-91952500D01*
X119575000Y-91952500D01*
X119575000Y-93352500D01*
X119775000Y-93352500D01*
G36*
X120425000Y-93352500D02*
X120425000Y-91952500D01*
X120225000Y-91952500D01*
X120225000Y-93352500D01*
X120425000Y-93352500D01*
G37*
X120425000Y-93352500D02*
X120425000Y-91952500D01*
X120225000Y-91952500D01*
X120225000Y-93352500D01*
X120425000Y-93352500D01*
G36*
X121075000Y-93352500D02*
X121075000Y-91952500D01*
X120875000Y-91952500D01*
X120875000Y-93352500D01*
X121075000Y-93352500D01*
G37*
X121075000Y-93352500D02*
X121075000Y-91952500D01*
X120875000Y-91952500D01*
X120875000Y-93352500D01*
X121075000Y-93352500D01*
G36*
X121725000Y-93352500D02*
X121725000Y-91952500D01*
X121525000Y-91952500D01*
X121525000Y-93352500D01*
X121725000Y-93352500D01*
G37*
X121725000Y-93352500D02*
X121725000Y-91952500D01*
X121525000Y-91952500D01*
X121525000Y-93352500D01*
X121725000Y-93352500D01*
G36*
X122375000Y-93352500D02*
X122375000Y-91952500D01*
X122175000Y-91952500D01*
X122175000Y-93352500D01*
X122375000Y-93352500D01*
G37*
X122375000Y-93352500D02*
X122375000Y-91952500D01*
X122175000Y-91952500D01*
X122175000Y-93352500D01*
X122375000Y-93352500D01*
G36*
X123025000Y-93352500D02*
X123025000Y-91952500D01*
X122825000Y-91952500D01*
X122825000Y-93352500D01*
X123025000Y-93352500D01*
G37*
X123025000Y-93352500D02*
X123025000Y-91952500D01*
X122825000Y-91952500D01*
X122825000Y-93352500D01*
X123025000Y-93352500D01*
G36*
X123025000Y-87752500D02*
X123025000Y-86352500D01*
X122825000Y-86352500D01*
X122825000Y-87752500D01*
X123025000Y-87752500D01*
G37*
X123025000Y-87752500D02*
X123025000Y-86352500D01*
X122825000Y-86352500D01*
X122825000Y-87752500D01*
X123025000Y-87752500D01*
G36*
X122375000Y-87752500D02*
X122375000Y-86352500D01*
X122175000Y-86352500D01*
X122175000Y-87752500D01*
X122375000Y-87752500D01*
G37*
X122375000Y-87752500D02*
X122375000Y-86352500D01*
X122175000Y-86352500D01*
X122175000Y-87752500D01*
X122375000Y-87752500D01*
G36*
X121725000Y-87752500D02*
X121725000Y-86352500D01*
X121525000Y-86352500D01*
X121525000Y-87752500D01*
X121725000Y-87752500D01*
G37*
X121725000Y-87752500D02*
X121725000Y-86352500D01*
X121525000Y-86352500D01*
X121525000Y-87752500D01*
X121725000Y-87752500D01*
G36*
X121075000Y-87752500D02*
X121075000Y-86352500D01*
X120875000Y-86352500D01*
X120875000Y-87752500D01*
X121075000Y-87752500D01*
G37*
X121075000Y-87752500D02*
X121075000Y-86352500D01*
X120875000Y-86352500D01*
X120875000Y-87752500D01*
X121075000Y-87752500D01*
G36*
X120425000Y-87752500D02*
X120425000Y-86352500D01*
X120225000Y-86352500D01*
X120225000Y-87752500D01*
X120425000Y-87752500D01*
G37*
X120425000Y-87752500D02*
X120425000Y-86352500D01*
X120225000Y-86352500D01*
X120225000Y-87752500D01*
X120425000Y-87752500D01*
G36*
X119775000Y-87752500D02*
X119775000Y-86352500D01*
X119575000Y-86352500D01*
X119575000Y-87752500D01*
X119775000Y-87752500D01*
G37*
X119775000Y-87752500D02*
X119775000Y-86352500D01*
X119575000Y-86352500D01*
X119575000Y-87752500D01*
X119775000Y-87752500D01*
G36*
X119125000Y-87752500D02*
X119125000Y-86352500D01*
X118925000Y-86352500D01*
X118925000Y-87752500D01*
X119125000Y-87752500D01*
G37*
X119125000Y-87752500D02*
X119125000Y-86352500D01*
X118925000Y-86352500D01*
X118925000Y-87752500D01*
X119125000Y-87752500D01*
G36*
X118475000Y-87752500D02*
X118475000Y-86352500D01*
X118275000Y-86352500D01*
X118275000Y-87752500D01*
X118475000Y-87752500D01*
G37*
X118475000Y-87752500D02*
X118475000Y-86352500D01*
X118275000Y-86352500D01*
X118275000Y-87752500D01*
X118475000Y-87752500D01*
G36*
X108950000Y-93352500D02*
X108950000Y-91952500D01*
X108750000Y-91952500D01*
X108750000Y-93352500D01*
X108950000Y-93352500D01*
G37*
X108950000Y-93352500D02*
X108950000Y-91952500D01*
X108750000Y-91952500D01*
X108750000Y-93352500D01*
X108950000Y-93352500D01*
G36*
X109600000Y-93352500D02*
X109600000Y-91952500D01*
X109400000Y-91952500D01*
X109400000Y-93352500D01*
X109600000Y-93352500D01*
G37*
X109600000Y-93352500D02*
X109600000Y-91952500D01*
X109400000Y-91952500D01*
X109400000Y-93352500D01*
X109600000Y-93352500D01*
G36*
X110250000Y-93352500D02*
X110250000Y-91952500D01*
X110050000Y-91952500D01*
X110050000Y-93352500D01*
X110250000Y-93352500D01*
G37*
X110250000Y-93352500D02*
X110250000Y-91952500D01*
X110050000Y-91952500D01*
X110050000Y-93352500D01*
X110250000Y-93352500D01*
G36*
X110900000Y-93352500D02*
X110900000Y-91952500D01*
X110700000Y-91952500D01*
X110700000Y-93352500D01*
X110900000Y-93352500D01*
G37*
X110900000Y-93352500D02*
X110900000Y-91952500D01*
X110700000Y-91952500D01*
X110700000Y-93352500D01*
X110900000Y-93352500D01*
G36*
X111550000Y-93352500D02*
X111550000Y-91952500D01*
X111350000Y-91952500D01*
X111350000Y-93352500D01*
X111550000Y-93352500D01*
G37*
X111550000Y-93352500D02*
X111550000Y-91952500D01*
X111350000Y-91952500D01*
X111350000Y-93352500D01*
X111550000Y-93352500D01*
G36*
X112200000Y-93352500D02*
X112200000Y-91952500D01*
X112000000Y-91952500D01*
X112000000Y-93352500D01*
X112200000Y-93352500D01*
G37*
X112200000Y-93352500D02*
X112200000Y-91952500D01*
X112000000Y-91952500D01*
X112000000Y-93352500D01*
X112200000Y-93352500D01*
G36*
X112850000Y-93352500D02*
X112850000Y-91952500D01*
X112650000Y-91952500D01*
X112650000Y-93352500D01*
X112850000Y-93352500D01*
G37*
X112850000Y-93352500D02*
X112850000Y-91952500D01*
X112650000Y-91952500D01*
X112650000Y-93352500D01*
X112850000Y-93352500D01*
G36*
X113500000Y-93352500D02*
X113500000Y-91952500D01*
X113300000Y-91952500D01*
X113300000Y-93352500D01*
X113500000Y-93352500D01*
G37*
X113500000Y-93352500D02*
X113500000Y-91952500D01*
X113300000Y-91952500D01*
X113300000Y-93352500D01*
X113500000Y-93352500D01*
G36*
X113500000Y-87752500D02*
X113500000Y-86352500D01*
X113300000Y-86352500D01*
X113300000Y-87752500D01*
X113500000Y-87752500D01*
G37*
X113500000Y-87752500D02*
X113500000Y-86352500D01*
X113300000Y-86352500D01*
X113300000Y-87752500D01*
X113500000Y-87752500D01*
G36*
X112850000Y-87752500D02*
X112850000Y-86352500D01*
X112650000Y-86352500D01*
X112650000Y-87752500D01*
X112850000Y-87752500D01*
G37*
X112850000Y-87752500D02*
X112850000Y-86352500D01*
X112650000Y-86352500D01*
X112650000Y-87752500D01*
X112850000Y-87752500D01*
G36*
X112200000Y-87752500D02*
X112200000Y-86352500D01*
X112000000Y-86352500D01*
X112000000Y-87752500D01*
X112200000Y-87752500D01*
G37*
X112200000Y-87752500D02*
X112200000Y-86352500D01*
X112000000Y-86352500D01*
X112000000Y-87752500D01*
X112200000Y-87752500D01*
G36*
X111550000Y-87752500D02*
X111550000Y-86352500D01*
X111350000Y-86352500D01*
X111350000Y-87752500D01*
X111550000Y-87752500D01*
G37*
X111550000Y-87752500D02*
X111550000Y-86352500D01*
X111350000Y-86352500D01*
X111350000Y-87752500D01*
X111550000Y-87752500D01*
G36*
X110900000Y-87752500D02*
X110900000Y-86352500D01*
X110700000Y-86352500D01*
X110700000Y-87752500D01*
X110900000Y-87752500D01*
G37*
X110900000Y-87752500D02*
X110900000Y-86352500D01*
X110700000Y-86352500D01*
X110700000Y-87752500D01*
X110900000Y-87752500D01*
G36*
X110250000Y-87752500D02*
X110250000Y-86352500D01*
X110050000Y-86352500D01*
X110050000Y-87752500D01*
X110250000Y-87752500D01*
G37*
X110250000Y-87752500D02*
X110250000Y-86352500D01*
X110050000Y-86352500D01*
X110050000Y-87752500D01*
X110250000Y-87752500D01*
G36*
X109600000Y-87752500D02*
X109600000Y-86352500D01*
X109400000Y-86352500D01*
X109400000Y-87752500D01*
X109600000Y-87752500D01*
G37*
X109600000Y-87752500D02*
X109600000Y-86352500D01*
X109400000Y-86352500D01*
X109400000Y-87752500D01*
X109600000Y-87752500D01*
G36*
X108950000Y-87752500D02*
X108950000Y-86352500D01*
X108750000Y-86352500D01*
X108750000Y-87752500D01*
X108950000Y-87752500D01*
G37*
X108950000Y-87752500D02*
X108950000Y-86352500D01*
X108750000Y-86352500D01*
X108750000Y-87752500D01*
X108950000Y-87752500D01*
G36*
X95297500Y-93352500D02*
X95297500Y-91952500D01*
X95097500Y-91952500D01*
X95097500Y-93352500D01*
X95297500Y-93352500D01*
G37*
X95297500Y-93352500D02*
X95297500Y-91952500D01*
X95097500Y-91952500D01*
X95097500Y-93352500D01*
X95297500Y-93352500D01*
G36*
X95947500Y-93352500D02*
X95947500Y-91952500D01*
X95747500Y-91952500D01*
X95747500Y-93352500D01*
X95947500Y-93352500D01*
G37*
X95947500Y-93352500D02*
X95947500Y-91952500D01*
X95747500Y-91952500D01*
X95747500Y-93352500D01*
X95947500Y-93352500D01*
G36*
X96597500Y-93352500D02*
X96597500Y-91952500D01*
X96397500Y-91952500D01*
X96397500Y-93352500D01*
X96597500Y-93352500D01*
G37*
X96597500Y-93352500D02*
X96597500Y-91952500D01*
X96397500Y-91952500D01*
X96397500Y-93352500D01*
X96597500Y-93352500D01*
G36*
X97247500Y-93352500D02*
X97247500Y-91952500D01*
X97047500Y-91952500D01*
X97047500Y-93352500D01*
X97247500Y-93352500D01*
G37*
X97247500Y-93352500D02*
X97247500Y-91952500D01*
X97047500Y-91952500D01*
X97047500Y-93352500D01*
X97247500Y-93352500D01*
G36*
X97897500Y-93352500D02*
X97897500Y-91952500D01*
X97697500Y-91952500D01*
X97697500Y-93352500D01*
X97897500Y-93352500D01*
G37*
X97897500Y-93352500D02*
X97897500Y-91952500D01*
X97697500Y-91952500D01*
X97697500Y-93352500D01*
X97897500Y-93352500D01*
G36*
X98547500Y-93352500D02*
X98547500Y-91952500D01*
X98347500Y-91952500D01*
X98347500Y-93352500D01*
X98547500Y-93352500D01*
G37*
X98547500Y-93352500D02*
X98547500Y-91952500D01*
X98347500Y-91952500D01*
X98347500Y-93352500D01*
X98547500Y-93352500D01*
G36*
X99197500Y-93352500D02*
X99197500Y-91952500D01*
X98997500Y-91952500D01*
X98997500Y-93352500D01*
X99197500Y-93352500D01*
G37*
X99197500Y-93352500D02*
X99197500Y-91952500D01*
X98997500Y-91952500D01*
X98997500Y-93352500D01*
X99197500Y-93352500D01*
G36*
X99847500Y-93352500D02*
X99847500Y-91952500D01*
X99647500Y-91952500D01*
X99647500Y-93352500D01*
X99847500Y-93352500D01*
G37*
X99847500Y-93352500D02*
X99847500Y-91952500D01*
X99647500Y-91952500D01*
X99647500Y-93352500D01*
X99847500Y-93352500D01*
G36*
X99847500Y-87752500D02*
X99847500Y-86352500D01*
X99647500Y-86352500D01*
X99647500Y-87752500D01*
X99847500Y-87752500D01*
G37*
X99847500Y-87752500D02*
X99847500Y-86352500D01*
X99647500Y-86352500D01*
X99647500Y-87752500D01*
X99847500Y-87752500D01*
G36*
X99197500Y-87752500D02*
X99197500Y-86352500D01*
X98997500Y-86352500D01*
X98997500Y-87752500D01*
X99197500Y-87752500D01*
G37*
X99197500Y-87752500D02*
X99197500Y-86352500D01*
X98997500Y-86352500D01*
X98997500Y-87752500D01*
X99197500Y-87752500D01*
G36*
X98547500Y-87752500D02*
X98547500Y-86352500D01*
X98347500Y-86352500D01*
X98347500Y-87752500D01*
X98547500Y-87752500D01*
G37*
X98547500Y-87752500D02*
X98547500Y-86352500D01*
X98347500Y-86352500D01*
X98347500Y-87752500D01*
X98547500Y-87752500D01*
G36*
X97897500Y-87752500D02*
X97897500Y-86352500D01*
X97697500Y-86352500D01*
X97697500Y-87752500D01*
X97897500Y-87752500D01*
G37*
X97897500Y-87752500D02*
X97897500Y-86352500D01*
X97697500Y-86352500D01*
X97697500Y-87752500D01*
X97897500Y-87752500D01*
G36*
X97247500Y-87752500D02*
X97247500Y-86352500D01*
X97047500Y-86352500D01*
X97047500Y-87752500D01*
X97247500Y-87752500D01*
G37*
X97247500Y-87752500D02*
X97247500Y-86352500D01*
X97047500Y-86352500D01*
X97047500Y-87752500D01*
X97247500Y-87752500D01*
G36*
X96597500Y-87752500D02*
X96597500Y-86352500D01*
X96397500Y-86352500D01*
X96397500Y-87752500D01*
X96597500Y-87752500D01*
G37*
X96597500Y-87752500D02*
X96597500Y-86352500D01*
X96397500Y-86352500D01*
X96397500Y-87752500D01*
X96597500Y-87752500D01*
G36*
X95947500Y-87752500D02*
X95947500Y-86352500D01*
X95747500Y-86352500D01*
X95747500Y-87752500D01*
X95947500Y-87752500D01*
G37*
X95947500Y-87752500D02*
X95947500Y-86352500D01*
X95747500Y-86352500D01*
X95747500Y-87752500D01*
X95947500Y-87752500D01*
G36*
X95297500Y-87752500D02*
X95297500Y-86352500D01*
X95097500Y-86352500D01*
X95097500Y-87752500D01*
X95297500Y-87752500D01*
G37*
X95297500Y-87752500D02*
X95297500Y-86352500D01*
X95097500Y-86352500D01*
X95097500Y-87752500D01*
X95297500Y-87752500D01*
G36*
X85772500Y-93352500D02*
X85772500Y-91952500D01*
X85572500Y-91952500D01*
X85572500Y-93352500D01*
X85772500Y-93352500D01*
G37*
X85772500Y-93352500D02*
X85772500Y-91952500D01*
X85572500Y-91952500D01*
X85572500Y-93352500D01*
X85772500Y-93352500D01*
G36*
X86422500Y-93352500D02*
X86422500Y-91952500D01*
X86222500Y-91952500D01*
X86222500Y-93352500D01*
X86422500Y-93352500D01*
G37*
X86422500Y-93352500D02*
X86422500Y-91952500D01*
X86222500Y-91952500D01*
X86222500Y-93352500D01*
X86422500Y-93352500D01*
G36*
X87072500Y-93352500D02*
X87072500Y-91952500D01*
X86872500Y-91952500D01*
X86872500Y-93352500D01*
X87072500Y-93352500D01*
G37*
X87072500Y-93352500D02*
X87072500Y-91952500D01*
X86872500Y-91952500D01*
X86872500Y-93352500D01*
X87072500Y-93352500D01*
G36*
X87722500Y-93352500D02*
X87722500Y-91952500D01*
X87522500Y-91952500D01*
X87522500Y-93352500D01*
X87722500Y-93352500D01*
G37*
X87722500Y-93352500D02*
X87722500Y-91952500D01*
X87522500Y-91952500D01*
X87522500Y-93352500D01*
X87722500Y-93352500D01*
G36*
X88372500Y-93352500D02*
X88372500Y-91952500D01*
X88172500Y-91952500D01*
X88172500Y-93352500D01*
X88372500Y-93352500D01*
G37*
X88372500Y-93352500D02*
X88372500Y-91952500D01*
X88172500Y-91952500D01*
X88172500Y-93352500D01*
X88372500Y-93352500D01*
G36*
X89022500Y-93352500D02*
X89022500Y-91952500D01*
X88822500Y-91952500D01*
X88822500Y-93352500D01*
X89022500Y-93352500D01*
G37*
X89022500Y-93352500D02*
X89022500Y-91952500D01*
X88822500Y-91952500D01*
X88822500Y-93352500D01*
X89022500Y-93352500D01*
G36*
X89672500Y-93352500D02*
X89672500Y-91952500D01*
X89472500Y-91952500D01*
X89472500Y-93352500D01*
X89672500Y-93352500D01*
G37*
X89672500Y-93352500D02*
X89672500Y-91952500D01*
X89472500Y-91952500D01*
X89472500Y-93352500D01*
X89672500Y-93352500D01*
G36*
X90322500Y-93352500D02*
X90322500Y-91952500D01*
X90122500Y-91952500D01*
X90122500Y-93352500D01*
X90322500Y-93352500D01*
G37*
X90322500Y-93352500D02*
X90322500Y-91952500D01*
X90122500Y-91952500D01*
X90122500Y-93352500D01*
X90322500Y-93352500D01*
G36*
X90322500Y-87752500D02*
X90322500Y-86352500D01*
X90122500Y-86352500D01*
X90122500Y-87752500D01*
X90322500Y-87752500D01*
G37*
X90322500Y-87752500D02*
X90322500Y-86352500D01*
X90122500Y-86352500D01*
X90122500Y-87752500D01*
X90322500Y-87752500D01*
G36*
X89672500Y-87752500D02*
X89672500Y-86352500D01*
X89472500Y-86352500D01*
X89472500Y-87752500D01*
X89672500Y-87752500D01*
G37*
X89672500Y-87752500D02*
X89672500Y-86352500D01*
X89472500Y-86352500D01*
X89472500Y-87752500D01*
X89672500Y-87752500D01*
G36*
X89022500Y-87752500D02*
X89022500Y-86352500D01*
X88822500Y-86352500D01*
X88822500Y-87752500D01*
X89022500Y-87752500D01*
G37*
X89022500Y-87752500D02*
X89022500Y-86352500D01*
X88822500Y-86352500D01*
X88822500Y-87752500D01*
X89022500Y-87752500D01*
G36*
X88372500Y-87752500D02*
X88372500Y-86352500D01*
X88172500Y-86352500D01*
X88172500Y-87752500D01*
X88372500Y-87752500D01*
G37*
X88372500Y-87752500D02*
X88372500Y-86352500D01*
X88172500Y-86352500D01*
X88172500Y-87752500D01*
X88372500Y-87752500D01*
G36*
X87722500Y-87752500D02*
X87722500Y-86352500D01*
X87522500Y-86352500D01*
X87522500Y-87752500D01*
X87722500Y-87752500D01*
G37*
X87722500Y-87752500D02*
X87722500Y-86352500D01*
X87522500Y-86352500D01*
X87522500Y-87752500D01*
X87722500Y-87752500D01*
G36*
X87072500Y-87752500D02*
X87072500Y-86352500D01*
X86872500Y-86352500D01*
X86872500Y-87752500D01*
X87072500Y-87752500D01*
G37*
X87072500Y-87752500D02*
X87072500Y-86352500D01*
X86872500Y-86352500D01*
X86872500Y-87752500D01*
X87072500Y-87752500D01*
G36*
X86422500Y-87752500D02*
X86422500Y-86352500D01*
X86222500Y-86352500D01*
X86222500Y-87752500D01*
X86422500Y-87752500D01*
G37*
X86422500Y-87752500D02*
X86422500Y-86352500D01*
X86222500Y-86352500D01*
X86222500Y-87752500D01*
X86422500Y-87752500D01*
G36*
X85772500Y-87752500D02*
X85772500Y-86352500D01*
X85572500Y-86352500D01*
X85572500Y-87752500D01*
X85772500Y-87752500D01*
G37*
X85772500Y-87752500D02*
X85772500Y-86352500D01*
X85572500Y-86352500D01*
X85572500Y-87752500D01*
X85772500Y-87752500D01*
G36*
X62595000Y-93352500D02*
X62595000Y-91952500D01*
X62395000Y-91952500D01*
X62395000Y-93352500D01*
X62595000Y-93352500D01*
G37*
X62595000Y-93352500D02*
X62595000Y-91952500D01*
X62395000Y-91952500D01*
X62395000Y-93352500D01*
X62595000Y-93352500D01*
G36*
X63245000Y-93352500D02*
X63245000Y-91952500D01*
X63045000Y-91952500D01*
X63045000Y-93352500D01*
X63245000Y-93352500D01*
G37*
X63245000Y-93352500D02*
X63245000Y-91952500D01*
X63045000Y-91952500D01*
X63045000Y-93352500D01*
X63245000Y-93352500D01*
G36*
X63895000Y-93352500D02*
X63895000Y-91952500D01*
X63695000Y-91952500D01*
X63695000Y-93352500D01*
X63895000Y-93352500D01*
G37*
X63895000Y-93352500D02*
X63895000Y-91952500D01*
X63695000Y-91952500D01*
X63695000Y-93352500D01*
X63895000Y-93352500D01*
G36*
X64545000Y-93352500D02*
X64545000Y-91952500D01*
X64345000Y-91952500D01*
X64345000Y-93352500D01*
X64545000Y-93352500D01*
G37*
X64545000Y-93352500D02*
X64545000Y-91952500D01*
X64345000Y-91952500D01*
X64345000Y-93352500D01*
X64545000Y-93352500D01*
G36*
X65195000Y-93352500D02*
X65195000Y-91952500D01*
X64995000Y-91952500D01*
X64995000Y-93352500D01*
X65195000Y-93352500D01*
G37*
X65195000Y-93352500D02*
X65195000Y-91952500D01*
X64995000Y-91952500D01*
X64995000Y-93352500D01*
X65195000Y-93352500D01*
G36*
X65845000Y-93352500D02*
X65845000Y-91952500D01*
X65645000Y-91952500D01*
X65645000Y-93352500D01*
X65845000Y-93352500D01*
G37*
X65845000Y-93352500D02*
X65845000Y-91952500D01*
X65645000Y-91952500D01*
X65645000Y-93352500D01*
X65845000Y-93352500D01*
G36*
X66495000Y-93352500D02*
X66495000Y-91952500D01*
X66295000Y-91952500D01*
X66295000Y-93352500D01*
X66495000Y-93352500D01*
G37*
X66495000Y-93352500D02*
X66495000Y-91952500D01*
X66295000Y-91952500D01*
X66295000Y-93352500D01*
X66495000Y-93352500D01*
G36*
X67145000Y-93352500D02*
X67145000Y-91952500D01*
X66945000Y-91952500D01*
X66945000Y-93352500D01*
X67145000Y-93352500D01*
G37*
X67145000Y-93352500D02*
X67145000Y-91952500D01*
X66945000Y-91952500D01*
X66945000Y-93352500D01*
X67145000Y-93352500D01*
G36*
X67145000Y-87752500D02*
X67145000Y-86352500D01*
X66945000Y-86352500D01*
X66945000Y-87752500D01*
X67145000Y-87752500D01*
G37*
X67145000Y-87752500D02*
X67145000Y-86352500D01*
X66945000Y-86352500D01*
X66945000Y-87752500D01*
X67145000Y-87752500D01*
G36*
X66495000Y-87752500D02*
X66495000Y-86352500D01*
X66295000Y-86352500D01*
X66295000Y-87752500D01*
X66495000Y-87752500D01*
G37*
X66495000Y-87752500D02*
X66495000Y-86352500D01*
X66295000Y-86352500D01*
X66295000Y-87752500D01*
X66495000Y-87752500D01*
G36*
X65845000Y-87752500D02*
X65845000Y-86352500D01*
X65645000Y-86352500D01*
X65645000Y-87752500D01*
X65845000Y-87752500D01*
G37*
X65845000Y-87752500D02*
X65845000Y-86352500D01*
X65645000Y-86352500D01*
X65645000Y-87752500D01*
X65845000Y-87752500D01*
G36*
X65195000Y-87752500D02*
X65195000Y-86352500D01*
X64995000Y-86352500D01*
X64995000Y-87752500D01*
X65195000Y-87752500D01*
G37*
X65195000Y-87752500D02*
X65195000Y-86352500D01*
X64995000Y-86352500D01*
X64995000Y-87752500D01*
X65195000Y-87752500D01*
G36*
X64545000Y-87752500D02*
X64545000Y-86352500D01*
X64345000Y-86352500D01*
X64345000Y-87752500D01*
X64545000Y-87752500D01*
G37*
X64545000Y-87752500D02*
X64545000Y-86352500D01*
X64345000Y-86352500D01*
X64345000Y-87752500D01*
X64545000Y-87752500D01*
G36*
X63895000Y-87752500D02*
X63895000Y-86352500D01*
X63695000Y-86352500D01*
X63695000Y-87752500D01*
X63895000Y-87752500D01*
G37*
X63895000Y-87752500D02*
X63895000Y-86352500D01*
X63695000Y-86352500D01*
X63695000Y-87752500D01*
X63895000Y-87752500D01*
G36*
X63245000Y-87752500D02*
X63245000Y-86352500D01*
X63045000Y-86352500D01*
X63045000Y-87752500D01*
X63245000Y-87752500D01*
G37*
X63245000Y-87752500D02*
X63245000Y-86352500D01*
X63045000Y-86352500D01*
X63045000Y-87752500D01*
X63245000Y-87752500D01*
G36*
X62595000Y-87752500D02*
X62595000Y-86352500D01*
X62395000Y-86352500D01*
X62395000Y-87752500D01*
X62595000Y-87752500D01*
G37*
X62595000Y-87752500D02*
X62595000Y-86352500D01*
X62395000Y-86352500D01*
X62395000Y-87752500D01*
X62595000Y-87752500D01*
G36*
X53070000Y-93352500D02*
X53070000Y-91952500D01*
X52870000Y-91952500D01*
X52870000Y-93352500D01*
X53070000Y-93352500D01*
G37*
X53070000Y-93352500D02*
X53070000Y-91952500D01*
X52870000Y-91952500D01*
X52870000Y-93352500D01*
X53070000Y-93352500D01*
G36*
X53720000Y-93352500D02*
X53720000Y-91952500D01*
X53520000Y-91952500D01*
X53520000Y-93352500D01*
X53720000Y-93352500D01*
G37*
X53720000Y-93352500D02*
X53720000Y-91952500D01*
X53520000Y-91952500D01*
X53520000Y-93352500D01*
X53720000Y-93352500D01*
G36*
X54370000Y-93352500D02*
X54370000Y-91952500D01*
X54170000Y-91952500D01*
X54170000Y-93352500D01*
X54370000Y-93352500D01*
G37*
X54370000Y-93352500D02*
X54370000Y-91952500D01*
X54170000Y-91952500D01*
X54170000Y-93352500D01*
X54370000Y-93352500D01*
G36*
X55020000Y-93352500D02*
X55020000Y-91952500D01*
X54820000Y-91952500D01*
X54820000Y-93352500D01*
X55020000Y-93352500D01*
G37*
X55020000Y-93352500D02*
X55020000Y-91952500D01*
X54820000Y-91952500D01*
X54820000Y-93352500D01*
X55020000Y-93352500D01*
G36*
X55670000Y-93352500D02*
X55670000Y-91952500D01*
X55470000Y-91952500D01*
X55470000Y-93352500D01*
X55670000Y-93352500D01*
G37*
X55670000Y-93352500D02*
X55670000Y-91952500D01*
X55470000Y-91952500D01*
X55470000Y-93352500D01*
X55670000Y-93352500D01*
G36*
X56320000Y-93352500D02*
X56320000Y-91952500D01*
X56120000Y-91952500D01*
X56120000Y-93352500D01*
X56320000Y-93352500D01*
G37*
X56320000Y-93352500D02*
X56320000Y-91952500D01*
X56120000Y-91952500D01*
X56120000Y-93352500D01*
X56320000Y-93352500D01*
G36*
X56970000Y-93352500D02*
X56970000Y-91952500D01*
X56770000Y-91952500D01*
X56770000Y-93352500D01*
X56970000Y-93352500D01*
G37*
X56970000Y-93352500D02*
X56970000Y-91952500D01*
X56770000Y-91952500D01*
X56770000Y-93352500D01*
X56970000Y-93352500D01*
G36*
X57620000Y-93352500D02*
X57620000Y-91952500D01*
X57420000Y-91952500D01*
X57420000Y-93352500D01*
X57620000Y-93352500D01*
G37*
X57620000Y-93352500D02*
X57620000Y-91952500D01*
X57420000Y-91952500D01*
X57420000Y-93352500D01*
X57620000Y-93352500D01*
G36*
X57620000Y-87752500D02*
X57620000Y-86352500D01*
X57420000Y-86352500D01*
X57420000Y-87752500D01*
X57620000Y-87752500D01*
G37*
X57620000Y-87752500D02*
X57620000Y-86352500D01*
X57420000Y-86352500D01*
X57420000Y-87752500D01*
X57620000Y-87752500D01*
G36*
X56970000Y-87752500D02*
X56970000Y-86352500D01*
X56770000Y-86352500D01*
X56770000Y-87752500D01*
X56970000Y-87752500D01*
G37*
X56970000Y-87752500D02*
X56970000Y-86352500D01*
X56770000Y-86352500D01*
X56770000Y-87752500D01*
X56970000Y-87752500D01*
G36*
X56320000Y-87752500D02*
X56320000Y-86352500D01*
X56120000Y-86352500D01*
X56120000Y-87752500D01*
X56320000Y-87752500D01*
G37*
X56320000Y-87752500D02*
X56320000Y-86352500D01*
X56120000Y-86352500D01*
X56120000Y-87752500D01*
X56320000Y-87752500D01*
G36*
X55670000Y-87752500D02*
X55670000Y-86352500D01*
X55470000Y-86352500D01*
X55470000Y-87752500D01*
X55670000Y-87752500D01*
G37*
X55670000Y-87752500D02*
X55670000Y-86352500D01*
X55470000Y-86352500D01*
X55470000Y-87752500D01*
X55670000Y-87752500D01*
G36*
X55020000Y-87752500D02*
X55020000Y-86352500D01*
X54820000Y-86352500D01*
X54820000Y-87752500D01*
X55020000Y-87752500D01*
G37*
X55020000Y-87752500D02*
X55020000Y-86352500D01*
X54820000Y-86352500D01*
X54820000Y-87752500D01*
X55020000Y-87752500D01*
G36*
X54370000Y-87752500D02*
X54370000Y-86352500D01*
X54170000Y-86352500D01*
X54170000Y-87752500D01*
X54370000Y-87752500D01*
G37*
X54370000Y-87752500D02*
X54370000Y-86352500D01*
X54170000Y-86352500D01*
X54170000Y-87752500D01*
X54370000Y-87752500D01*
G36*
X53720000Y-87752500D02*
X53720000Y-86352500D01*
X53520000Y-86352500D01*
X53520000Y-87752500D01*
X53720000Y-87752500D01*
G37*
X53720000Y-87752500D02*
X53720000Y-86352500D01*
X53520000Y-86352500D01*
X53520000Y-87752500D01*
X53720000Y-87752500D01*
G36*
X53070000Y-87752500D02*
X53070000Y-86352500D01*
X52870000Y-86352500D01*
X52870000Y-87752500D01*
X53070000Y-87752500D01*
G37*
X53070000Y-87752500D02*
X53070000Y-86352500D01*
X52870000Y-86352500D01*
X52870000Y-87752500D01*
X53070000Y-87752500D01*
G36*
X39417500Y-93352500D02*
X39417500Y-91952500D01*
X39217500Y-91952500D01*
X39217500Y-93352500D01*
X39417500Y-93352500D01*
G37*
X39417500Y-93352500D02*
X39417500Y-91952500D01*
X39217500Y-91952500D01*
X39217500Y-93352500D01*
X39417500Y-93352500D01*
G36*
X40067500Y-93352500D02*
X40067500Y-91952500D01*
X39867500Y-91952500D01*
X39867500Y-93352500D01*
X40067500Y-93352500D01*
G37*
X40067500Y-93352500D02*
X40067500Y-91952500D01*
X39867500Y-91952500D01*
X39867500Y-93352500D01*
X40067500Y-93352500D01*
G36*
X40717500Y-93352500D02*
X40717500Y-91952500D01*
X40517500Y-91952500D01*
X40517500Y-93352500D01*
X40717500Y-93352500D01*
G37*
X40717500Y-93352500D02*
X40717500Y-91952500D01*
X40517500Y-91952500D01*
X40517500Y-93352500D01*
X40717500Y-93352500D01*
G36*
X41367500Y-93352500D02*
X41367500Y-91952500D01*
X41167500Y-91952500D01*
X41167500Y-93352500D01*
X41367500Y-93352500D01*
G37*
X41367500Y-93352500D02*
X41367500Y-91952500D01*
X41167500Y-91952500D01*
X41167500Y-93352500D01*
X41367500Y-93352500D01*
G36*
X42017500Y-93352500D02*
X42017500Y-91952500D01*
X41817500Y-91952500D01*
X41817500Y-93352500D01*
X42017500Y-93352500D01*
G37*
X42017500Y-93352500D02*
X42017500Y-91952500D01*
X41817500Y-91952500D01*
X41817500Y-93352500D01*
X42017500Y-93352500D01*
G36*
X42667500Y-93352500D02*
X42667500Y-91952500D01*
X42467500Y-91952500D01*
X42467500Y-93352500D01*
X42667500Y-93352500D01*
G37*
X42667500Y-93352500D02*
X42667500Y-91952500D01*
X42467500Y-91952500D01*
X42467500Y-93352500D01*
X42667500Y-93352500D01*
G36*
X43317500Y-93352500D02*
X43317500Y-91952500D01*
X43117500Y-91952500D01*
X43117500Y-93352500D01*
X43317500Y-93352500D01*
G37*
X43317500Y-93352500D02*
X43317500Y-91952500D01*
X43117500Y-91952500D01*
X43117500Y-93352500D01*
X43317500Y-93352500D01*
G36*
X43967500Y-93352500D02*
X43967500Y-91952500D01*
X43767500Y-91952500D01*
X43767500Y-93352500D01*
X43967500Y-93352500D01*
G37*
X43967500Y-93352500D02*
X43967500Y-91952500D01*
X43767500Y-91952500D01*
X43767500Y-93352500D01*
X43967500Y-93352500D01*
G36*
X43967500Y-87752500D02*
X43967500Y-86352500D01*
X43767500Y-86352500D01*
X43767500Y-87752500D01*
X43967500Y-87752500D01*
G37*
X43967500Y-87752500D02*
X43967500Y-86352500D01*
X43767500Y-86352500D01*
X43767500Y-87752500D01*
X43967500Y-87752500D01*
G36*
X43317500Y-87752500D02*
X43317500Y-86352500D01*
X43117500Y-86352500D01*
X43117500Y-87752500D01*
X43317500Y-87752500D01*
G37*
X43317500Y-87752500D02*
X43317500Y-86352500D01*
X43117500Y-86352500D01*
X43117500Y-87752500D01*
X43317500Y-87752500D01*
G36*
X42667500Y-87752500D02*
X42667500Y-86352500D01*
X42467500Y-86352500D01*
X42467500Y-87752500D01*
X42667500Y-87752500D01*
G37*
X42667500Y-87752500D02*
X42667500Y-86352500D01*
X42467500Y-86352500D01*
X42467500Y-87752500D01*
X42667500Y-87752500D01*
G36*
X42017500Y-87752500D02*
X42017500Y-86352500D01*
X41817500Y-86352500D01*
X41817500Y-87752500D01*
X42017500Y-87752500D01*
G37*
X42017500Y-87752500D02*
X42017500Y-86352500D01*
X41817500Y-86352500D01*
X41817500Y-87752500D01*
X42017500Y-87752500D01*
G36*
X41367500Y-87752500D02*
X41367500Y-86352500D01*
X41167500Y-86352500D01*
X41167500Y-87752500D01*
X41367500Y-87752500D01*
G37*
X41367500Y-87752500D02*
X41367500Y-86352500D01*
X41167500Y-86352500D01*
X41167500Y-87752500D01*
X41367500Y-87752500D01*
G36*
X40717500Y-87752500D02*
X40717500Y-86352500D01*
X40517500Y-86352500D01*
X40517500Y-87752500D01*
X40717500Y-87752500D01*
G37*
X40717500Y-87752500D02*
X40717500Y-86352500D01*
X40517500Y-86352500D01*
X40517500Y-87752500D01*
X40717500Y-87752500D01*
G36*
X40067500Y-87752500D02*
X40067500Y-86352500D01*
X39867500Y-86352500D01*
X39867500Y-87752500D01*
X40067500Y-87752500D01*
G37*
X40067500Y-87752500D02*
X40067500Y-86352500D01*
X39867500Y-86352500D01*
X39867500Y-87752500D01*
X40067500Y-87752500D01*
G36*
X39417500Y-87752500D02*
X39417500Y-86352500D01*
X39217500Y-86352500D01*
X39217500Y-87752500D01*
X39417500Y-87752500D01*
G37*
X39417500Y-87752500D02*
X39417500Y-86352500D01*
X39217500Y-86352500D01*
X39217500Y-87752500D01*
X39417500Y-87752500D01*
G36*
X29892500Y-93352500D02*
X29892500Y-91952500D01*
X29692500Y-91952500D01*
X29692500Y-93352500D01*
X29892500Y-93352500D01*
G37*
X29892500Y-93352500D02*
X29892500Y-91952500D01*
X29692500Y-91952500D01*
X29692500Y-93352500D01*
X29892500Y-93352500D01*
G36*
X30542500Y-93352500D02*
X30542500Y-91952500D01*
X30342500Y-91952500D01*
X30342500Y-93352500D01*
X30542500Y-93352500D01*
G37*
X30542500Y-93352500D02*
X30542500Y-91952500D01*
X30342500Y-91952500D01*
X30342500Y-93352500D01*
X30542500Y-93352500D01*
G36*
X31192500Y-93352500D02*
X31192500Y-91952500D01*
X30992500Y-91952500D01*
X30992500Y-93352500D01*
X31192500Y-93352500D01*
G37*
X31192500Y-93352500D02*
X31192500Y-91952500D01*
X30992500Y-91952500D01*
X30992500Y-93352500D01*
X31192500Y-93352500D01*
G36*
X31842500Y-93352500D02*
X31842500Y-91952500D01*
X31642500Y-91952500D01*
X31642500Y-93352500D01*
X31842500Y-93352500D01*
G37*
X31842500Y-93352500D02*
X31842500Y-91952500D01*
X31642500Y-91952500D01*
X31642500Y-93352500D01*
X31842500Y-93352500D01*
G36*
X32492500Y-93352500D02*
X32492500Y-91952500D01*
X32292500Y-91952500D01*
X32292500Y-93352500D01*
X32492500Y-93352500D01*
G37*
X32492500Y-93352500D02*
X32492500Y-91952500D01*
X32292500Y-91952500D01*
X32292500Y-93352500D01*
X32492500Y-93352500D01*
G36*
X33142500Y-93352500D02*
X33142500Y-91952500D01*
X32942500Y-91952500D01*
X32942500Y-93352500D01*
X33142500Y-93352500D01*
G37*
X33142500Y-93352500D02*
X33142500Y-91952500D01*
X32942500Y-91952500D01*
X32942500Y-93352500D01*
X33142500Y-93352500D01*
G36*
X33792500Y-93352500D02*
X33792500Y-91952500D01*
X33592500Y-91952500D01*
X33592500Y-93352500D01*
X33792500Y-93352500D01*
G37*
X33792500Y-93352500D02*
X33792500Y-91952500D01*
X33592500Y-91952500D01*
X33592500Y-93352500D01*
X33792500Y-93352500D01*
G36*
X34442500Y-93352500D02*
X34442500Y-91952500D01*
X34242500Y-91952500D01*
X34242500Y-93352500D01*
X34442500Y-93352500D01*
G37*
X34442500Y-93352500D02*
X34442500Y-91952500D01*
X34242500Y-91952500D01*
X34242500Y-93352500D01*
X34442500Y-93352500D01*
G36*
X34442500Y-87752500D02*
X34442500Y-86352500D01*
X34242500Y-86352500D01*
X34242500Y-87752500D01*
X34442500Y-87752500D01*
G37*
X34442500Y-87752500D02*
X34442500Y-86352500D01*
X34242500Y-86352500D01*
X34242500Y-87752500D01*
X34442500Y-87752500D01*
G36*
X33792500Y-87752500D02*
X33792500Y-86352500D01*
X33592500Y-86352500D01*
X33592500Y-87752500D01*
X33792500Y-87752500D01*
G37*
X33792500Y-87752500D02*
X33792500Y-86352500D01*
X33592500Y-86352500D01*
X33592500Y-87752500D01*
X33792500Y-87752500D01*
G36*
X33142500Y-87752500D02*
X33142500Y-86352500D01*
X32942500Y-86352500D01*
X32942500Y-87752500D01*
X33142500Y-87752500D01*
G37*
X33142500Y-87752500D02*
X33142500Y-86352500D01*
X32942500Y-86352500D01*
X32942500Y-87752500D01*
X33142500Y-87752500D01*
G36*
X32492500Y-87752500D02*
X32492500Y-86352500D01*
X32292500Y-86352500D01*
X32292500Y-87752500D01*
X32492500Y-87752500D01*
G37*
X32492500Y-87752500D02*
X32492500Y-86352500D01*
X32292500Y-86352500D01*
X32292500Y-87752500D01*
X32492500Y-87752500D01*
G36*
X31842500Y-87752500D02*
X31842500Y-86352500D01*
X31642500Y-86352500D01*
X31642500Y-87752500D01*
X31842500Y-87752500D01*
G37*
X31842500Y-87752500D02*
X31842500Y-86352500D01*
X31642500Y-86352500D01*
X31642500Y-87752500D01*
X31842500Y-87752500D01*
G36*
X31192500Y-87752500D02*
X31192500Y-86352500D01*
X30992500Y-86352500D01*
X30992500Y-87752500D01*
X31192500Y-87752500D01*
G37*
X31192500Y-87752500D02*
X31192500Y-86352500D01*
X30992500Y-86352500D01*
X30992500Y-87752500D01*
X31192500Y-87752500D01*
G36*
X30542500Y-87752500D02*
X30542500Y-86352500D01*
X30342500Y-86352500D01*
X30342500Y-87752500D01*
X30542500Y-87752500D01*
G37*
X30542500Y-87752500D02*
X30542500Y-86352500D01*
X30342500Y-86352500D01*
X30342500Y-87752500D01*
X30542500Y-87752500D01*
G36*
X29892500Y-87752500D02*
X29892500Y-86352500D01*
X29692500Y-86352500D01*
X29692500Y-87752500D01*
X29892500Y-87752500D01*
G37*
X29892500Y-87752500D02*
X29892500Y-86352500D01*
X29692500Y-86352500D01*
X29692500Y-87752500D01*
X29892500Y-87752500D01*
G36*
X122507500Y-58730000D02*
X122507500Y-60130000D01*
X122707500Y-60130000D01*
X122707500Y-58730000D01*
X122507500Y-58730000D01*
G37*
X122507500Y-58730000D02*
X122507500Y-60130000D01*
X122707500Y-60130000D01*
X122707500Y-58730000D01*
X122507500Y-58730000D01*
G36*
X121857500Y-58730000D02*
X121857500Y-60130000D01*
X122057500Y-60130000D01*
X122057500Y-58730000D01*
X121857500Y-58730000D01*
G37*
X121857500Y-58730000D02*
X121857500Y-60130000D01*
X122057500Y-60130000D01*
X122057500Y-58730000D01*
X121857500Y-58730000D01*
G36*
X121207500Y-58730000D02*
X121207500Y-60130000D01*
X121407500Y-60130000D01*
X121407500Y-58730000D01*
X121207500Y-58730000D01*
G37*
X121207500Y-58730000D02*
X121207500Y-60130000D01*
X121407500Y-60130000D01*
X121407500Y-58730000D01*
X121207500Y-58730000D01*
G36*
X120557500Y-58730000D02*
X120557500Y-60130000D01*
X120757500Y-60130000D01*
X120757500Y-58730000D01*
X120557500Y-58730000D01*
G37*
X120557500Y-58730000D02*
X120557500Y-60130000D01*
X120757500Y-60130000D01*
X120757500Y-58730000D01*
X120557500Y-58730000D01*
G36*
X119907500Y-58730000D02*
X119907500Y-60130000D01*
X120107500Y-60130000D01*
X120107500Y-58730000D01*
X119907500Y-58730000D01*
G37*
X119907500Y-58730000D02*
X119907500Y-60130000D01*
X120107500Y-60130000D01*
X120107500Y-58730000D01*
X119907500Y-58730000D01*
G36*
X119257500Y-58730000D02*
X119257500Y-60130000D01*
X119457500Y-60130000D01*
X119457500Y-58730000D01*
X119257500Y-58730000D01*
G37*
X119257500Y-58730000D02*
X119257500Y-60130000D01*
X119457500Y-60130000D01*
X119457500Y-58730000D01*
X119257500Y-58730000D01*
G36*
X118607500Y-58730000D02*
X118607500Y-60130000D01*
X118807500Y-60130000D01*
X118807500Y-58730000D01*
X118607500Y-58730000D01*
G37*
X118607500Y-58730000D02*
X118607500Y-60130000D01*
X118807500Y-60130000D01*
X118807500Y-58730000D01*
X118607500Y-58730000D01*
G36*
X117957500Y-58730000D02*
X117957500Y-60130000D01*
X118157500Y-60130000D01*
X118157500Y-58730000D01*
X117957500Y-58730000D01*
G37*
X117957500Y-58730000D02*
X117957500Y-60130000D01*
X118157500Y-60130000D01*
X118157500Y-58730000D01*
X117957500Y-58730000D01*
G36*
X117957500Y-64330000D02*
X117957500Y-65730000D01*
X118157500Y-65730000D01*
X118157500Y-64330000D01*
X117957500Y-64330000D01*
G37*
X117957500Y-64330000D02*
X117957500Y-65730000D01*
X118157500Y-65730000D01*
X118157500Y-64330000D01*
X117957500Y-64330000D01*
G36*
X118607500Y-64330000D02*
X118607500Y-65730000D01*
X118807500Y-65730000D01*
X118807500Y-64330000D01*
X118607500Y-64330000D01*
G37*
X118607500Y-64330000D02*
X118607500Y-65730000D01*
X118807500Y-65730000D01*
X118807500Y-64330000D01*
X118607500Y-64330000D01*
G36*
X119257500Y-64330000D02*
X119257500Y-65730000D01*
X119457500Y-65730000D01*
X119457500Y-64330000D01*
X119257500Y-64330000D01*
G37*
X119257500Y-64330000D02*
X119257500Y-65730000D01*
X119457500Y-65730000D01*
X119457500Y-64330000D01*
X119257500Y-64330000D01*
G36*
X119907500Y-64330000D02*
X119907500Y-65730000D01*
X120107500Y-65730000D01*
X120107500Y-64330000D01*
X119907500Y-64330000D01*
G37*
X119907500Y-64330000D02*
X119907500Y-65730000D01*
X120107500Y-65730000D01*
X120107500Y-64330000D01*
X119907500Y-64330000D01*
G36*
X120557500Y-64330000D02*
X120557500Y-65730000D01*
X120757500Y-65730000D01*
X120757500Y-64330000D01*
X120557500Y-64330000D01*
G37*
X120557500Y-64330000D02*
X120557500Y-65730000D01*
X120757500Y-65730000D01*
X120757500Y-64330000D01*
X120557500Y-64330000D01*
G36*
X121207500Y-64330000D02*
X121207500Y-65730000D01*
X121407500Y-65730000D01*
X121407500Y-64330000D01*
X121207500Y-64330000D01*
G37*
X121207500Y-64330000D02*
X121207500Y-65730000D01*
X121407500Y-65730000D01*
X121407500Y-64330000D01*
X121207500Y-64330000D01*
G36*
X121857500Y-64330000D02*
X121857500Y-65730000D01*
X122057500Y-65730000D01*
X122057500Y-64330000D01*
X121857500Y-64330000D01*
G37*
X121857500Y-64330000D02*
X121857500Y-65730000D01*
X122057500Y-65730000D01*
X122057500Y-64330000D01*
X121857500Y-64330000D01*
G36*
X122507500Y-64330000D02*
X122507500Y-65730000D01*
X122707500Y-65730000D01*
X122707500Y-64330000D01*
X122507500Y-64330000D01*
G37*
X122507500Y-64330000D02*
X122507500Y-65730000D01*
X122707500Y-65730000D01*
X122707500Y-64330000D01*
X122507500Y-64330000D01*
G36*
X112982500Y-58730000D02*
X112982500Y-60130000D01*
X113182500Y-60130000D01*
X113182500Y-58730000D01*
X112982500Y-58730000D01*
G37*
X112982500Y-58730000D02*
X112982500Y-60130000D01*
X113182500Y-60130000D01*
X113182500Y-58730000D01*
X112982500Y-58730000D01*
G36*
X112332500Y-58730000D02*
X112332500Y-60130000D01*
X112532500Y-60130000D01*
X112532500Y-58730000D01*
X112332500Y-58730000D01*
G37*
X112332500Y-58730000D02*
X112332500Y-60130000D01*
X112532500Y-60130000D01*
X112532500Y-58730000D01*
X112332500Y-58730000D01*
G36*
X111682500Y-58730000D02*
X111682500Y-60130000D01*
X111882500Y-60130000D01*
X111882500Y-58730000D01*
X111682500Y-58730000D01*
G37*
X111682500Y-58730000D02*
X111682500Y-60130000D01*
X111882500Y-60130000D01*
X111882500Y-58730000D01*
X111682500Y-58730000D01*
G36*
X111032500Y-58730000D02*
X111032500Y-60130000D01*
X111232500Y-60130000D01*
X111232500Y-58730000D01*
X111032500Y-58730000D01*
G37*
X111032500Y-58730000D02*
X111032500Y-60130000D01*
X111232500Y-60130000D01*
X111232500Y-58730000D01*
X111032500Y-58730000D01*
G36*
X110382500Y-58730000D02*
X110382500Y-60130000D01*
X110582500Y-60130000D01*
X110582500Y-58730000D01*
X110382500Y-58730000D01*
G37*
X110382500Y-58730000D02*
X110382500Y-60130000D01*
X110582500Y-60130000D01*
X110582500Y-58730000D01*
X110382500Y-58730000D01*
G36*
X109732500Y-58730000D02*
X109732500Y-60130000D01*
X109932500Y-60130000D01*
X109932500Y-58730000D01*
X109732500Y-58730000D01*
G37*
X109732500Y-58730000D02*
X109732500Y-60130000D01*
X109932500Y-60130000D01*
X109932500Y-58730000D01*
X109732500Y-58730000D01*
G36*
X109082500Y-58730000D02*
X109082500Y-60130000D01*
X109282500Y-60130000D01*
X109282500Y-58730000D01*
X109082500Y-58730000D01*
G37*
X109082500Y-58730000D02*
X109082500Y-60130000D01*
X109282500Y-60130000D01*
X109282500Y-58730000D01*
X109082500Y-58730000D01*
G36*
X108432500Y-58730000D02*
X108432500Y-60130000D01*
X108632500Y-60130000D01*
X108632500Y-58730000D01*
X108432500Y-58730000D01*
G37*
X108432500Y-58730000D02*
X108432500Y-60130000D01*
X108632500Y-60130000D01*
X108632500Y-58730000D01*
X108432500Y-58730000D01*
G36*
X108432500Y-64330000D02*
X108432500Y-65730000D01*
X108632500Y-65730000D01*
X108632500Y-64330000D01*
X108432500Y-64330000D01*
G37*
X108432500Y-64330000D02*
X108432500Y-65730000D01*
X108632500Y-65730000D01*
X108632500Y-64330000D01*
X108432500Y-64330000D01*
G36*
X109082500Y-64330000D02*
X109082500Y-65730000D01*
X109282500Y-65730000D01*
X109282500Y-64330000D01*
X109082500Y-64330000D01*
G37*
X109082500Y-64330000D02*
X109082500Y-65730000D01*
X109282500Y-65730000D01*
X109282500Y-64330000D01*
X109082500Y-64330000D01*
G36*
X109732500Y-64330000D02*
X109732500Y-65730000D01*
X109932500Y-65730000D01*
X109932500Y-64330000D01*
X109732500Y-64330000D01*
G37*
X109732500Y-64330000D02*
X109732500Y-65730000D01*
X109932500Y-65730000D01*
X109932500Y-64330000D01*
X109732500Y-64330000D01*
G36*
X110382500Y-64330000D02*
X110382500Y-65730000D01*
X110582500Y-65730000D01*
X110582500Y-64330000D01*
X110382500Y-64330000D01*
G37*
X110382500Y-64330000D02*
X110382500Y-65730000D01*
X110582500Y-65730000D01*
X110582500Y-64330000D01*
X110382500Y-64330000D01*
G36*
X111032500Y-64330000D02*
X111032500Y-65730000D01*
X111232500Y-65730000D01*
X111232500Y-64330000D01*
X111032500Y-64330000D01*
G37*
X111032500Y-64330000D02*
X111032500Y-65730000D01*
X111232500Y-65730000D01*
X111232500Y-64330000D01*
X111032500Y-64330000D01*
G36*
X111682500Y-64330000D02*
X111682500Y-65730000D01*
X111882500Y-65730000D01*
X111882500Y-64330000D01*
X111682500Y-64330000D01*
G37*
X111682500Y-64330000D02*
X111682500Y-65730000D01*
X111882500Y-65730000D01*
X111882500Y-64330000D01*
X111682500Y-64330000D01*
G36*
X112332500Y-64330000D02*
X112332500Y-65730000D01*
X112532500Y-65730000D01*
X112532500Y-64330000D01*
X112332500Y-64330000D01*
G37*
X112332500Y-64330000D02*
X112332500Y-65730000D01*
X112532500Y-65730000D01*
X112532500Y-64330000D01*
X112332500Y-64330000D01*
G36*
X112982500Y-64330000D02*
X112982500Y-65730000D01*
X113182500Y-65730000D01*
X113182500Y-64330000D01*
X112982500Y-64330000D01*
G37*
X112982500Y-64330000D02*
X112982500Y-65730000D01*
X113182500Y-65730000D01*
X113182500Y-64330000D01*
X112982500Y-64330000D01*
G36*
X99330000Y-58730000D02*
X99330000Y-60130000D01*
X99530000Y-60130000D01*
X99530000Y-58730000D01*
X99330000Y-58730000D01*
G37*
X99330000Y-58730000D02*
X99330000Y-60130000D01*
X99530000Y-60130000D01*
X99530000Y-58730000D01*
X99330000Y-58730000D01*
G36*
X98680000Y-58730000D02*
X98680000Y-60130000D01*
X98880000Y-60130000D01*
X98880000Y-58730000D01*
X98680000Y-58730000D01*
G37*
X98680000Y-58730000D02*
X98680000Y-60130000D01*
X98880000Y-60130000D01*
X98880000Y-58730000D01*
X98680000Y-58730000D01*
G36*
X98030000Y-58730000D02*
X98030000Y-60130000D01*
X98230000Y-60130000D01*
X98230000Y-58730000D01*
X98030000Y-58730000D01*
G37*
X98030000Y-58730000D02*
X98030000Y-60130000D01*
X98230000Y-60130000D01*
X98230000Y-58730000D01*
X98030000Y-58730000D01*
G36*
X97380000Y-58730000D02*
X97380000Y-60130000D01*
X97580000Y-60130000D01*
X97580000Y-58730000D01*
X97380000Y-58730000D01*
G37*
X97380000Y-58730000D02*
X97380000Y-60130000D01*
X97580000Y-60130000D01*
X97580000Y-58730000D01*
X97380000Y-58730000D01*
G36*
X96730000Y-58730000D02*
X96730000Y-60130000D01*
X96930000Y-60130000D01*
X96930000Y-58730000D01*
X96730000Y-58730000D01*
G37*
X96730000Y-58730000D02*
X96730000Y-60130000D01*
X96930000Y-60130000D01*
X96930000Y-58730000D01*
X96730000Y-58730000D01*
G36*
X96080000Y-58730000D02*
X96080000Y-60130000D01*
X96280000Y-60130000D01*
X96280000Y-58730000D01*
X96080000Y-58730000D01*
G37*
X96080000Y-58730000D02*
X96080000Y-60130000D01*
X96280000Y-60130000D01*
X96280000Y-58730000D01*
X96080000Y-58730000D01*
G36*
X95430000Y-58730000D02*
X95430000Y-60130000D01*
X95630000Y-60130000D01*
X95630000Y-58730000D01*
X95430000Y-58730000D01*
G37*
X95430000Y-58730000D02*
X95430000Y-60130000D01*
X95630000Y-60130000D01*
X95630000Y-58730000D01*
X95430000Y-58730000D01*
G36*
X94780000Y-58730000D02*
X94780000Y-60130000D01*
X94980000Y-60130000D01*
X94980000Y-58730000D01*
X94780000Y-58730000D01*
G37*
X94780000Y-58730000D02*
X94780000Y-60130000D01*
X94980000Y-60130000D01*
X94980000Y-58730000D01*
X94780000Y-58730000D01*
G36*
X94780000Y-64330000D02*
X94780000Y-65730000D01*
X94980000Y-65730000D01*
X94980000Y-64330000D01*
X94780000Y-64330000D01*
G37*
X94780000Y-64330000D02*
X94780000Y-65730000D01*
X94980000Y-65730000D01*
X94980000Y-64330000D01*
X94780000Y-64330000D01*
G36*
X95430000Y-64330000D02*
X95430000Y-65730000D01*
X95630000Y-65730000D01*
X95630000Y-64330000D01*
X95430000Y-64330000D01*
G37*
X95430000Y-64330000D02*
X95430000Y-65730000D01*
X95630000Y-65730000D01*
X95630000Y-64330000D01*
X95430000Y-64330000D01*
G36*
X96080000Y-64330000D02*
X96080000Y-65730000D01*
X96280000Y-65730000D01*
X96280000Y-64330000D01*
X96080000Y-64330000D01*
G37*
X96080000Y-64330000D02*
X96080000Y-65730000D01*
X96280000Y-65730000D01*
X96280000Y-64330000D01*
X96080000Y-64330000D01*
G36*
X96730000Y-64330000D02*
X96730000Y-65730000D01*
X96930000Y-65730000D01*
X96930000Y-64330000D01*
X96730000Y-64330000D01*
G37*
X96730000Y-64330000D02*
X96730000Y-65730000D01*
X96930000Y-65730000D01*
X96930000Y-64330000D01*
X96730000Y-64330000D01*
G36*
X97380000Y-64330000D02*
X97380000Y-65730000D01*
X97580000Y-65730000D01*
X97580000Y-64330000D01*
X97380000Y-64330000D01*
G37*
X97380000Y-64330000D02*
X97380000Y-65730000D01*
X97580000Y-65730000D01*
X97580000Y-64330000D01*
X97380000Y-64330000D01*
G36*
X98030000Y-64330000D02*
X98030000Y-65730000D01*
X98230000Y-65730000D01*
X98230000Y-64330000D01*
X98030000Y-64330000D01*
G37*
X98030000Y-64330000D02*
X98030000Y-65730000D01*
X98230000Y-65730000D01*
X98230000Y-64330000D01*
X98030000Y-64330000D01*
G36*
X98680000Y-64330000D02*
X98680000Y-65730000D01*
X98880000Y-65730000D01*
X98880000Y-64330000D01*
X98680000Y-64330000D01*
G37*
X98680000Y-64330000D02*
X98680000Y-65730000D01*
X98880000Y-65730000D01*
X98880000Y-64330000D01*
X98680000Y-64330000D01*
G36*
X99330000Y-64330000D02*
X99330000Y-65730000D01*
X99530000Y-65730000D01*
X99530000Y-64330000D01*
X99330000Y-64330000D01*
G37*
X99330000Y-64330000D02*
X99330000Y-65730000D01*
X99530000Y-65730000D01*
X99530000Y-64330000D01*
X99330000Y-64330000D01*
G36*
X89805000Y-58730000D02*
X89805000Y-60130000D01*
X90005000Y-60130000D01*
X90005000Y-58730000D01*
X89805000Y-58730000D01*
G37*
X89805000Y-58730000D02*
X89805000Y-60130000D01*
X90005000Y-60130000D01*
X90005000Y-58730000D01*
X89805000Y-58730000D01*
G36*
X89155000Y-58730000D02*
X89155000Y-60130000D01*
X89355000Y-60130000D01*
X89355000Y-58730000D01*
X89155000Y-58730000D01*
G37*
X89155000Y-58730000D02*
X89155000Y-60130000D01*
X89355000Y-60130000D01*
X89355000Y-58730000D01*
X89155000Y-58730000D01*
G36*
X88505000Y-58730000D02*
X88505000Y-60130000D01*
X88705000Y-60130000D01*
X88705000Y-58730000D01*
X88505000Y-58730000D01*
G37*
X88505000Y-58730000D02*
X88505000Y-60130000D01*
X88705000Y-60130000D01*
X88705000Y-58730000D01*
X88505000Y-58730000D01*
G36*
X87855000Y-58730000D02*
X87855000Y-60130000D01*
X88055000Y-60130000D01*
X88055000Y-58730000D01*
X87855000Y-58730000D01*
G37*
X87855000Y-58730000D02*
X87855000Y-60130000D01*
X88055000Y-60130000D01*
X88055000Y-58730000D01*
X87855000Y-58730000D01*
G36*
X87205000Y-58730000D02*
X87205000Y-60130000D01*
X87405000Y-60130000D01*
X87405000Y-58730000D01*
X87205000Y-58730000D01*
G37*
X87205000Y-58730000D02*
X87205000Y-60130000D01*
X87405000Y-60130000D01*
X87405000Y-58730000D01*
X87205000Y-58730000D01*
G36*
X86555000Y-58730000D02*
X86555000Y-60130000D01*
X86755000Y-60130000D01*
X86755000Y-58730000D01*
X86555000Y-58730000D01*
G37*
X86555000Y-58730000D02*
X86555000Y-60130000D01*
X86755000Y-60130000D01*
X86755000Y-58730000D01*
X86555000Y-58730000D01*
G36*
X85905000Y-58730000D02*
X85905000Y-60130000D01*
X86105000Y-60130000D01*
X86105000Y-58730000D01*
X85905000Y-58730000D01*
G37*
X85905000Y-58730000D02*
X85905000Y-60130000D01*
X86105000Y-60130000D01*
X86105000Y-58730000D01*
X85905000Y-58730000D01*
G36*
X85255000Y-58730000D02*
X85255000Y-60130000D01*
X85455000Y-60130000D01*
X85455000Y-58730000D01*
X85255000Y-58730000D01*
G37*
X85255000Y-58730000D02*
X85255000Y-60130000D01*
X85455000Y-60130000D01*
X85455000Y-58730000D01*
X85255000Y-58730000D01*
G36*
X85255000Y-64330000D02*
X85255000Y-65730000D01*
X85455000Y-65730000D01*
X85455000Y-64330000D01*
X85255000Y-64330000D01*
G37*
X85255000Y-64330000D02*
X85255000Y-65730000D01*
X85455000Y-65730000D01*
X85455000Y-64330000D01*
X85255000Y-64330000D01*
G36*
X85905000Y-64330000D02*
X85905000Y-65730000D01*
X86105000Y-65730000D01*
X86105000Y-64330000D01*
X85905000Y-64330000D01*
G37*
X85905000Y-64330000D02*
X85905000Y-65730000D01*
X86105000Y-65730000D01*
X86105000Y-64330000D01*
X85905000Y-64330000D01*
G36*
X86555000Y-64330000D02*
X86555000Y-65730000D01*
X86755000Y-65730000D01*
X86755000Y-64330000D01*
X86555000Y-64330000D01*
G37*
X86555000Y-64330000D02*
X86555000Y-65730000D01*
X86755000Y-65730000D01*
X86755000Y-64330000D01*
X86555000Y-64330000D01*
G36*
X87205000Y-64330000D02*
X87205000Y-65730000D01*
X87405000Y-65730000D01*
X87405000Y-64330000D01*
X87205000Y-64330000D01*
G37*
X87205000Y-64330000D02*
X87205000Y-65730000D01*
X87405000Y-65730000D01*
X87405000Y-64330000D01*
X87205000Y-64330000D01*
G36*
X87855000Y-64330000D02*
X87855000Y-65730000D01*
X88055000Y-65730000D01*
X88055000Y-64330000D01*
X87855000Y-64330000D01*
G37*
X87855000Y-64330000D02*
X87855000Y-65730000D01*
X88055000Y-65730000D01*
X88055000Y-64330000D01*
X87855000Y-64330000D01*
G36*
X88505000Y-64330000D02*
X88505000Y-65730000D01*
X88705000Y-65730000D01*
X88705000Y-64330000D01*
X88505000Y-64330000D01*
G37*
X88505000Y-64330000D02*
X88505000Y-65730000D01*
X88705000Y-65730000D01*
X88705000Y-64330000D01*
X88505000Y-64330000D01*
G36*
X89155000Y-64330000D02*
X89155000Y-65730000D01*
X89355000Y-65730000D01*
X89355000Y-64330000D01*
X89155000Y-64330000D01*
G37*
X89155000Y-64330000D02*
X89155000Y-65730000D01*
X89355000Y-65730000D01*
X89355000Y-64330000D01*
X89155000Y-64330000D01*
G36*
X89805000Y-64330000D02*
X89805000Y-65730000D01*
X90005000Y-65730000D01*
X90005000Y-64330000D01*
X89805000Y-64330000D01*
G37*
X89805000Y-64330000D02*
X89805000Y-65730000D01*
X90005000Y-65730000D01*
X90005000Y-64330000D01*
X89805000Y-64330000D01*
G36*
X66627500Y-58730000D02*
X66627500Y-60130000D01*
X66827500Y-60130000D01*
X66827500Y-58730000D01*
X66627500Y-58730000D01*
G37*
X66627500Y-58730000D02*
X66627500Y-60130000D01*
X66827500Y-60130000D01*
X66827500Y-58730000D01*
X66627500Y-58730000D01*
G36*
X65977500Y-58730000D02*
X65977500Y-60130000D01*
X66177500Y-60130000D01*
X66177500Y-58730000D01*
X65977500Y-58730000D01*
G37*
X65977500Y-58730000D02*
X65977500Y-60130000D01*
X66177500Y-60130000D01*
X66177500Y-58730000D01*
X65977500Y-58730000D01*
G36*
X65327500Y-58730000D02*
X65327500Y-60130000D01*
X65527500Y-60130000D01*
X65527500Y-58730000D01*
X65327500Y-58730000D01*
G37*
X65327500Y-58730000D02*
X65327500Y-60130000D01*
X65527500Y-60130000D01*
X65527500Y-58730000D01*
X65327500Y-58730000D01*
G36*
X64677500Y-58730000D02*
X64677500Y-60130000D01*
X64877500Y-60130000D01*
X64877500Y-58730000D01*
X64677500Y-58730000D01*
G37*
X64677500Y-58730000D02*
X64677500Y-60130000D01*
X64877500Y-60130000D01*
X64877500Y-58730000D01*
X64677500Y-58730000D01*
G36*
X64027500Y-58730000D02*
X64027500Y-60130000D01*
X64227500Y-60130000D01*
X64227500Y-58730000D01*
X64027500Y-58730000D01*
G37*
X64027500Y-58730000D02*
X64027500Y-60130000D01*
X64227500Y-60130000D01*
X64227500Y-58730000D01*
X64027500Y-58730000D01*
G36*
X63377500Y-58730000D02*
X63377500Y-60130000D01*
X63577500Y-60130000D01*
X63577500Y-58730000D01*
X63377500Y-58730000D01*
G37*
X63377500Y-58730000D02*
X63377500Y-60130000D01*
X63577500Y-60130000D01*
X63577500Y-58730000D01*
X63377500Y-58730000D01*
G36*
X62727500Y-58730000D02*
X62727500Y-60130000D01*
X62927500Y-60130000D01*
X62927500Y-58730000D01*
X62727500Y-58730000D01*
G37*
X62727500Y-58730000D02*
X62727500Y-60130000D01*
X62927500Y-60130000D01*
X62927500Y-58730000D01*
X62727500Y-58730000D01*
G36*
X62077500Y-58730000D02*
X62077500Y-60130000D01*
X62277500Y-60130000D01*
X62277500Y-58730000D01*
X62077500Y-58730000D01*
G37*
X62077500Y-58730000D02*
X62077500Y-60130000D01*
X62277500Y-60130000D01*
X62277500Y-58730000D01*
X62077500Y-58730000D01*
G36*
X62077500Y-64330000D02*
X62077500Y-65730000D01*
X62277500Y-65730000D01*
X62277500Y-64330000D01*
X62077500Y-64330000D01*
G37*
X62077500Y-64330000D02*
X62077500Y-65730000D01*
X62277500Y-65730000D01*
X62277500Y-64330000D01*
X62077500Y-64330000D01*
G36*
X62727500Y-64330000D02*
X62727500Y-65730000D01*
X62927500Y-65730000D01*
X62927500Y-64330000D01*
X62727500Y-64330000D01*
G37*
X62727500Y-64330000D02*
X62727500Y-65730000D01*
X62927500Y-65730000D01*
X62927500Y-64330000D01*
X62727500Y-64330000D01*
G36*
X63377500Y-64330000D02*
X63377500Y-65730000D01*
X63577500Y-65730000D01*
X63577500Y-64330000D01*
X63377500Y-64330000D01*
G37*
X63377500Y-64330000D02*
X63377500Y-65730000D01*
X63577500Y-65730000D01*
X63577500Y-64330000D01*
X63377500Y-64330000D01*
G36*
X64027500Y-64330000D02*
X64027500Y-65730000D01*
X64227500Y-65730000D01*
X64227500Y-64330000D01*
X64027500Y-64330000D01*
G37*
X64027500Y-64330000D02*
X64027500Y-65730000D01*
X64227500Y-65730000D01*
X64227500Y-64330000D01*
X64027500Y-64330000D01*
G36*
X64677500Y-64330000D02*
X64677500Y-65730000D01*
X64877500Y-65730000D01*
X64877500Y-64330000D01*
X64677500Y-64330000D01*
G37*
X64677500Y-64330000D02*
X64677500Y-65730000D01*
X64877500Y-65730000D01*
X64877500Y-64330000D01*
X64677500Y-64330000D01*
G36*
X65327500Y-64330000D02*
X65327500Y-65730000D01*
X65527500Y-65730000D01*
X65527500Y-64330000D01*
X65327500Y-64330000D01*
G37*
X65327500Y-64330000D02*
X65327500Y-65730000D01*
X65527500Y-65730000D01*
X65527500Y-64330000D01*
X65327500Y-64330000D01*
G36*
X65977500Y-64330000D02*
X65977500Y-65730000D01*
X66177500Y-65730000D01*
X66177500Y-64330000D01*
X65977500Y-64330000D01*
G37*
X65977500Y-64330000D02*
X65977500Y-65730000D01*
X66177500Y-65730000D01*
X66177500Y-64330000D01*
X65977500Y-64330000D01*
G36*
X66627500Y-64330000D02*
X66627500Y-65730000D01*
X66827500Y-65730000D01*
X66827500Y-64330000D01*
X66627500Y-64330000D01*
G37*
X66627500Y-64330000D02*
X66627500Y-65730000D01*
X66827500Y-65730000D01*
X66827500Y-64330000D01*
X66627500Y-64330000D01*
G36*
X43450000Y-58730000D02*
X43450000Y-60130000D01*
X43650000Y-60130000D01*
X43650000Y-58730000D01*
X43450000Y-58730000D01*
G37*
X43450000Y-58730000D02*
X43450000Y-60130000D01*
X43650000Y-60130000D01*
X43650000Y-58730000D01*
X43450000Y-58730000D01*
G36*
X42800000Y-58730000D02*
X42800000Y-60130000D01*
X43000000Y-60130000D01*
X43000000Y-58730000D01*
X42800000Y-58730000D01*
G37*
X42800000Y-58730000D02*
X42800000Y-60130000D01*
X43000000Y-60130000D01*
X43000000Y-58730000D01*
X42800000Y-58730000D01*
G36*
X42150000Y-58730000D02*
X42150000Y-60130000D01*
X42350000Y-60130000D01*
X42350000Y-58730000D01*
X42150000Y-58730000D01*
G37*
X42150000Y-58730000D02*
X42150000Y-60130000D01*
X42350000Y-60130000D01*
X42350000Y-58730000D01*
X42150000Y-58730000D01*
G36*
X41500000Y-58730000D02*
X41500000Y-60130000D01*
X41700000Y-60130000D01*
X41700000Y-58730000D01*
X41500000Y-58730000D01*
G37*
X41500000Y-58730000D02*
X41500000Y-60130000D01*
X41700000Y-60130000D01*
X41700000Y-58730000D01*
X41500000Y-58730000D01*
G36*
X40850000Y-58730000D02*
X40850000Y-60130000D01*
X41050000Y-60130000D01*
X41050000Y-58730000D01*
X40850000Y-58730000D01*
G37*
X40850000Y-58730000D02*
X40850000Y-60130000D01*
X41050000Y-60130000D01*
X41050000Y-58730000D01*
X40850000Y-58730000D01*
G36*
X40200000Y-58730000D02*
X40200000Y-60130000D01*
X40400000Y-60130000D01*
X40400000Y-58730000D01*
X40200000Y-58730000D01*
G37*
X40200000Y-58730000D02*
X40200000Y-60130000D01*
X40400000Y-60130000D01*
X40400000Y-58730000D01*
X40200000Y-58730000D01*
G36*
X39550000Y-58730000D02*
X39550000Y-60130000D01*
X39750000Y-60130000D01*
X39750000Y-58730000D01*
X39550000Y-58730000D01*
G37*
X39550000Y-58730000D02*
X39550000Y-60130000D01*
X39750000Y-60130000D01*
X39750000Y-58730000D01*
X39550000Y-58730000D01*
G36*
X38900000Y-58730000D02*
X38900000Y-60130000D01*
X39100000Y-60130000D01*
X39100000Y-58730000D01*
X38900000Y-58730000D01*
G37*
X38900000Y-58730000D02*
X38900000Y-60130000D01*
X39100000Y-60130000D01*
X39100000Y-58730000D01*
X38900000Y-58730000D01*
G36*
X38900000Y-64330000D02*
X38900000Y-65730000D01*
X39100000Y-65730000D01*
X39100000Y-64330000D01*
X38900000Y-64330000D01*
G37*
X38900000Y-64330000D02*
X38900000Y-65730000D01*
X39100000Y-65730000D01*
X39100000Y-64330000D01*
X38900000Y-64330000D01*
G36*
X39550000Y-64330000D02*
X39550000Y-65730000D01*
X39750000Y-65730000D01*
X39750000Y-64330000D01*
X39550000Y-64330000D01*
G37*
X39550000Y-64330000D02*
X39550000Y-65730000D01*
X39750000Y-65730000D01*
X39750000Y-64330000D01*
X39550000Y-64330000D01*
G36*
X40200000Y-64330000D02*
X40200000Y-65730000D01*
X40400000Y-65730000D01*
X40400000Y-64330000D01*
X40200000Y-64330000D01*
G37*
X40200000Y-64330000D02*
X40200000Y-65730000D01*
X40400000Y-65730000D01*
X40400000Y-64330000D01*
X40200000Y-64330000D01*
G36*
X40850000Y-64330000D02*
X40850000Y-65730000D01*
X41050000Y-65730000D01*
X41050000Y-64330000D01*
X40850000Y-64330000D01*
G37*
X40850000Y-64330000D02*
X40850000Y-65730000D01*
X41050000Y-65730000D01*
X41050000Y-64330000D01*
X40850000Y-64330000D01*
G36*
X41500000Y-64330000D02*
X41500000Y-65730000D01*
X41700000Y-65730000D01*
X41700000Y-64330000D01*
X41500000Y-64330000D01*
G37*
X41500000Y-64330000D02*
X41500000Y-65730000D01*
X41700000Y-65730000D01*
X41700000Y-64330000D01*
X41500000Y-64330000D01*
G36*
X42150000Y-64330000D02*
X42150000Y-65730000D01*
X42350000Y-65730000D01*
X42350000Y-64330000D01*
X42150000Y-64330000D01*
G37*
X42150000Y-64330000D02*
X42150000Y-65730000D01*
X42350000Y-65730000D01*
X42350000Y-64330000D01*
X42150000Y-64330000D01*
G36*
X42800000Y-64330000D02*
X42800000Y-65730000D01*
X43000000Y-65730000D01*
X43000000Y-64330000D01*
X42800000Y-64330000D01*
G37*
X42800000Y-64330000D02*
X42800000Y-65730000D01*
X43000000Y-65730000D01*
X43000000Y-64330000D01*
X42800000Y-64330000D01*
G36*
X43450000Y-64330000D02*
X43450000Y-65730000D01*
X43650000Y-65730000D01*
X43650000Y-64330000D01*
X43450000Y-64330000D01*
G37*
X43450000Y-64330000D02*
X43450000Y-65730000D01*
X43650000Y-65730000D01*
X43650000Y-64330000D01*
X43450000Y-64330000D01*
G36*
X33925000Y-58730000D02*
X33925000Y-60130000D01*
X34125000Y-60130000D01*
X34125000Y-58730000D01*
X33925000Y-58730000D01*
G37*
X33925000Y-58730000D02*
X33925000Y-60130000D01*
X34125000Y-60130000D01*
X34125000Y-58730000D01*
X33925000Y-58730000D01*
G36*
X33275000Y-58730000D02*
X33275000Y-60130000D01*
X33475000Y-60130000D01*
X33475000Y-58730000D01*
X33275000Y-58730000D01*
G37*
X33275000Y-58730000D02*
X33275000Y-60130000D01*
X33475000Y-60130000D01*
X33475000Y-58730000D01*
X33275000Y-58730000D01*
G36*
X32625000Y-58730000D02*
X32625000Y-60130000D01*
X32825000Y-60130000D01*
X32825000Y-58730000D01*
X32625000Y-58730000D01*
G37*
X32625000Y-58730000D02*
X32625000Y-60130000D01*
X32825000Y-60130000D01*
X32825000Y-58730000D01*
X32625000Y-58730000D01*
G36*
X31975000Y-58730000D02*
X31975000Y-60130000D01*
X32175000Y-60130000D01*
X32175000Y-58730000D01*
X31975000Y-58730000D01*
G37*
X31975000Y-58730000D02*
X31975000Y-60130000D01*
X32175000Y-60130000D01*
X32175000Y-58730000D01*
X31975000Y-58730000D01*
G36*
X31325000Y-58730000D02*
X31325000Y-60130000D01*
X31525000Y-60130000D01*
X31525000Y-58730000D01*
X31325000Y-58730000D01*
G37*
X31325000Y-58730000D02*
X31325000Y-60130000D01*
X31525000Y-60130000D01*
X31525000Y-58730000D01*
X31325000Y-58730000D01*
G36*
X30675000Y-58730000D02*
X30675000Y-60130000D01*
X30875000Y-60130000D01*
X30875000Y-58730000D01*
X30675000Y-58730000D01*
G37*
X30675000Y-58730000D02*
X30675000Y-60130000D01*
X30875000Y-60130000D01*
X30875000Y-58730000D01*
X30675000Y-58730000D01*
G36*
X30025000Y-58730000D02*
X30025000Y-60130000D01*
X30225000Y-60130000D01*
X30225000Y-58730000D01*
X30025000Y-58730000D01*
G37*
X30025000Y-58730000D02*
X30025000Y-60130000D01*
X30225000Y-60130000D01*
X30225000Y-58730000D01*
X30025000Y-58730000D01*
G36*
X29375000Y-58730000D02*
X29375000Y-60130000D01*
X29575000Y-60130000D01*
X29575000Y-58730000D01*
X29375000Y-58730000D01*
G37*
X29375000Y-58730000D02*
X29375000Y-60130000D01*
X29575000Y-60130000D01*
X29575000Y-58730000D01*
X29375000Y-58730000D01*
G36*
X29375000Y-64330000D02*
X29375000Y-65730000D01*
X29575000Y-65730000D01*
X29575000Y-64330000D01*
X29375000Y-64330000D01*
G37*
X29375000Y-64330000D02*
X29375000Y-65730000D01*
X29575000Y-65730000D01*
X29575000Y-64330000D01*
X29375000Y-64330000D01*
G36*
X30025000Y-64330000D02*
X30025000Y-65730000D01*
X30225000Y-65730000D01*
X30225000Y-64330000D01*
X30025000Y-64330000D01*
G37*
X30025000Y-64330000D02*
X30025000Y-65730000D01*
X30225000Y-65730000D01*
X30225000Y-64330000D01*
X30025000Y-64330000D01*
G36*
X30675000Y-64330000D02*
X30675000Y-65730000D01*
X30875000Y-65730000D01*
X30875000Y-64330000D01*
X30675000Y-64330000D01*
G37*
X30675000Y-64330000D02*
X30675000Y-65730000D01*
X30875000Y-65730000D01*
X30875000Y-64330000D01*
X30675000Y-64330000D01*
G36*
X31325000Y-64330000D02*
X31325000Y-65730000D01*
X31525000Y-65730000D01*
X31525000Y-64330000D01*
X31325000Y-64330000D01*
G37*
X31325000Y-64330000D02*
X31325000Y-65730000D01*
X31525000Y-65730000D01*
X31525000Y-64330000D01*
X31325000Y-64330000D01*
G36*
X31975000Y-64330000D02*
X31975000Y-65730000D01*
X32175000Y-65730000D01*
X32175000Y-64330000D01*
X31975000Y-64330000D01*
G37*
X31975000Y-64330000D02*
X31975000Y-65730000D01*
X32175000Y-65730000D01*
X32175000Y-64330000D01*
X31975000Y-64330000D01*
G36*
X32625000Y-64330000D02*
X32625000Y-65730000D01*
X32825000Y-65730000D01*
X32825000Y-64330000D01*
X32625000Y-64330000D01*
G37*
X32625000Y-64330000D02*
X32625000Y-65730000D01*
X32825000Y-65730000D01*
X32825000Y-64330000D01*
X32625000Y-64330000D01*
G36*
X33275000Y-64330000D02*
X33275000Y-65730000D01*
X33475000Y-65730000D01*
X33475000Y-64330000D01*
X33275000Y-64330000D01*
G37*
X33275000Y-64330000D02*
X33275000Y-65730000D01*
X33475000Y-65730000D01*
X33475000Y-64330000D01*
X33275000Y-64330000D01*
G36*
X33925000Y-64330000D02*
X33925000Y-65730000D01*
X34125000Y-65730000D01*
X34125000Y-64330000D01*
X33925000Y-64330000D01*
G37*
X33925000Y-64330000D02*
X33925000Y-65730000D01*
X34125000Y-65730000D01*
X34125000Y-64330000D01*
X33925000Y-64330000D01*
D14*
G36*
X73505000Y-121321250D02*
X73505000Y-120361250D01*
X74045000Y-120361250D01*
X74045000Y-121321250D01*
X73505000Y-121321250D01*
G37*
X73505000Y-121321250D02*
X73505000Y-120361250D01*
X74045000Y-120361250D01*
X74045000Y-121321250D01*
X73505000Y-121321250D01*
G36*
X71700000Y-124721250D02*
X71700000Y-123121250D01*
X72500000Y-123121250D01*
X72500000Y-124721250D01*
X71700000Y-124721250D01*
G37*
X71700000Y-124721250D02*
X71700000Y-123121250D01*
X72500000Y-123121250D01*
X72500000Y-124721250D01*
X71700000Y-124721250D01*
G36*
X78895000Y-121321250D02*
X78895000Y-120361250D01*
X78355000Y-120361250D01*
X78355000Y-121321250D01*
X78895000Y-121321250D01*
G37*
X78895000Y-121321250D02*
X78895000Y-120361250D01*
X78355000Y-120361250D01*
X78355000Y-121321250D01*
X78895000Y-121321250D01*
G36*
X80700000Y-124721250D02*
X80700000Y-123121250D01*
X79900000Y-123121250D01*
X79900000Y-124721250D01*
X80700000Y-124721250D01*
G37*
X80700000Y-124721250D02*
X80700000Y-123121250D01*
X79900000Y-123121250D01*
X79900000Y-124721250D01*
X80700000Y-124721250D01*
D15*
G36*
X75050000Y-122071250D02*
X75050000Y-120421250D01*
X74750000Y-120421250D01*
X74750000Y-122071250D01*
X75050000Y-122071250D01*
G37*
X75050000Y-122071250D02*
X75050000Y-120421250D01*
X74750000Y-120421250D01*
X74750000Y-122071250D01*
X75050000Y-122071250D01*
G36*
X75700000Y-122071250D02*
X75700000Y-120421250D01*
X75400000Y-120421250D01*
X75400000Y-122071250D01*
X75700000Y-122071250D01*
G37*
X75700000Y-122071250D02*
X75700000Y-120421250D01*
X75400000Y-120421250D01*
X75400000Y-122071250D01*
X75700000Y-122071250D01*
G36*
X76050000Y-122071250D02*
X76050000Y-120421250D01*
X76350000Y-120421250D01*
X76350000Y-122071250D01*
X76050000Y-122071250D01*
G37*
X76050000Y-122071250D02*
X76050000Y-120421250D01*
X76350000Y-120421250D01*
X76350000Y-122071250D01*
X76050000Y-122071250D01*
G36*
X76700000Y-122071250D02*
X76700000Y-120421250D01*
X77000000Y-120421250D01*
X77000000Y-122071250D01*
X76700000Y-122071250D01*
G37*
X76700000Y-122071250D02*
X76700000Y-120421250D01*
X77000000Y-120421250D01*
X77000000Y-122071250D01*
X76700000Y-122071250D01*
G36*
X77350000Y-122071250D02*
X77350000Y-120421250D01*
X77650000Y-120421250D01*
X77650000Y-122071250D01*
X77350000Y-122071250D01*
G37*
X77350000Y-122071250D02*
X77350000Y-120421250D01*
X77650000Y-120421250D01*
X77650000Y-122071250D01*
X77350000Y-122071250D01*
D12*
G36*
X35521900Y-70205600D02*
X36233100Y-70205600D01*
X36233100Y-70764400D01*
X35521900Y-70764400D01*
X35521900Y-70205600D01*
G37*
X35521900Y-70205600D02*
X36233100Y-70205600D01*
X36233100Y-70764400D01*
X35521900Y-70764400D01*
X35521900Y-70205600D01*
G36*
X35521900Y-72034400D02*
X36233100Y-72034400D01*
X36233100Y-71475600D01*
X35521900Y-71475600D01*
X35521900Y-72034400D01*
G37*
X35521900Y-72034400D02*
X36233100Y-72034400D01*
X36233100Y-71475600D01*
X35521900Y-71475600D01*
X35521900Y-72034400D01*
G36*
X45046900Y-70205600D02*
X45758100Y-70205600D01*
X45758100Y-70764400D01*
X45046900Y-70764400D01*
X45046900Y-70205600D01*
G37*
X45046900Y-70205600D02*
X45758100Y-70205600D01*
X45758100Y-70764400D01*
X45046900Y-70764400D01*
X45046900Y-70205600D01*
G36*
X45046900Y-72034400D02*
X45758100Y-72034400D01*
X45758100Y-71475600D01*
X45046900Y-71475600D01*
X45046900Y-72034400D01*
G37*
X45046900Y-72034400D02*
X45758100Y-72034400D01*
X45758100Y-71475600D01*
X45046900Y-71475600D01*
X45046900Y-72034400D01*
G36*
X58699400Y-70205600D02*
X59410600Y-70205600D01*
X59410600Y-70764400D01*
X58699400Y-70764400D01*
X58699400Y-70205600D01*
G37*
X58699400Y-70205600D02*
X59410600Y-70205600D01*
X59410600Y-70764400D01*
X58699400Y-70764400D01*
X58699400Y-70205600D01*
G36*
X58699400Y-72034400D02*
X59410600Y-72034400D01*
X59410600Y-71475600D01*
X58699400Y-71475600D01*
X58699400Y-72034400D01*
G37*
X58699400Y-72034400D02*
X59410600Y-72034400D01*
X59410600Y-71475600D01*
X58699400Y-71475600D01*
X58699400Y-72034400D01*
G36*
X68224400Y-70205600D02*
X68935600Y-70205600D01*
X68935600Y-70764400D01*
X68224400Y-70764400D01*
X68224400Y-70205600D01*
G37*
X68224400Y-70205600D02*
X68935600Y-70205600D01*
X68935600Y-70764400D01*
X68224400Y-70764400D01*
X68224400Y-70205600D01*
G36*
X68224400Y-72034400D02*
X68935600Y-72034400D01*
X68935600Y-71475600D01*
X68224400Y-71475600D01*
X68224400Y-72034400D01*
G37*
X68224400Y-72034400D02*
X68935600Y-72034400D01*
X68935600Y-71475600D01*
X68224400Y-71475600D01*
X68224400Y-72034400D01*
G36*
X91401900Y-70205600D02*
X92113100Y-70205600D01*
X92113100Y-70764400D01*
X91401900Y-70764400D01*
X91401900Y-70205600D01*
G37*
X91401900Y-70205600D02*
X92113100Y-70205600D01*
X92113100Y-70764400D01*
X91401900Y-70764400D01*
X91401900Y-70205600D01*
G36*
X91401900Y-72034400D02*
X92113100Y-72034400D01*
X92113100Y-71475600D01*
X91401900Y-71475600D01*
X91401900Y-72034400D01*
G37*
X91401900Y-72034400D02*
X92113100Y-72034400D01*
X92113100Y-71475600D01*
X91401900Y-71475600D01*
X91401900Y-72034400D01*
G36*
X100926900Y-70205600D02*
X101638100Y-70205600D01*
X101638100Y-70764400D01*
X100926900Y-70764400D01*
X100926900Y-70205600D01*
G37*
X100926900Y-70205600D02*
X101638100Y-70205600D01*
X101638100Y-70764400D01*
X100926900Y-70764400D01*
X100926900Y-70205600D01*
G36*
X100926900Y-72034400D02*
X101638100Y-72034400D01*
X101638100Y-71475600D01*
X100926900Y-71475600D01*
X100926900Y-72034400D01*
G37*
X100926900Y-72034400D02*
X101638100Y-72034400D01*
X101638100Y-71475600D01*
X100926900Y-71475600D01*
X100926900Y-72034400D01*
G36*
X114579400Y-70205600D02*
X115290600Y-70205600D01*
X115290600Y-70764400D01*
X114579400Y-70764400D01*
X114579400Y-70205600D01*
G37*
X114579400Y-70205600D02*
X115290600Y-70205600D01*
X115290600Y-70764400D01*
X114579400Y-70764400D01*
X114579400Y-70205600D01*
G36*
X114579400Y-72034400D02*
X115290600Y-72034400D01*
X115290600Y-71475600D01*
X114579400Y-71475600D01*
X114579400Y-72034400D01*
G37*
X114579400Y-72034400D02*
X115290600Y-72034400D01*
X115290600Y-71475600D01*
X114579400Y-71475600D01*
X114579400Y-72034400D01*
G36*
X124104400Y-70205600D02*
X124815600Y-70205600D01*
X124815600Y-70764400D01*
X124104400Y-70764400D01*
X124104400Y-70205600D01*
G37*
X124104400Y-70205600D02*
X124815600Y-70205600D01*
X124815600Y-70764400D01*
X124104400Y-70764400D01*
X124104400Y-70205600D01*
G36*
X124104400Y-72034400D02*
X124815600Y-72034400D01*
X124815600Y-71475600D01*
X124104400Y-71475600D01*
X124104400Y-72034400D01*
G37*
X124104400Y-72034400D02*
X124815600Y-72034400D01*
X124815600Y-71475600D01*
X124104400Y-71475600D01*
X124104400Y-72034400D01*
G36*
X28295600Y-81876900D02*
X27584400Y-81876900D01*
X27584400Y-81318100D01*
X28295600Y-81318100D01*
X28295600Y-81876900D01*
G37*
X28295600Y-81876900D02*
X27584400Y-81876900D01*
X27584400Y-81318100D01*
X28295600Y-81318100D01*
X28295600Y-81876900D01*
G36*
X28295600Y-80048100D02*
X27584400Y-80048100D01*
X27584400Y-80606900D01*
X28295600Y-80606900D01*
X28295600Y-80048100D01*
G37*
X28295600Y-80048100D02*
X27584400Y-80048100D01*
X27584400Y-80606900D01*
X28295600Y-80606900D01*
X28295600Y-80048100D01*
G36*
X37820600Y-81876900D02*
X37109400Y-81876900D01*
X37109400Y-81318100D01*
X37820600Y-81318100D01*
X37820600Y-81876900D01*
G37*
X37820600Y-81876900D02*
X37109400Y-81876900D01*
X37109400Y-81318100D01*
X37820600Y-81318100D01*
X37820600Y-81876900D01*
G36*
X37820600Y-80048100D02*
X37109400Y-80048100D01*
X37109400Y-80606900D01*
X37820600Y-80606900D01*
X37820600Y-80048100D01*
G37*
X37820600Y-80048100D02*
X37109400Y-80048100D01*
X37109400Y-80606900D01*
X37820600Y-80606900D01*
X37820600Y-80048100D01*
G36*
X51473100Y-81876900D02*
X50761900Y-81876900D01*
X50761900Y-81318100D01*
X51473100Y-81318100D01*
X51473100Y-81876900D01*
G37*
X51473100Y-81876900D02*
X50761900Y-81876900D01*
X50761900Y-81318100D01*
X51473100Y-81318100D01*
X51473100Y-81876900D01*
G36*
X51473100Y-80048100D02*
X50761900Y-80048100D01*
X50761900Y-80606900D01*
X51473100Y-80606900D01*
X51473100Y-80048100D01*
G37*
X51473100Y-80048100D02*
X50761900Y-80048100D01*
X50761900Y-80606900D01*
X51473100Y-80606900D01*
X51473100Y-80048100D01*
G36*
X60998100Y-81876900D02*
X60286900Y-81876900D01*
X60286900Y-81318100D01*
X60998100Y-81318100D01*
X60998100Y-81876900D01*
G37*
X60998100Y-81876900D02*
X60286900Y-81876900D01*
X60286900Y-81318100D01*
X60998100Y-81318100D01*
X60998100Y-81876900D01*
G36*
X60998100Y-80048100D02*
X60286900Y-80048100D01*
X60286900Y-80606900D01*
X60998100Y-80606900D01*
X60998100Y-80048100D01*
G37*
X60998100Y-80048100D02*
X60286900Y-80048100D01*
X60286900Y-80606900D01*
X60998100Y-80606900D01*
X60998100Y-80048100D01*
G36*
X84175600Y-81876900D02*
X83464400Y-81876900D01*
X83464400Y-81318100D01*
X84175600Y-81318100D01*
X84175600Y-81876900D01*
G37*
X84175600Y-81876900D02*
X83464400Y-81876900D01*
X83464400Y-81318100D01*
X84175600Y-81318100D01*
X84175600Y-81876900D01*
G36*
X84175600Y-80048100D02*
X83464400Y-80048100D01*
X83464400Y-80606900D01*
X84175600Y-80606900D01*
X84175600Y-80048100D01*
G37*
X84175600Y-80048100D02*
X83464400Y-80048100D01*
X83464400Y-80606900D01*
X84175600Y-80606900D01*
X84175600Y-80048100D01*
G36*
X93700600Y-81876900D02*
X92989400Y-81876900D01*
X92989400Y-81318100D01*
X93700600Y-81318100D01*
X93700600Y-81876900D01*
G37*
X93700600Y-81876900D02*
X92989400Y-81876900D01*
X92989400Y-81318100D01*
X93700600Y-81318100D01*
X93700600Y-81876900D01*
G36*
X93700600Y-80048100D02*
X92989400Y-80048100D01*
X92989400Y-80606900D01*
X93700600Y-80606900D01*
X93700600Y-80048100D01*
G37*
X93700600Y-80048100D02*
X92989400Y-80048100D01*
X92989400Y-80606900D01*
X93700600Y-80606900D01*
X93700600Y-80048100D01*
G36*
X107353100Y-81876900D02*
X106641900Y-81876900D01*
X106641900Y-81318100D01*
X107353100Y-81318100D01*
X107353100Y-81876900D01*
G37*
X107353100Y-81876900D02*
X106641900Y-81876900D01*
X106641900Y-81318100D01*
X107353100Y-81318100D01*
X107353100Y-81876900D01*
G36*
X107353100Y-80048100D02*
X106641900Y-80048100D01*
X106641900Y-80606900D01*
X107353100Y-80606900D01*
X107353100Y-80048100D01*
G37*
X107353100Y-80048100D02*
X106641900Y-80048100D01*
X106641900Y-80606900D01*
X107353100Y-80606900D01*
X107353100Y-80048100D01*
G36*
X116878100Y-81876900D02*
X116166900Y-81876900D01*
X116166900Y-81318100D01*
X116878100Y-81318100D01*
X116878100Y-81876900D01*
G37*
X116878100Y-81876900D02*
X116166900Y-81876900D01*
X116166900Y-81318100D01*
X116878100Y-81318100D01*
X116878100Y-81876900D01*
G36*
X116878100Y-80048100D02*
X116166900Y-80048100D01*
X116166900Y-80606900D01*
X116878100Y-80606900D01*
X116878100Y-80048100D01*
G37*
X116878100Y-80048100D02*
X116166900Y-80048100D01*
X116166900Y-80606900D01*
X116878100Y-80606900D01*
X116878100Y-80048100D01*
G36*
X49174400Y-70205600D02*
X49885600Y-70205600D01*
X49885600Y-70764400D01*
X49174400Y-70764400D01*
X49174400Y-70205600D01*
G37*
X49174400Y-70205600D02*
X49885600Y-70205600D01*
X49885600Y-70764400D01*
X49174400Y-70764400D01*
X49174400Y-70205600D01*
G36*
X49174400Y-72034400D02*
X49885600Y-72034400D01*
X49885600Y-71475600D01*
X49174400Y-71475600D01*
X49174400Y-72034400D01*
G37*
X49174400Y-72034400D02*
X49885600Y-72034400D01*
X49885600Y-71475600D01*
X49174400Y-71475600D01*
X49174400Y-72034400D01*
G36*
X105054400Y-70205600D02*
X105765600Y-70205600D01*
X105765600Y-70764400D01*
X105054400Y-70764400D01*
X105054400Y-70205600D01*
G37*
X105054400Y-70205600D02*
X105765600Y-70205600D01*
X105765600Y-70764400D01*
X105054400Y-70764400D01*
X105054400Y-70205600D01*
G36*
X105054400Y-72034400D02*
X105765600Y-72034400D01*
X105765600Y-71475600D01*
X105054400Y-71475600D01*
X105054400Y-72034400D01*
G37*
X105054400Y-72034400D02*
X105765600Y-72034400D01*
X105765600Y-71475600D01*
X105054400Y-71475600D01*
X105054400Y-72034400D01*
G36*
X47345600Y-81876900D02*
X46634400Y-81876900D01*
X46634400Y-81318100D01*
X47345600Y-81318100D01*
X47345600Y-81876900D01*
G37*
X47345600Y-81876900D02*
X46634400Y-81876900D01*
X46634400Y-81318100D01*
X47345600Y-81318100D01*
X47345600Y-81876900D01*
G36*
X47345600Y-80048100D02*
X46634400Y-80048100D01*
X46634400Y-80606900D01*
X47345600Y-80606900D01*
X47345600Y-80048100D01*
G37*
X47345600Y-80048100D02*
X46634400Y-80048100D01*
X46634400Y-80606900D01*
X47345600Y-80606900D01*
X47345600Y-80048100D01*
G36*
X103225600Y-81876900D02*
X102514400Y-81876900D01*
X102514400Y-81318100D01*
X103225600Y-81318100D01*
X103225600Y-81876900D01*
G37*
X103225600Y-81876900D02*
X102514400Y-81876900D01*
X102514400Y-81318100D01*
X103225600Y-81318100D01*
X103225600Y-81876900D01*
G36*
X103225600Y-80048100D02*
X102514400Y-80048100D01*
X102514400Y-80606900D01*
X103225600Y-80606900D01*
X103225600Y-80048100D01*
G37*
X103225600Y-80048100D02*
X102514400Y-80048100D01*
X102514400Y-80606900D01*
X103225600Y-80606900D01*
X103225600Y-80048100D01*
D16*
G36*
X75184000Y-101663500D02*
X75184000Y-103441500D01*
X73914000Y-103441500D01*
X73914000Y-101663500D01*
X75184000Y-101663500D01*
G37*
X75184000Y-101663500D02*
X75184000Y-103441500D01*
X73914000Y-103441500D01*
X73914000Y-101663500D01*
X75184000Y-101663500D01*
G36*
X70866000Y-101663500D02*
X70866000Y-103441500D01*
X72136000Y-103441500D01*
X72136000Y-101663500D01*
X70866000Y-101663500D01*
G37*
X70866000Y-101663500D02*
X70866000Y-103441500D01*
X72136000Y-103441500D01*
X72136000Y-101663500D01*
X70866000Y-101663500D01*
D12*
G36*
X75844400Y-97193100D02*
X76555600Y-97193100D01*
X76555600Y-97751900D01*
X75844400Y-97751900D01*
X75844400Y-97193100D01*
G37*
X75844400Y-97193100D02*
X76555600Y-97193100D01*
X76555600Y-97751900D01*
X75844400Y-97751900D01*
X75844400Y-97193100D01*
G36*
X75844400Y-99021900D02*
X76555600Y-99021900D01*
X76555600Y-98463100D01*
X75844400Y-98463100D01*
X75844400Y-99021900D01*
G37*
X75844400Y-99021900D02*
X76555600Y-99021900D01*
X76555600Y-98463100D01*
X75844400Y-98463100D01*
X75844400Y-99021900D01*
G36*
X82194400Y-96558100D02*
X82905600Y-96558100D01*
X82905600Y-97116900D01*
X82194400Y-97116900D01*
X82194400Y-96558100D01*
G37*
X82194400Y-96558100D02*
X82905600Y-96558100D01*
X82905600Y-97116900D01*
X82194400Y-97116900D01*
X82194400Y-96558100D01*
G36*
X82194400Y-98386900D02*
X82905600Y-98386900D01*
X82905600Y-97828100D01*
X82194400Y-97828100D01*
X82194400Y-98386900D01*
G37*
X82194400Y-98386900D02*
X82905600Y-98386900D01*
X82905600Y-97828100D01*
X82194400Y-97828100D01*
X82194400Y-98386900D01*
G36*
X69811900Y-96558100D02*
X70523100Y-96558100D01*
X70523100Y-97116900D01*
X69811900Y-97116900D01*
X69811900Y-96558100D01*
G37*
X69811900Y-96558100D02*
X70523100Y-96558100D01*
X70523100Y-97116900D01*
X69811900Y-97116900D01*
X69811900Y-96558100D01*
G36*
X69811900Y-98386900D02*
X70523100Y-98386900D01*
X70523100Y-97828100D01*
X69811900Y-97828100D01*
X69811900Y-98386900D01*
G37*
X69811900Y-98386900D02*
X70523100Y-98386900D01*
X70523100Y-97828100D01*
X69811900Y-97828100D01*
X69811900Y-98386900D01*
G36*
X36156900Y-53378100D02*
X36868100Y-53378100D01*
X36868100Y-53936900D01*
X36156900Y-53936900D01*
X36156900Y-53378100D01*
G37*
X36156900Y-53378100D02*
X36868100Y-53378100D01*
X36868100Y-53936900D01*
X36156900Y-53936900D01*
X36156900Y-53378100D01*
G36*
X36156900Y-55206900D02*
X36868100Y-55206900D01*
X36868100Y-54648100D01*
X36156900Y-54648100D01*
X36156900Y-55206900D01*
G37*
X36156900Y-55206900D02*
X36868100Y-55206900D01*
X36868100Y-54648100D01*
X36156900Y-54648100D01*
X36156900Y-55206900D01*
G36*
X59334400Y-53378100D02*
X60045600Y-53378100D01*
X60045600Y-53936900D01*
X59334400Y-53936900D01*
X59334400Y-53378100D01*
G37*
X59334400Y-53378100D02*
X60045600Y-53378100D01*
X60045600Y-53936900D01*
X59334400Y-53936900D01*
X59334400Y-53378100D01*
G36*
X59334400Y-55206900D02*
X60045600Y-55206900D01*
X60045600Y-54648100D01*
X59334400Y-54648100D01*
X59334400Y-55206900D01*
G37*
X59334400Y-55206900D02*
X60045600Y-55206900D01*
X60045600Y-54648100D01*
X59334400Y-54648100D01*
X59334400Y-55206900D01*
G36*
X92036900Y-53378100D02*
X92748100Y-53378100D01*
X92748100Y-53936900D01*
X92036900Y-53936900D01*
X92036900Y-53378100D01*
G37*
X92036900Y-53378100D02*
X92748100Y-53378100D01*
X92748100Y-53936900D01*
X92036900Y-53936900D01*
X92036900Y-53378100D01*
G36*
X92036900Y-55206900D02*
X92748100Y-55206900D01*
X92748100Y-54648100D01*
X92036900Y-54648100D01*
X92036900Y-55206900D01*
G37*
X92036900Y-55206900D02*
X92748100Y-55206900D01*
X92748100Y-54648100D01*
X92036900Y-54648100D01*
X92036900Y-55206900D01*
G36*
X115214400Y-53378100D02*
X115925600Y-53378100D01*
X115925600Y-53936900D01*
X115214400Y-53936900D01*
X115214400Y-53378100D01*
G37*
X115214400Y-53378100D02*
X115925600Y-53378100D01*
X115925600Y-53936900D01*
X115214400Y-53936900D01*
X115214400Y-53378100D01*
G36*
X115214400Y-55206900D02*
X115925600Y-55206900D01*
X115925600Y-54648100D01*
X115214400Y-54648100D01*
X115214400Y-55206900D01*
G37*
X115214400Y-55206900D02*
X115925600Y-55206900D01*
X115925600Y-54648100D01*
X115214400Y-54648100D01*
X115214400Y-55206900D01*
G36*
X37185600Y-98704400D02*
X36474400Y-98704400D01*
X36474400Y-98145600D01*
X37185600Y-98145600D01*
X37185600Y-98704400D01*
G37*
X37185600Y-98704400D02*
X36474400Y-98704400D01*
X36474400Y-98145600D01*
X37185600Y-98145600D01*
X37185600Y-98704400D01*
G36*
X37185600Y-96875600D02*
X36474400Y-96875600D01*
X36474400Y-97434400D01*
X37185600Y-97434400D01*
X37185600Y-96875600D01*
G37*
X37185600Y-96875600D02*
X36474400Y-96875600D01*
X36474400Y-97434400D01*
X37185600Y-97434400D01*
X37185600Y-96875600D01*
G36*
X60363100Y-98704400D02*
X59651900Y-98704400D01*
X59651900Y-98145600D01*
X60363100Y-98145600D01*
X60363100Y-98704400D01*
G37*
X60363100Y-98704400D02*
X59651900Y-98704400D01*
X59651900Y-98145600D01*
X60363100Y-98145600D01*
X60363100Y-98704400D01*
G36*
X60363100Y-96875600D02*
X59651900Y-96875600D01*
X59651900Y-97434400D01*
X60363100Y-97434400D01*
X60363100Y-96875600D01*
G37*
X60363100Y-96875600D02*
X59651900Y-96875600D01*
X59651900Y-97434400D01*
X60363100Y-97434400D01*
X60363100Y-96875600D01*
G36*
X93065600Y-98704400D02*
X92354400Y-98704400D01*
X92354400Y-98145600D01*
X93065600Y-98145600D01*
X93065600Y-98704400D01*
G37*
X93065600Y-98704400D02*
X92354400Y-98704400D01*
X92354400Y-98145600D01*
X93065600Y-98145600D01*
X93065600Y-98704400D01*
G36*
X93065600Y-96875600D02*
X92354400Y-96875600D01*
X92354400Y-97434400D01*
X93065600Y-97434400D01*
X93065600Y-96875600D01*
G37*
X93065600Y-96875600D02*
X92354400Y-96875600D01*
X92354400Y-97434400D01*
X93065600Y-97434400D01*
X93065600Y-96875600D01*
G36*
X116243100Y-98704400D02*
X115531900Y-98704400D01*
X115531900Y-98145600D01*
X116243100Y-98145600D01*
X116243100Y-98704400D01*
G37*
X116243100Y-98704400D02*
X115531900Y-98704400D01*
X115531900Y-98145600D01*
X116243100Y-98145600D01*
X116243100Y-98704400D01*
G36*
X116243100Y-96875600D02*
X115531900Y-96875600D01*
X115531900Y-97434400D01*
X116243100Y-97434400D01*
X116243100Y-96875600D01*
G37*
X116243100Y-96875600D02*
X115531900Y-96875600D01*
X115531900Y-97434400D01*
X116243100Y-97434400D01*
X116243100Y-96875600D01*
G36*
X82194400Y-53378100D02*
X82905600Y-53378100D01*
X82905600Y-53936900D01*
X82194400Y-53936900D01*
X82194400Y-53378100D01*
G37*
X82194400Y-53378100D02*
X82905600Y-53378100D01*
X82905600Y-53936900D01*
X82194400Y-53936900D01*
X82194400Y-53378100D01*
G36*
X82194400Y-55206900D02*
X82905600Y-55206900D01*
X82905600Y-54648100D01*
X82194400Y-54648100D01*
X82194400Y-55206900D01*
G37*
X82194400Y-55206900D02*
X82905600Y-55206900D01*
X82905600Y-54648100D01*
X82194400Y-54648100D01*
X82194400Y-55206900D01*
G36*
X69494400Y-53378100D02*
X70205600Y-53378100D01*
X70205600Y-53936900D01*
X69494400Y-53936900D01*
X69494400Y-53378100D01*
G37*
X69494400Y-53378100D02*
X70205600Y-53378100D01*
X70205600Y-53936900D01*
X69494400Y-53936900D01*
X69494400Y-53378100D01*
G36*
X69494400Y-55206900D02*
X70205600Y-55206900D01*
X70205600Y-54648100D01*
X69494400Y-54648100D01*
X69494400Y-55206900D01*
G37*
X69494400Y-55206900D02*
X70205600Y-55206900D01*
X70205600Y-54648100D01*
X69494400Y-54648100D01*
X69494400Y-55206900D01*
G36*
X77749400Y-97828100D02*
X78460600Y-97828100D01*
X78460600Y-98386900D01*
X77749400Y-98386900D01*
X77749400Y-97828100D01*
G37*
X77749400Y-97828100D02*
X78460600Y-97828100D01*
X78460600Y-98386900D01*
X77749400Y-98386900D01*
X77749400Y-97828100D01*
G36*
X77749400Y-99656900D02*
X78460600Y-99656900D01*
X78460600Y-99098100D01*
X77749400Y-99098100D01*
X77749400Y-99656900D01*
G37*
X77749400Y-99656900D02*
X78460600Y-99656900D01*
X78460600Y-99098100D01*
X77749400Y-99098100D01*
X77749400Y-99656900D01*
G36*
X80289400Y-97828100D02*
X81000600Y-97828100D01*
X81000600Y-98386900D01*
X80289400Y-98386900D01*
X80289400Y-97828100D01*
G37*
X80289400Y-97828100D02*
X81000600Y-97828100D01*
X81000600Y-98386900D01*
X80289400Y-98386900D01*
X80289400Y-97828100D01*
G36*
X80289400Y-99656900D02*
X81000600Y-99656900D01*
X81000600Y-99098100D01*
X80289400Y-99098100D01*
X80289400Y-99656900D01*
G37*
X80289400Y-99656900D02*
X81000600Y-99656900D01*
X81000600Y-99098100D01*
X80289400Y-99098100D01*
X80289400Y-99656900D01*
G36*
X79362300Y-59829700D02*
X80657700Y-59829700D01*
X80657700Y-61125100D01*
X79362300Y-61125100D01*
X79362300Y-59829700D01*
G37*
X79362300Y-59829700D02*
X80657700Y-59829700D01*
X80657700Y-61125100D01*
X79362300Y-61125100D01*
X79362300Y-59829700D01*
G36*
X79362300Y-64630300D02*
X80657700Y-64630300D01*
X80657700Y-63334900D01*
X79362300Y-63334900D01*
X79362300Y-64630300D01*
G37*
X79362300Y-64630300D02*
X80657700Y-64630300D01*
X80657700Y-63334900D01*
X79362300Y-63334900D01*
X79362300Y-64630300D01*
G36*
X75552300Y-59829700D02*
X76847700Y-59829700D01*
X76847700Y-61125100D01*
X75552300Y-61125100D01*
X75552300Y-59829700D01*
G37*
X75552300Y-59829700D02*
X76847700Y-59829700D01*
X76847700Y-61125100D01*
X75552300Y-61125100D01*
X75552300Y-59829700D01*
G36*
X75552300Y-64630300D02*
X76847700Y-64630300D01*
X76847700Y-63334900D01*
X75552300Y-63334900D01*
X75552300Y-64630300D01*
G37*
X75552300Y-64630300D02*
X76847700Y-64630300D01*
X76847700Y-63334900D01*
X75552300Y-63334900D01*
X75552300Y-64630300D01*
G36*
X71742300Y-59829700D02*
X73037700Y-59829700D01*
X73037700Y-61125100D01*
X71742300Y-61125100D01*
X71742300Y-59829700D01*
G37*
X71742300Y-59829700D02*
X73037700Y-59829700D01*
X73037700Y-61125100D01*
X71742300Y-61125100D01*
X71742300Y-59829700D01*
G36*
X71742300Y-64630300D02*
X73037700Y-64630300D01*
X73037700Y-63334900D01*
X71742300Y-63334900D01*
X71742300Y-64630300D01*
G37*
X71742300Y-64630300D02*
X73037700Y-64630300D01*
X73037700Y-63334900D01*
X71742300Y-63334900D01*
X71742300Y-64630300D01*
D17*
X70189592Y-89852500D03*
D18*
X67310000Y-108902500D03*
X67310000Y-106362500D03*
X64770000Y-108902500D03*
X64770000Y-106362500D03*
X62230000Y-108902500D03*
X62230000Y-106362500D03*
X59690000Y-108902500D03*
X59690000Y-106362500D03*
X57150000Y-108902500D03*
X57150000Y-106362500D03*
X54610000Y-108902500D03*
X54610000Y-106362500D03*
X52070000Y-108902500D03*
X52070000Y-106362500D03*
X49530000Y-108902500D03*
X49530000Y-106362500D03*
X46990000Y-108902500D03*
X46990000Y-106362500D03*
X44450000Y-108902500D03*
X44450000Y-106362500D03*
X41910000Y-108902500D03*
X41910000Y-106362500D03*
X39370000Y-108902500D03*
X39370000Y-106362500D03*
X36830000Y-108902500D03*
X36830000Y-106362500D03*
X34290000Y-108902500D03*
X34290000Y-106362500D03*
X31750000Y-108902500D03*
X31750000Y-106362500D03*
X29210000Y-108902500D03*
X29210000Y-106362500D03*
X67310000Y-115887500D03*
X64770000Y-115887500D03*
X62230000Y-115887500D03*
X59690000Y-115887500D03*
X57150000Y-115887500D03*
X54610000Y-115887500D03*
X52070000Y-115887500D03*
X49530000Y-115887500D03*
X46990000Y-115887500D03*
X44450000Y-115887500D03*
X41910000Y-115887500D03*
X39370000Y-115887500D03*
X36830000Y-115887500D03*
X34290000Y-115887500D03*
X31750000Y-115887500D03*
X29210000Y-115887500D03*
X85090000Y-43180000D03*
X85090000Y-45720000D03*
X87630000Y-43180000D03*
X87630000Y-45720000D03*
X90170000Y-43180000D03*
X90170000Y-45720000D03*
X92710000Y-43180000D03*
X92710000Y-45720000D03*
X95250000Y-43180000D03*
X95250000Y-45720000D03*
X97790000Y-43180000D03*
X97790000Y-45720000D03*
X100330000Y-43180000D03*
X100330000Y-45720000D03*
X102870000Y-43180000D03*
X102870000Y-45720000D03*
X105410000Y-43180000D03*
X105410000Y-45720000D03*
X107950000Y-43180000D03*
X107950000Y-45720000D03*
X110490000Y-43180000D03*
X110490000Y-45720000D03*
X113030000Y-43180000D03*
X113030000Y-45720000D03*
X115570000Y-43180000D03*
X115570000Y-45720000D03*
X118110000Y-43180000D03*
X118110000Y-45720000D03*
X120650000Y-43180000D03*
X120650000Y-45720000D03*
X123190000Y-43180000D03*
X123190000Y-45720000D03*
X85090000Y-36195000D03*
X87630000Y-36195000D03*
X90170000Y-36195000D03*
X92710000Y-36195000D03*
X95250000Y-36195000D03*
X97790000Y-36195000D03*
X100330000Y-36195000D03*
X102870000Y-36195000D03*
X105410000Y-36195000D03*
X107950000Y-36195000D03*
X110490000Y-36195000D03*
X113030000Y-36195000D03*
X115570000Y-36195000D03*
X118110000Y-36195000D03*
X120650000Y-36195000D03*
X123190000Y-36195000D03*
X123190000Y-108902500D03*
X123190000Y-106362500D03*
X120650000Y-108902500D03*
X120650000Y-106362500D03*
X118110000Y-108902500D03*
X118110000Y-106362500D03*
X115570000Y-108902500D03*
X115570000Y-106362500D03*
X113030000Y-108902500D03*
X113030000Y-106362500D03*
X110490000Y-108902500D03*
X110490000Y-106362500D03*
X107950000Y-108902500D03*
X107950000Y-106362500D03*
X105410000Y-108902500D03*
X105410000Y-106362500D03*
X102870000Y-108902500D03*
X102870000Y-106362500D03*
X100330000Y-108902500D03*
X100330000Y-106362500D03*
X97790000Y-108902500D03*
X97790000Y-106362500D03*
X95250000Y-108902500D03*
X95250000Y-106362500D03*
X92710000Y-108902500D03*
X92710000Y-106362500D03*
X90170000Y-108902500D03*
X90170000Y-106362500D03*
X87630000Y-108902500D03*
X87630000Y-106362500D03*
X85090000Y-108902500D03*
X85090000Y-106362500D03*
X123190000Y-115887500D03*
X120650000Y-115887500D03*
X118110000Y-115887500D03*
X115570000Y-115887500D03*
X113030000Y-115887500D03*
X110490000Y-115887500D03*
X107950000Y-115887500D03*
X105410000Y-115887500D03*
X102870000Y-115887500D03*
X100330000Y-115887500D03*
X97790000Y-115887500D03*
X95250000Y-115887500D03*
X92710000Y-115887500D03*
X90170000Y-115887500D03*
X87630000Y-115887500D03*
X85090000Y-115887500D03*
X29210000Y-43180000D03*
X29210000Y-45720000D03*
X31750000Y-43180000D03*
X31750000Y-45720000D03*
X34290000Y-43180000D03*
X34290000Y-45720000D03*
X36830000Y-43180000D03*
X36830000Y-45720000D03*
X39370000Y-43180000D03*
X39370000Y-45720000D03*
X41910000Y-43180000D03*
X41910000Y-45720000D03*
X44450000Y-43180000D03*
X44450000Y-45720000D03*
X46990000Y-43180000D03*
X46990000Y-45720000D03*
X49530000Y-43180000D03*
X49530000Y-45720000D03*
X52070000Y-43180000D03*
X52070000Y-45720000D03*
X54610000Y-43180000D03*
X54610000Y-45720000D03*
X57150000Y-43180000D03*
X57150000Y-45720000D03*
X59690000Y-43180000D03*
X59690000Y-45720000D03*
X62230000Y-43180000D03*
X62230000Y-45720000D03*
X64770000Y-43180000D03*
X64770000Y-45720000D03*
X67310000Y-43180000D03*
X67310000Y-45720000D03*
X29210000Y-36195000D03*
X31750000Y-36195000D03*
X34290000Y-36195000D03*
X36830000Y-36195000D03*
X39370000Y-36195000D03*
X41910000Y-36195000D03*
X44450000Y-36195000D03*
X46990000Y-36195000D03*
X49530000Y-36195000D03*
X52070000Y-36195000D03*
X54610000Y-36195000D03*
X57150000Y-36195000D03*
X59690000Y-36195000D03*
X62230000Y-36195000D03*
X64770000Y-36195000D03*
X67310000Y-36195000D03*
X69850000Y-43180000D03*
X69850000Y-45720000D03*
X72390000Y-43180000D03*
X72390000Y-45720000D03*
X74930000Y-43180000D03*
X74930000Y-45720000D03*
X77470000Y-43180000D03*
X77470000Y-45720000D03*
X80010000Y-43180000D03*
X80010000Y-45720000D03*
X82550000Y-43180000D03*
X82550000Y-45720000D03*
X69850000Y-36225000D03*
X72390000Y-36225000D03*
X74930000Y-36225000D03*
X77470000Y-36225000D03*
X80010000Y-36225000D03*
X82550000Y-36225000D03*
X80327500Y-108902500D03*
X77787500Y-108902500D03*
X75247500Y-108902500D03*
X72707500Y-108902500D03*
D17*
X27940000Y-73025000D03*
X30480000Y-73025000D03*
X27940000Y-75565000D03*
X30480000Y-75565000D03*
X27940000Y-78105000D03*
X30480000Y-78105000D03*
M02*
