G04 #@! TF.FileFunction,Soldermask,Bot*
%FSLAX46Y46*%
G04 Gerber Fmt 4.6, Leading zero omitted, Abs format (unit mm)*
G04 Created by KiCad (PCBNEW 0.201511251016+6329~38~ubuntu15.10.1-stable) date tis  1 dec 2015 15:17:35*
%MOMM*%
G01*
G04 APERTURE LIST*
%ADD10C,0.149860*%
%ADD11C,0.500000*%
%ADD12C,2.082800*%
G04 APERTURE END LIST*
D10*
D11*
G36*
X73505000Y-121321250D02*
X73505000Y-120361250D01*
X74045000Y-120361250D01*
X74045000Y-121321250D01*
X73505000Y-121321250D01*
G37*
X73505000Y-121321250D02*
X73505000Y-120361250D01*
X74045000Y-120361250D01*
X74045000Y-121321250D01*
X73505000Y-121321250D01*
G36*
X71700000Y-124721250D02*
X71700000Y-123121250D01*
X72500000Y-123121250D01*
X72500000Y-124721250D01*
X71700000Y-124721250D01*
G37*
X71700000Y-124721250D02*
X71700000Y-123121250D01*
X72500000Y-123121250D01*
X72500000Y-124721250D01*
X71700000Y-124721250D01*
G36*
X78895000Y-121321250D02*
X78895000Y-120361250D01*
X78355000Y-120361250D01*
X78355000Y-121321250D01*
X78895000Y-121321250D01*
G37*
X78895000Y-121321250D02*
X78895000Y-120361250D01*
X78355000Y-120361250D01*
X78355000Y-121321250D01*
X78895000Y-121321250D01*
G36*
X80700000Y-124721250D02*
X80700000Y-123121250D01*
X79900000Y-123121250D01*
X79900000Y-124721250D01*
X80700000Y-124721250D01*
G37*
X80700000Y-124721250D02*
X80700000Y-123121250D01*
X79900000Y-123121250D01*
X79900000Y-124721250D01*
X80700000Y-124721250D01*
D12*
X67310000Y-108902500D03*
X67310000Y-106362500D03*
X64770000Y-108902500D03*
X64770000Y-106362500D03*
X62230000Y-108902500D03*
X62230000Y-106362500D03*
X59690000Y-108902500D03*
X59690000Y-106362500D03*
X57150000Y-108902500D03*
X57150000Y-106362500D03*
X54610000Y-108902500D03*
X54610000Y-106362500D03*
X52070000Y-108902500D03*
X52070000Y-106362500D03*
X49530000Y-108902500D03*
X49530000Y-106362500D03*
X46990000Y-108902500D03*
X46990000Y-106362500D03*
X44450000Y-108902500D03*
X44450000Y-106362500D03*
X41910000Y-108902500D03*
X41910000Y-106362500D03*
X39370000Y-108902500D03*
X39370000Y-106362500D03*
X36830000Y-108902500D03*
X36830000Y-106362500D03*
X34290000Y-108902500D03*
X34290000Y-106362500D03*
X31750000Y-108902500D03*
X31750000Y-106362500D03*
X29210000Y-108902500D03*
X29210000Y-106362500D03*
X67310000Y-115887500D03*
X64770000Y-115887500D03*
X62230000Y-115887500D03*
X59690000Y-115887500D03*
X57150000Y-115887500D03*
X54610000Y-115887500D03*
X52070000Y-115887500D03*
X49530000Y-115887500D03*
X46990000Y-115887500D03*
X44450000Y-115887500D03*
X41910000Y-115887500D03*
X39370000Y-115887500D03*
X36830000Y-115887500D03*
X34290000Y-115887500D03*
X31750000Y-115887500D03*
X29210000Y-115887500D03*
X85090000Y-43180000D03*
X85090000Y-45720000D03*
X87630000Y-43180000D03*
X87630000Y-45720000D03*
X90170000Y-43180000D03*
X90170000Y-45720000D03*
X92710000Y-43180000D03*
X92710000Y-45720000D03*
X95250000Y-43180000D03*
X95250000Y-45720000D03*
X97790000Y-43180000D03*
X97790000Y-45720000D03*
X100330000Y-43180000D03*
X100330000Y-45720000D03*
X102870000Y-43180000D03*
X102870000Y-45720000D03*
X105410000Y-43180000D03*
X105410000Y-45720000D03*
X107950000Y-43180000D03*
X107950000Y-45720000D03*
X110490000Y-43180000D03*
X110490000Y-45720000D03*
X113030000Y-43180000D03*
X113030000Y-45720000D03*
X115570000Y-43180000D03*
X115570000Y-45720000D03*
X118110000Y-43180000D03*
X118110000Y-45720000D03*
X120650000Y-43180000D03*
X120650000Y-45720000D03*
X123190000Y-43180000D03*
X123190000Y-45720000D03*
X85090000Y-36195000D03*
X87630000Y-36195000D03*
X90170000Y-36195000D03*
X92710000Y-36195000D03*
X95250000Y-36195000D03*
X97790000Y-36195000D03*
X100330000Y-36195000D03*
X102870000Y-36195000D03*
X105410000Y-36195000D03*
X107950000Y-36195000D03*
X110490000Y-36195000D03*
X113030000Y-36195000D03*
X115570000Y-36195000D03*
X118110000Y-36195000D03*
X120650000Y-36195000D03*
X123190000Y-36195000D03*
X123190000Y-108902500D03*
X123190000Y-106362500D03*
X120650000Y-108902500D03*
X120650000Y-106362500D03*
X118110000Y-108902500D03*
X118110000Y-106362500D03*
X115570000Y-108902500D03*
X115570000Y-106362500D03*
X113030000Y-108902500D03*
X113030000Y-106362500D03*
X110490000Y-108902500D03*
X110490000Y-106362500D03*
X107950000Y-108902500D03*
X107950000Y-106362500D03*
X105410000Y-108902500D03*
X105410000Y-106362500D03*
X102870000Y-108902500D03*
X102870000Y-106362500D03*
X100330000Y-108902500D03*
X100330000Y-106362500D03*
X97790000Y-108902500D03*
X97790000Y-106362500D03*
X95250000Y-108902500D03*
X95250000Y-106362500D03*
X92710000Y-108902500D03*
X92710000Y-106362500D03*
X90170000Y-108902500D03*
X90170000Y-106362500D03*
X87630000Y-108902500D03*
X87630000Y-106362500D03*
X85090000Y-108902500D03*
X85090000Y-106362500D03*
X123190000Y-115887500D03*
X120650000Y-115887500D03*
X118110000Y-115887500D03*
X115570000Y-115887500D03*
X113030000Y-115887500D03*
X110490000Y-115887500D03*
X107950000Y-115887500D03*
X105410000Y-115887500D03*
X102870000Y-115887500D03*
X100330000Y-115887500D03*
X97790000Y-115887500D03*
X95250000Y-115887500D03*
X92710000Y-115887500D03*
X90170000Y-115887500D03*
X87630000Y-115887500D03*
X85090000Y-115887500D03*
X29210000Y-43180000D03*
X29210000Y-45720000D03*
X31750000Y-43180000D03*
X31750000Y-45720000D03*
X34290000Y-43180000D03*
X34290000Y-45720000D03*
X36830000Y-43180000D03*
X36830000Y-45720000D03*
X39370000Y-43180000D03*
X39370000Y-45720000D03*
X41910000Y-43180000D03*
X41910000Y-45720000D03*
X44450000Y-43180000D03*
X44450000Y-45720000D03*
X46990000Y-43180000D03*
X46990000Y-45720000D03*
X49530000Y-43180000D03*
X49530000Y-45720000D03*
X52070000Y-43180000D03*
X52070000Y-45720000D03*
X54610000Y-43180000D03*
X54610000Y-45720000D03*
X57150000Y-43180000D03*
X57150000Y-45720000D03*
X59690000Y-43180000D03*
X59690000Y-45720000D03*
X62230000Y-43180000D03*
X62230000Y-45720000D03*
X64770000Y-43180000D03*
X64770000Y-45720000D03*
X67310000Y-43180000D03*
X67310000Y-45720000D03*
X29210000Y-36195000D03*
X31750000Y-36195000D03*
X34290000Y-36195000D03*
X36830000Y-36195000D03*
X39370000Y-36195000D03*
X41910000Y-36195000D03*
X44450000Y-36195000D03*
X46990000Y-36195000D03*
X49530000Y-36195000D03*
X52070000Y-36195000D03*
X54610000Y-36195000D03*
X57150000Y-36195000D03*
X59690000Y-36195000D03*
X62230000Y-36195000D03*
X64770000Y-36195000D03*
X67310000Y-36195000D03*
X69850000Y-43180000D03*
X69850000Y-45720000D03*
X72390000Y-43180000D03*
X72390000Y-45720000D03*
X74930000Y-43180000D03*
X74930000Y-45720000D03*
X77470000Y-43180000D03*
X77470000Y-45720000D03*
X80010000Y-43180000D03*
X80010000Y-45720000D03*
X82550000Y-43180000D03*
X82550000Y-45720000D03*
X69850000Y-36225000D03*
X72390000Y-36225000D03*
X74930000Y-36225000D03*
X77470000Y-36225000D03*
X80010000Y-36225000D03*
X82550000Y-36225000D03*
X80327500Y-108902500D03*
X77787500Y-108902500D03*
X75247500Y-108902500D03*
X72707500Y-108902500D03*
M02*
