G04 #@! TF.FileFunction,Other,User*
%FSLAX46Y46*%
G04 Gerber Fmt 4.6, Leading zero omitted, Abs format (unit mm)*
G04 Created by KiCad (PCBNEW 0.201511251016+6329~38~ubuntu15.10.1-stable) date tis  1 dec 2015 15:17:35*
%MOMM*%
G01*
G04 APERTURE LIST*
%ADD10C,0.149860*%
%ADD11C,0.100000*%
G04 APERTURE END LIST*
D10*
D11*
G36*
X77775000Y-101302500D02*
X80975000Y-101302500D01*
X80975000Y-103802500D01*
X77775000Y-103802500D01*
X77775000Y-101302500D01*
G37*
X77775000Y-101302500D02*
X80975000Y-101302500D01*
X80975000Y-103802500D01*
X77775000Y-103802500D01*
X77775000Y-101302500D01*
G36*
X79660000Y-55360000D02*
X79660000Y-53860000D01*
X80360000Y-53860000D01*
X80360000Y-55360000D01*
X79660000Y-55360000D01*
G37*
X79660000Y-55360000D02*
X79660000Y-53860000D01*
X80360000Y-53860000D01*
X80360000Y-55360000D01*
X79660000Y-55360000D01*
G36*
X75850000Y-55360000D02*
X75850000Y-53860000D01*
X76550000Y-53860000D01*
X76550000Y-55360000D01*
X75850000Y-55360000D01*
G37*
X75850000Y-55360000D02*
X75850000Y-53860000D01*
X76550000Y-53860000D01*
X76550000Y-55360000D01*
X75850000Y-55360000D01*
G36*
X72040000Y-55360000D02*
X72040000Y-53860000D01*
X72740000Y-53860000D01*
X72740000Y-55360000D01*
X72040000Y-55360000D01*
G37*
X72040000Y-55360000D02*
X72040000Y-53860000D01*
X72740000Y-53860000D01*
X72740000Y-55360000D01*
X72040000Y-55360000D01*
G36*
X71722500Y-99492500D02*
X71722500Y-97992500D01*
X72422500Y-97992500D01*
X72422500Y-99492500D01*
X71722500Y-99492500D01*
G37*
X71722500Y-99492500D02*
X71722500Y-97992500D01*
X72422500Y-97992500D01*
X72422500Y-99492500D01*
X71722500Y-99492500D01*
G36*
X73627500Y-99492500D02*
X73627500Y-97992500D01*
X74327500Y-97992500D01*
X74327500Y-99492500D01*
X73627500Y-99492500D01*
G37*
X73627500Y-99492500D02*
X73627500Y-97992500D01*
X74327500Y-97992500D01*
X74327500Y-99492500D01*
X73627500Y-99492500D01*
G36*
X81565000Y-81712500D02*
X81565000Y-80212500D01*
X82265000Y-80212500D01*
X82265000Y-81712500D01*
X81565000Y-81712500D01*
G37*
X81565000Y-81712500D02*
X81565000Y-80212500D01*
X82265000Y-80212500D01*
X82265000Y-81712500D01*
X81565000Y-81712500D01*
G36*
X34957500Y-53860000D02*
X34957500Y-55360000D01*
X34257500Y-55360000D01*
X34257500Y-53860000D01*
X34957500Y-53860000D01*
G37*
X34957500Y-53860000D02*
X34957500Y-55360000D01*
X34257500Y-55360000D01*
X34257500Y-53860000D01*
X34957500Y-53860000D01*
G36*
X28607500Y-69100000D02*
X28607500Y-70600000D01*
X27907500Y-70600000D01*
X27907500Y-69100000D01*
X28607500Y-69100000D01*
G37*
X28607500Y-69100000D02*
X28607500Y-70600000D01*
X27907500Y-70600000D01*
X27907500Y-69100000D01*
X28607500Y-69100000D01*
G36*
X44482500Y-53860000D02*
X44482500Y-55360000D01*
X43782500Y-55360000D01*
X43782500Y-53860000D01*
X44482500Y-53860000D01*
G37*
X44482500Y-53860000D02*
X44482500Y-55360000D01*
X43782500Y-55360000D01*
X43782500Y-53860000D01*
X44482500Y-53860000D01*
G36*
X38132500Y-69100000D02*
X38132500Y-70600000D01*
X37432500Y-70600000D01*
X37432500Y-69100000D01*
X38132500Y-69100000D01*
G37*
X38132500Y-69100000D02*
X38132500Y-70600000D01*
X37432500Y-70600000D01*
X37432500Y-69100000D01*
X38132500Y-69100000D01*
G36*
X58135000Y-53860000D02*
X58135000Y-55360000D01*
X57435000Y-55360000D01*
X57435000Y-53860000D01*
X58135000Y-53860000D01*
G37*
X58135000Y-53860000D02*
X58135000Y-55360000D01*
X57435000Y-55360000D01*
X57435000Y-53860000D01*
X58135000Y-53860000D01*
G36*
X51785000Y-69100000D02*
X51785000Y-70600000D01*
X51085000Y-70600000D01*
X51085000Y-69100000D01*
X51785000Y-69100000D01*
G37*
X51785000Y-69100000D02*
X51785000Y-70600000D01*
X51085000Y-70600000D01*
X51085000Y-69100000D01*
X51785000Y-69100000D01*
G36*
X67660000Y-53860000D02*
X67660000Y-55360000D01*
X66960000Y-55360000D01*
X66960000Y-53860000D01*
X67660000Y-53860000D01*
G37*
X67660000Y-53860000D02*
X67660000Y-55360000D01*
X66960000Y-55360000D01*
X66960000Y-53860000D01*
X67660000Y-53860000D01*
G36*
X61310000Y-69100000D02*
X61310000Y-70600000D01*
X60610000Y-70600000D01*
X60610000Y-69100000D01*
X61310000Y-69100000D01*
G37*
X61310000Y-69100000D02*
X61310000Y-70600000D01*
X60610000Y-70600000D01*
X60610000Y-69100000D01*
X61310000Y-69100000D01*
G36*
X90837500Y-53860000D02*
X90837500Y-55360000D01*
X90137500Y-55360000D01*
X90137500Y-53860000D01*
X90837500Y-53860000D01*
G37*
X90837500Y-53860000D02*
X90837500Y-55360000D01*
X90137500Y-55360000D01*
X90137500Y-53860000D01*
X90837500Y-53860000D01*
G36*
X84487500Y-69100000D02*
X84487500Y-70600000D01*
X83787500Y-70600000D01*
X83787500Y-69100000D01*
X84487500Y-69100000D01*
G37*
X84487500Y-69100000D02*
X84487500Y-70600000D01*
X83787500Y-70600000D01*
X83787500Y-69100000D01*
X84487500Y-69100000D01*
G36*
X100362500Y-53860000D02*
X100362500Y-55360000D01*
X99662500Y-55360000D01*
X99662500Y-53860000D01*
X100362500Y-53860000D01*
G37*
X100362500Y-53860000D02*
X100362500Y-55360000D01*
X99662500Y-55360000D01*
X99662500Y-53860000D01*
X100362500Y-53860000D01*
G36*
X94012500Y-69100000D02*
X94012500Y-70600000D01*
X93312500Y-70600000D01*
X93312500Y-69100000D01*
X94012500Y-69100000D01*
G37*
X94012500Y-69100000D02*
X94012500Y-70600000D01*
X93312500Y-70600000D01*
X93312500Y-69100000D01*
X94012500Y-69100000D01*
G36*
X114015000Y-53860000D02*
X114015000Y-55360000D01*
X113315000Y-55360000D01*
X113315000Y-53860000D01*
X114015000Y-53860000D01*
G37*
X114015000Y-53860000D02*
X114015000Y-55360000D01*
X113315000Y-55360000D01*
X113315000Y-53860000D01*
X114015000Y-53860000D01*
G36*
X107665000Y-69100000D02*
X107665000Y-70600000D01*
X106965000Y-70600000D01*
X106965000Y-69100000D01*
X107665000Y-69100000D01*
G37*
X107665000Y-69100000D02*
X107665000Y-70600000D01*
X106965000Y-70600000D01*
X106965000Y-69100000D01*
X107665000Y-69100000D01*
G36*
X123540000Y-53860000D02*
X123540000Y-55360000D01*
X122840000Y-55360000D01*
X122840000Y-53860000D01*
X123540000Y-53860000D01*
G37*
X123540000Y-53860000D02*
X123540000Y-55360000D01*
X122840000Y-55360000D01*
X122840000Y-53860000D01*
X123540000Y-53860000D01*
G36*
X117190000Y-69100000D02*
X117190000Y-70600000D01*
X116490000Y-70600000D01*
X116490000Y-69100000D01*
X117190000Y-69100000D01*
G37*
X117190000Y-69100000D02*
X117190000Y-70600000D01*
X116490000Y-70600000D01*
X116490000Y-69100000D01*
X117190000Y-69100000D01*
G36*
X33052500Y-53860000D02*
X33052500Y-55360000D01*
X32352500Y-55360000D01*
X32352500Y-53860000D01*
X33052500Y-53860000D01*
G37*
X33052500Y-53860000D02*
X33052500Y-55360000D01*
X32352500Y-55360000D01*
X32352500Y-53860000D01*
X33052500Y-53860000D01*
G36*
X30512500Y-69100000D02*
X30512500Y-70600000D01*
X29812500Y-70600000D01*
X29812500Y-69100000D01*
X30512500Y-69100000D01*
G37*
X30512500Y-69100000D02*
X30512500Y-70600000D01*
X29812500Y-70600000D01*
X29812500Y-69100000D01*
X30512500Y-69100000D01*
G36*
X42577500Y-53860000D02*
X42577500Y-55360000D01*
X41877500Y-55360000D01*
X41877500Y-53860000D01*
X42577500Y-53860000D01*
G37*
X42577500Y-53860000D02*
X42577500Y-55360000D01*
X41877500Y-55360000D01*
X41877500Y-53860000D01*
X42577500Y-53860000D01*
G36*
X40037500Y-69100000D02*
X40037500Y-70600000D01*
X39337500Y-70600000D01*
X39337500Y-69100000D01*
X40037500Y-69100000D01*
G37*
X40037500Y-69100000D02*
X40037500Y-70600000D01*
X39337500Y-70600000D01*
X39337500Y-69100000D01*
X40037500Y-69100000D01*
G36*
X56230000Y-53860000D02*
X56230000Y-55360000D01*
X55530000Y-55360000D01*
X55530000Y-53860000D01*
X56230000Y-53860000D01*
G37*
X56230000Y-53860000D02*
X56230000Y-55360000D01*
X55530000Y-55360000D01*
X55530000Y-53860000D01*
X56230000Y-53860000D01*
G36*
X53690000Y-69100000D02*
X53690000Y-70600000D01*
X52990000Y-70600000D01*
X52990000Y-69100000D01*
X53690000Y-69100000D01*
G37*
X53690000Y-69100000D02*
X53690000Y-70600000D01*
X52990000Y-70600000D01*
X52990000Y-69100000D01*
X53690000Y-69100000D01*
G36*
X65755000Y-53860000D02*
X65755000Y-55360000D01*
X65055000Y-55360000D01*
X65055000Y-53860000D01*
X65755000Y-53860000D01*
G37*
X65755000Y-53860000D02*
X65755000Y-55360000D01*
X65055000Y-55360000D01*
X65055000Y-53860000D01*
X65755000Y-53860000D01*
G36*
X63215000Y-69100000D02*
X63215000Y-70600000D01*
X62515000Y-70600000D01*
X62515000Y-69100000D01*
X63215000Y-69100000D01*
G37*
X63215000Y-69100000D02*
X63215000Y-70600000D01*
X62515000Y-70600000D01*
X62515000Y-69100000D01*
X63215000Y-69100000D01*
G36*
X88932500Y-53860000D02*
X88932500Y-55360000D01*
X88232500Y-55360000D01*
X88232500Y-53860000D01*
X88932500Y-53860000D01*
G37*
X88932500Y-53860000D02*
X88932500Y-55360000D01*
X88232500Y-55360000D01*
X88232500Y-53860000D01*
X88932500Y-53860000D01*
G36*
X86392500Y-69100000D02*
X86392500Y-70600000D01*
X85692500Y-70600000D01*
X85692500Y-69100000D01*
X86392500Y-69100000D01*
G37*
X86392500Y-69100000D02*
X86392500Y-70600000D01*
X85692500Y-70600000D01*
X85692500Y-69100000D01*
X86392500Y-69100000D01*
G36*
X98457500Y-53860000D02*
X98457500Y-55360000D01*
X97757500Y-55360000D01*
X97757500Y-53860000D01*
X98457500Y-53860000D01*
G37*
X98457500Y-53860000D02*
X98457500Y-55360000D01*
X97757500Y-55360000D01*
X97757500Y-53860000D01*
X98457500Y-53860000D01*
G36*
X95917500Y-69100000D02*
X95917500Y-70600000D01*
X95217500Y-70600000D01*
X95217500Y-69100000D01*
X95917500Y-69100000D01*
G37*
X95917500Y-69100000D02*
X95917500Y-70600000D01*
X95217500Y-70600000D01*
X95217500Y-69100000D01*
X95917500Y-69100000D01*
G36*
X112110000Y-53860000D02*
X112110000Y-55360000D01*
X111410000Y-55360000D01*
X111410000Y-53860000D01*
X112110000Y-53860000D01*
G37*
X112110000Y-53860000D02*
X112110000Y-55360000D01*
X111410000Y-55360000D01*
X111410000Y-53860000D01*
X112110000Y-53860000D01*
G36*
X109570000Y-69100000D02*
X109570000Y-70600000D01*
X108870000Y-70600000D01*
X108870000Y-69100000D01*
X109570000Y-69100000D01*
G37*
X109570000Y-69100000D02*
X109570000Y-70600000D01*
X108870000Y-70600000D01*
X108870000Y-69100000D01*
X109570000Y-69100000D01*
G36*
X121635000Y-53860000D02*
X121635000Y-55360000D01*
X120935000Y-55360000D01*
X120935000Y-53860000D01*
X121635000Y-53860000D01*
G37*
X121635000Y-53860000D02*
X121635000Y-55360000D01*
X120935000Y-55360000D01*
X120935000Y-53860000D01*
X121635000Y-53860000D01*
G36*
X119095000Y-69100000D02*
X119095000Y-70600000D01*
X118395000Y-70600000D01*
X118395000Y-69100000D01*
X119095000Y-69100000D01*
G37*
X119095000Y-69100000D02*
X119095000Y-70600000D01*
X118395000Y-70600000D01*
X118395000Y-69100000D01*
X119095000Y-69100000D01*
G36*
X31147500Y-53860000D02*
X31147500Y-55360000D01*
X30447500Y-55360000D01*
X30447500Y-53860000D01*
X31147500Y-53860000D01*
G37*
X31147500Y-53860000D02*
X31147500Y-55360000D01*
X30447500Y-55360000D01*
X30447500Y-53860000D01*
X31147500Y-53860000D01*
G36*
X32417500Y-69100000D02*
X32417500Y-70600000D01*
X31717500Y-70600000D01*
X31717500Y-69100000D01*
X32417500Y-69100000D01*
G37*
X32417500Y-69100000D02*
X32417500Y-70600000D01*
X31717500Y-70600000D01*
X31717500Y-69100000D01*
X32417500Y-69100000D01*
G36*
X40672500Y-53860000D02*
X40672500Y-55360000D01*
X39972500Y-55360000D01*
X39972500Y-53860000D01*
X40672500Y-53860000D01*
G37*
X40672500Y-53860000D02*
X40672500Y-55360000D01*
X39972500Y-55360000D01*
X39972500Y-53860000D01*
X40672500Y-53860000D01*
G36*
X41942500Y-69100000D02*
X41942500Y-70600000D01*
X41242500Y-70600000D01*
X41242500Y-69100000D01*
X41942500Y-69100000D01*
G37*
X41942500Y-69100000D02*
X41942500Y-70600000D01*
X41242500Y-70600000D01*
X41242500Y-69100000D01*
X41942500Y-69100000D01*
G36*
X54325000Y-53860000D02*
X54325000Y-55360000D01*
X53625000Y-55360000D01*
X53625000Y-53860000D01*
X54325000Y-53860000D01*
G37*
X54325000Y-53860000D02*
X54325000Y-55360000D01*
X53625000Y-55360000D01*
X53625000Y-53860000D01*
X54325000Y-53860000D01*
G36*
X55595000Y-69100000D02*
X55595000Y-70600000D01*
X54895000Y-70600000D01*
X54895000Y-69100000D01*
X55595000Y-69100000D01*
G37*
X55595000Y-69100000D02*
X55595000Y-70600000D01*
X54895000Y-70600000D01*
X54895000Y-69100000D01*
X55595000Y-69100000D01*
G36*
X63850000Y-53860000D02*
X63850000Y-55360000D01*
X63150000Y-55360000D01*
X63150000Y-53860000D01*
X63850000Y-53860000D01*
G37*
X63850000Y-53860000D02*
X63850000Y-55360000D01*
X63150000Y-55360000D01*
X63150000Y-53860000D01*
X63850000Y-53860000D01*
G36*
X65120000Y-69100000D02*
X65120000Y-70600000D01*
X64420000Y-70600000D01*
X64420000Y-69100000D01*
X65120000Y-69100000D01*
G37*
X65120000Y-69100000D02*
X65120000Y-70600000D01*
X64420000Y-70600000D01*
X64420000Y-69100000D01*
X65120000Y-69100000D01*
G36*
X87027500Y-53860000D02*
X87027500Y-55360000D01*
X86327500Y-55360000D01*
X86327500Y-53860000D01*
X87027500Y-53860000D01*
G37*
X87027500Y-53860000D02*
X87027500Y-55360000D01*
X86327500Y-55360000D01*
X86327500Y-53860000D01*
X87027500Y-53860000D01*
G36*
X88297500Y-69100000D02*
X88297500Y-70600000D01*
X87597500Y-70600000D01*
X87597500Y-69100000D01*
X88297500Y-69100000D01*
G37*
X88297500Y-69100000D02*
X88297500Y-70600000D01*
X87597500Y-70600000D01*
X87597500Y-69100000D01*
X88297500Y-69100000D01*
G36*
X96552500Y-53860000D02*
X96552500Y-55360000D01*
X95852500Y-55360000D01*
X95852500Y-53860000D01*
X96552500Y-53860000D01*
G37*
X96552500Y-53860000D02*
X96552500Y-55360000D01*
X95852500Y-55360000D01*
X95852500Y-53860000D01*
X96552500Y-53860000D01*
G36*
X97822500Y-69100000D02*
X97822500Y-70600000D01*
X97122500Y-70600000D01*
X97122500Y-69100000D01*
X97822500Y-69100000D01*
G37*
X97822500Y-69100000D02*
X97822500Y-70600000D01*
X97122500Y-70600000D01*
X97122500Y-69100000D01*
X97822500Y-69100000D01*
G36*
X110205000Y-53860000D02*
X110205000Y-55360000D01*
X109505000Y-55360000D01*
X109505000Y-53860000D01*
X110205000Y-53860000D01*
G37*
X110205000Y-53860000D02*
X110205000Y-55360000D01*
X109505000Y-55360000D01*
X109505000Y-53860000D01*
X110205000Y-53860000D01*
G36*
X111475000Y-69100000D02*
X111475000Y-70600000D01*
X110775000Y-70600000D01*
X110775000Y-69100000D01*
X111475000Y-69100000D01*
G37*
X111475000Y-69100000D02*
X111475000Y-70600000D01*
X110775000Y-70600000D01*
X110775000Y-69100000D01*
X111475000Y-69100000D01*
G36*
X119730000Y-53860000D02*
X119730000Y-55360000D01*
X119030000Y-55360000D01*
X119030000Y-53860000D01*
X119730000Y-53860000D01*
G37*
X119730000Y-53860000D02*
X119730000Y-55360000D01*
X119030000Y-55360000D01*
X119030000Y-53860000D01*
X119730000Y-53860000D01*
G36*
X121000000Y-69100000D02*
X121000000Y-70600000D01*
X120300000Y-70600000D01*
X120300000Y-69100000D01*
X121000000Y-69100000D01*
G37*
X121000000Y-69100000D02*
X121000000Y-70600000D01*
X120300000Y-70600000D01*
X120300000Y-69100000D01*
X121000000Y-69100000D01*
G36*
X29242500Y-53860000D02*
X29242500Y-55360000D01*
X28542500Y-55360000D01*
X28542500Y-53860000D01*
X29242500Y-53860000D01*
G37*
X29242500Y-53860000D02*
X29242500Y-55360000D01*
X28542500Y-55360000D01*
X28542500Y-53860000D01*
X29242500Y-53860000D01*
G36*
X34322500Y-69100000D02*
X34322500Y-70600000D01*
X33622500Y-70600000D01*
X33622500Y-69100000D01*
X34322500Y-69100000D01*
G37*
X34322500Y-69100000D02*
X34322500Y-70600000D01*
X33622500Y-70600000D01*
X33622500Y-69100000D01*
X34322500Y-69100000D01*
G36*
X38767500Y-53860000D02*
X38767500Y-55360000D01*
X38067500Y-55360000D01*
X38067500Y-53860000D01*
X38767500Y-53860000D01*
G37*
X38767500Y-53860000D02*
X38767500Y-55360000D01*
X38067500Y-55360000D01*
X38067500Y-53860000D01*
X38767500Y-53860000D01*
G36*
X43847500Y-69100000D02*
X43847500Y-70600000D01*
X43147500Y-70600000D01*
X43147500Y-69100000D01*
X43847500Y-69100000D01*
G37*
X43847500Y-69100000D02*
X43847500Y-70600000D01*
X43147500Y-70600000D01*
X43147500Y-69100000D01*
X43847500Y-69100000D01*
G36*
X52420000Y-53860000D02*
X52420000Y-55360000D01*
X51720000Y-55360000D01*
X51720000Y-53860000D01*
X52420000Y-53860000D01*
G37*
X52420000Y-53860000D02*
X52420000Y-55360000D01*
X51720000Y-55360000D01*
X51720000Y-53860000D01*
X52420000Y-53860000D01*
G36*
X57500000Y-69100000D02*
X57500000Y-70600000D01*
X56800000Y-70600000D01*
X56800000Y-69100000D01*
X57500000Y-69100000D01*
G37*
X57500000Y-69100000D02*
X57500000Y-70600000D01*
X56800000Y-70600000D01*
X56800000Y-69100000D01*
X57500000Y-69100000D01*
G36*
X61945000Y-53860000D02*
X61945000Y-55360000D01*
X61245000Y-55360000D01*
X61245000Y-53860000D01*
X61945000Y-53860000D01*
G37*
X61945000Y-53860000D02*
X61945000Y-55360000D01*
X61245000Y-55360000D01*
X61245000Y-53860000D01*
X61945000Y-53860000D01*
G36*
X67025000Y-69100000D02*
X67025000Y-70600000D01*
X66325000Y-70600000D01*
X66325000Y-69100000D01*
X67025000Y-69100000D01*
G37*
X67025000Y-69100000D02*
X67025000Y-70600000D01*
X66325000Y-70600000D01*
X66325000Y-69100000D01*
X67025000Y-69100000D01*
G36*
X85122500Y-53860000D02*
X85122500Y-55360000D01*
X84422500Y-55360000D01*
X84422500Y-53860000D01*
X85122500Y-53860000D01*
G37*
X85122500Y-53860000D02*
X85122500Y-55360000D01*
X84422500Y-55360000D01*
X84422500Y-53860000D01*
X85122500Y-53860000D01*
G36*
X90202500Y-69100000D02*
X90202500Y-70600000D01*
X89502500Y-70600000D01*
X89502500Y-69100000D01*
X90202500Y-69100000D01*
G37*
X90202500Y-69100000D02*
X90202500Y-70600000D01*
X89502500Y-70600000D01*
X89502500Y-69100000D01*
X90202500Y-69100000D01*
G36*
X94647500Y-53860000D02*
X94647500Y-55360000D01*
X93947500Y-55360000D01*
X93947500Y-53860000D01*
X94647500Y-53860000D01*
G37*
X94647500Y-53860000D02*
X94647500Y-55360000D01*
X93947500Y-55360000D01*
X93947500Y-53860000D01*
X94647500Y-53860000D01*
G36*
X99727500Y-69100000D02*
X99727500Y-70600000D01*
X99027500Y-70600000D01*
X99027500Y-69100000D01*
X99727500Y-69100000D01*
G37*
X99727500Y-69100000D02*
X99727500Y-70600000D01*
X99027500Y-70600000D01*
X99027500Y-69100000D01*
X99727500Y-69100000D01*
G36*
X108300000Y-53860000D02*
X108300000Y-55360000D01*
X107600000Y-55360000D01*
X107600000Y-53860000D01*
X108300000Y-53860000D01*
G37*
X108300000Y-53860000D02*
X108300000Y-55360000D01*
X107600000Y-55360000D01*
X107600000Y-53860000D01*
X108300000Y-53860000D01*
G36*
X117825000Y-53860000D02*
X117825000Y-55360000D01*
X117125000Y-55360000D01*
X117125000Y-53860000D01*
X117825000Y-53860000D01*
G37*
X117825000Y-53860000D02*
X117825000Y-55360000D01*
X117125000Y-55360000D01*
X117125000Y-53860000D01*
X117825000Y-53860000D01*
G36*
X122905000Y-69100000D02*
X122905000Y-70600000D01*
X122205000Y-70600000D01*
X122205000Y-69100000D01*
X122905000Y-69100000D01*
G37*
X122905000Y-69100000D02*
X122905000Y-70600000D01*
X122205000Y-70600000D01*
X122205000Y-69100000D01*
X122905000Y-69100000D01*
G36*
X30195000Y-81482500D02*
X30195000Y-82982500D01*
X29495000Y-82982500D01*
X29495000Y-81482500D01*
X30195000Y-81482500D01*
G37*
X30195000Y-81482500D02*
X30195000Y-82982500D01*
X29495000Y-82982500D01*
X29495000Y-81482500D01*
X30195000Y-81482500D01*
G36*
X35275000Y-96722500D02*
X35275000Y-98222500D01*
X34575000Y-98222500D01*
X34575000Y-96722500D01*
X35275000Y-96722500D01*
G37*
X35275000Y-96722500D02*
X35275000Y-98222500D01*
X34575000Y-98222500D01*
X34575000Y-96722500D01*
X35275000Y-96722500D01*
G36*
X39720000Y-81482500D02*
X39720000Y-82982500D01*
X39020000Y-82982500D01*
X39020000Y-81482500D01*
X39720000Y-81482500D01*
G37*
X39720000Y-81482500D02*
X39720000Y-82982500D01*
X39020000Y-82982500D01*
X39020000Y-81482500D01*
X39720000Y-81482500D01*
G36*
X44800000Y-96722500D02*
X44800000Y-98222500D01*
X44100000Y-98222500D01*
X44100000Y-96722500D01*
X44800000Y-96722500D01*
G37*
X44800000Y-96722500D02*
X44800000Y-98222500D01*
X44100000Y-98222500D01*
X44100000Y-96722500D01*
X44800000Y-96722500D01*
G36*
X53372500Y-81482500D02*
X53372500Y-82982500D01*
X52672500Y-82982500D01*
X52672500Y-81482500D01*
X53372500Y-81482500D01*
G37*
X53372500Y-81482500D02*
X53372500Y-82982500D01*
X52672500Y-82982500D01*
X52672500Y-81482500D01*
X53372500Y-81482500D01*
G36*
X58452500Y-96722500D02*
X58452500Y-98222500D01*
X57752500Y-98222500D01*
X57752500Y-96722500D01*
X58452500Y-96722500D01*
G37*
X58452500Y-96722500D02*
X58452500Y-98222500D01*
X57752500Y-98222500D01*
X57752500Y-96722500D01*
X58452500Y-96722500D01*
G36*
X62897500Y-81482500D02*
X62897500Y-82982500D01*
X62197500Y-82982500D01*
X62197500Y-81482500D01*
X62897500Y-81482500D01*
G37*
X62897500Y-81482500D02*
X62897500Y-82982500D01*
X62197500Y-82982500D01*
X62197500Y-81482500D01*
X62897500Y-81482500D01*
G36*
X67977500Y-96722500D02*
X67977500Y-98222500D01*
X67277500Y-98222500D01*
X67277500Y-96722500D01*
X67977500Y-96722500D01*
G37*
X67977500Y-96722500D02*
X67977500Y-98222500D01*
X67277500Y-98222500D01*
X67277500Y-96722500D01*
X67977500Y-96722500D01*
G36*
X86075000Y-81482500D02*
X86075000Y-82982500D01*
X85375000Y-82982500D01*
X85375000Y-81482500D01*
X86075000Y-81482500D01*
G37*
X86075000Y-81482500D02*
X86075000Y-82982500D01*
X85375000Y-82982500D01*
X85375000Y-81482500D01*
X86075000Y-81482500D01*
G36*
X91155000Y-96722500D02*
X91155000Y-98222500D01*
X90455000Y-98222500D01*
X90455000Y-96722500D01*
X91155000Y-96722500D01*
G37*
X91155000Y-96722500D02*
X91155000Y-98222500D01*
X90455000Y-98222500D01*
X90455000Y-96722500D01*
X91155000Y-96722500D01*
G36*
X95600000Y-81482500D02*
X95600000Y-82982500D01*
X94900000Y-82982500D01*
X94900000Y-81482500D01*
X95600000Y-81482500D01*
G37*
X95600000Y-81482500D02*
X95600000Y-82982500D01*
X94900000Y-82982500D01*
X94900000Y-81482500D01*
X95600000Y-81482500D01*
G36*
X100680000Y-96722500D02*
X100680000Y-98222500D01*
X99980000Y-98222500D01*
X99980000Y-96722500D01*
X100680000Y-96722500D01*
G37*
X100680000Y-96722500D02*
X100680000Y-98222500D01*
X99980000Y-98222500D01*
X99980000Y-96722500D01*
X100680000Y-96722500D01*
G36*
X109252500Y-81482500D02*
X109252500Y-82982500D01*
X108552500Y-82982500D01*
X108552500Y-81482500D01*
X109252500Y-81482500D01*
G37*
X109252500Y-81482500D02*
X109252500Y-82982500D01*
X108552500Y-82982500D01*
X108552500Y-81482500D01*
X109252500Y-81482500D01*
G36*
X114332500Y-96722500D02*
X114332500Y-98222500D01*
X113632500Y-98222500D01*
X113632500Y-96722500D01*
X114332500Y-96722500D01*
G37*
X114332500Y-96722500D02*
X114332500Y-98222500D01*
X113632500Y-98222500D01*
X113632500Y-96722500D01*
X114332500Y-96722500D01*
G36*
X118777500Y-81482500D02*
X118777500Y-82982500D01*
X118077500Y-82982500D01*
X118077500Y-81482500D01*
X118777500Y-81482500D01*
G37*
X118777500Y-81482500D02*
X118777500Y-82982500D01*
X118077500Y-82982500D01*
X118077500Y-81482500D01*
X118777500Y-81482500D01*
G36*
X123857500Y-96722500D02*
X123857500Y-98222500D01*
X123157500Y-98222500D01*
X123157500Y-96722500D01*
X123857500Y-96722500D01*
G37*
X123857500Y-96722500D02*
X123857500Y-98222500D01*
X123157500Y-98222500D01*
X123157500Y-96722500D01*
X123857500Y-96722500D01*
G36*
X32100000Y-81482500D02*
X32100000Y-82982500D01*
X31400000Y-82982500D01*
X31400000Y-81482500D01*
X32100000Y-81482500D01*
G37*
X32100000Y-81482500D02*
X32100000Y-82982500D01*
X31400000Y-82982500D01*
X31400000Y-81482500D01*
X32100000Y-81482500D01*
G36*
X33370000Y-96722500D02*
X33370000Y-98222500D01*
X32670000Y-98222500D01*
X32670000Y-96722500D01*
X33370000Y-96722500D01*
G37*
X33370000Y-96722500D02*
X33370000Y-98222500D01*
X32670000Y-98222500D01*
X32670000Y-96722500D01*
X33370000Y-96722500D01*
G36*
X41625000Y-81482500D02*
X41625000Y-82982500D01*
X40925000Y-82982500D01*
X40925000Y-81482500D01*
X41625000Y-81482500D01*
G37*
X41625000Y-81482500D02*
X41625000Y-82982500D01*
X40925000Y-82982500D01*
X40925000Y-81482500D01*
X41625000Y-81482500D01*
G36*
X42895000Y-96722500D02*
X42895000Y-98222500D01*
X42195000Y-98222500D01*
X42195000Y-96722500D01*
X42895000Y-96722500D01*
G37*
X42895000Y-96722500D02*
X42895000Y-98222500D01*
X42195000Y-98222500D01*
X42195000Y-96722500D01*
X42895000Y-96722500D01*
G36*
X55277500Y-81482500D02*
X55277500Y-82982500D01*
X54577500Y-82982500D01*
X54577500Y-81482500D01*
X55277500Y-81482500D01*
G37*
X55277500Y-81482500D02*
X55277500Y-82982500D01*
X54577500Y-82982500D01*
X54577500Y-81482500D01*
X55277500Y-81482500D01*
G36*
X56547500Y-96722500D02*
X56547500Y-98222500D01*
X55847500Y-98222500D01*
X55847500Y-96722500D01*
X56547500Y-96722500D01*
G37*
X56547500Y-96722500D02*
X56547500Y-98222500D01*
X55847500Y-98222500D01*
X55847500Y-96722500D01*
X56547500Y-96722500D01*
G36*
X64802500Y-81482500D02*
X64802500Y-82982500D01*
X64102500Y-82982500D01*
X64102500Y-81482500D01*
X64802500Y-81482500D01*
G37*
X64802500Y-81482500D02*
X64802500Y-82982500D01*
X64102500Y-82982500D01*
X64102500Y-81482500D01*
X64802500Y-81482500D01*
G36*
X66072500Y-96722500D02*
X66072500Y-98222500D01*
X65372500Y-98222500D01*
X65372500Y-96722500D01*
X66072500Y-96722500D01*
G37*
X66072500Y-96722500D02*
X66072500Y-98222500D01*
X65372500Y-98222500D01*
X65372500Y-96722500D01*
X66072500Y-96722500D01*
G36*
X87980000Y-81482500D02*
X87980000Y-82982500D01*
X87280000Y-82982500D01*
X87280000Y-81482500D01*
X87980000Y-81482500D01*
G37*
X87980000Y-81482500D02*
X87980000Y-82982500D01*
X87280000Y-82982500D01*
X87280000Y-81482500D01*
X87980000Y-81482500D01*
G36*
X89250000Y-96722500D02*
X89250000Y-98222500D01*
X88550000Y-98222500D01*
X88550000Y-96722500D01*
X89250000Y-96722500D01*
G37*
X89250000Y-96722500D02*
X89250000Y-98222500D01*
X88550000Y-98222500D01*
X88550000Y-96722500D01*
X89250000Y-96722500D01*
G36*
X97505000Y-81482500D02*
X97505000Y-82982500D01*
X96805000Y-82982500D01*
X96805000Y-81482500D01*
X97505000Y-81482500D01*
G37*
X97505000Y-81482500D02*
X97505000Y-82982500D01*
X96805000Y-82982500D01*
X96805000Y-81482500D01*
X97505000Y-81482500D01*
G36*
X98775000Y-96722500D02*
X98775000Y-98222500D01*
X98075000Y-98222500D01*
X98075000Y-96722500D01*
X98775000Y-96722500D01*
G37*
X98775000Y-96722500D02*
X98775000Y-98222500D01*
X98075000Y-98222500D01*
X98075000Y-96722500D01*
X98775000Y-96722500D01*
G36*
X111157500Y-81482500D02*
X111157500Y-82982500D01*
X110457500Y-82982500D01*
X110457500Y-81482500D01*
X111157500Y-81482500D01*
G37*
X111157500Y-81482500D02*
X111157500Y-82982500D01*
X110457500Y-82982500D01*
X110457500Y-81482500D01*
X111157500Y-81482500D01*
G36*
X112427500Y-96722500D02*
X112427500Y-98222500D01*
X111727500Y-98222500D01*
X111727500Y-96722500D01*
X112427500Y-96722500D01*
G37*
X112427500Y-96722500D02*
X112427500Y-98222500D01*
X111727500Y-98222500D01*
X111727500Y-96722500D01*
X112427500Y-96722500D01*
G36*
X120682500Y-81482500D02*
X120682500Y-82982500D01*
X119982500Y-82982500D01*
X119982500Y-81482500D01*
X120682500Y-81482500D01*
G37*
X120682500Y-81482500D02*
X120682500Y-82982500D01*
X119982500Y-82982500D01*
X119982500Y-81482500D01*
X120682500Y-81482500D01*
G36*
X121952500Y-96722500D02*
X121952500Y-98222500D01*
X121252500Y-98222500D01*
X121252500Y-96722500D01*
X121952500Y-96722500D01*
G37*
X121952500Y-96722500D02*
X121952500Y-98222500D01*
X121252500Y-98222500D01*
X121252500Y-96722500D01*
X121952500Y-96722500D01*
G36*
X34005000Y-81482500D02*
X34005000Y-82982500D01*
X33305000Y-82982500D01*
X33305000Y-81482500D01*
X34005000Y-81482500D01*
G37*
X34005000Y-81482500D02*
X34005000Y-82982500D01*
X33305000Y-82982500D01*
X33305000Y-81482500D01*
X34005000Y-81482500D01*
G36*
X31465000Y-96722500D02*
X31465000Y-98222500D01*
X30765000Y-98222500D01*
X30765000Y-96722500D01*
X31465000Y-96722500D01*
G37*
X31465000Y-96722500D02*
X31465000Y-98222500D01*
X30765000Y-98222500D01*
X30765000Y-96722500D01*
X31465000Y-96722500D01*
G36*
X43530000Y-81482500D02*
X43530000Y-82982500D01*
X42830000Y-82982500D01*
X42830000Y-81482500D01*
X43530000Y-81482500D01*
G37*
X43530000Y-81482500D02*
X43530000Y-82982500D01*
X42830000Y-82982500D01*
X42830000Y-81482500D01*
X43530000Y-81482500D01*
G36*
X40990000Y-96722500D02*
X40990000Y-98222500D01*
X40290000Y-98222500D01*
X40290000Y-96722500D01*
X40990000Y-96722500D01*
G37*
X40990000Y-96722500D02*
X40990000Y-98222500D01*
X40290000Y-98222500D01*
X40290000Y-96722500D01*
X40990000Y-96722500D01*
G36*
X57182500Y-81482500D02*
X57182500Y-82982500D01*
X56482500Y-82982500D01*
X56482500Y-81482500D01*
X57182500Y-81482500D01*
G37*
X57182500Y-81482500D02*
X57182500Y-82982500D01*
X56482500Y-82982500D01*
X56482500Y-81482500D01*
X57182500Y-81482500D01*
G36*
X54642500Y-96722500D02*
X54642500Y-98222500D01*
X53942500Y-98222500D01*
X53942500Y-96722500D01*
X54642500Y-96722500D01*
G37*
X54642500Y-96722500D02*
X54642500Y-98222500D01*
X53942500Y-98222500D01*
X53942500Y-96722500D01*
X54642500Y-96722500D01*
G36*
X66707500Y-81482500D02*
X66707500Y-82982500D01*
X66007500Y-82982500D01*
X66007500Y-81482500D01*
X66707500Y-81482500D01*
G37*
X66707500Y-81482500D02*
X66707500Y-82982500D01*
X66007500Y-82982500D01*
X66007500Y-81482500D01*
X66707500Y-81482500D01*
G36*
X64167500Y-96722500D02*
X64167500Y-98222500D01*
X63467500Y-98222500D01*
X63467500Y-96722500D01*
X64167500Y-96722500D01*
G37*
X64167500Y-96722500D02*
X64167500Y-98222500D01*
X63467500Y-98222500D01*
X63467500Y-96722500D01*
X64167500Y-96722500D01*
G36*
X89885000Y-81482500D02*
X89885000Y-82982500D01*
X89185000Y-82982500D01*
X89185000Y-81482500D01*
X89885000Y-81482500D01*
G37*
X89885000Y-81482500D02*
X89885000Y-82982500D01*
X89185000Y-82982500D01*
X89185000Y-81482500D01*
X89885000Y-81482500D01*
G36*
X87345000Y-96722500D02*
X87345000Y-98222500D01*
X86645000Y-98222500D01*
X86645000Y-96722500D01*
X87345000Y-96722500D01*
G37*
X87345000Y-96722500D02*
X87345000Y-98222500D01*
X86645000Y-98222500D01*
X86645000Y-96722500D01*
X87345000Y-96722500D01*
G36*
X99410000Y-81482500D02*
X99410000Y-82982500D01*
X98710000Y-82982500D01*
X98710000Y-81482500D01*
X99410000Y-81482500D01*
G37*
X99410000Y-81482500D02*
X99410000Y-82982500D01*
X98710000Y-82982500D01*
X98710000Y-81482500D01*
X99410000Y-81482500D01*
G36*
X96870000Y-96722500D02*
X96870000Y-98222500D01*
X96170000Y-98222500D01*
X96170000Y-96722500D01*
X96870000Y-96722500D01*
G37*
X96870000Y-96722500D02*
X96870000Y-98222500D01*
X96170000Y-98222500D01*
X96170000Y-96722500D01*
X96870000Y-96722500D01*
G36*
X113062500Y-81482500D02*
X113062500Y-82982500D01*
X112362500Y-82982500D01*
X112362500Y-81482500D01*
X113062500Y-81482500D01*
G37*
X113062500Y-81482500D02*
X113062500Y-82982500D01*
X112362500Y-82982500D01*
X112362500Y-81482500D01*
X113062500Y-81482500D01*
G36*
X110522500Y-96722500D02*
X110522500Y-98222500D01*
X109822500Y-98222500D01*
X109822500Y-96722500D01*
X110522500Y-96722500D01*
G37*
X110522500Y-96722500D02*
X110522500Y-98222500D01*
X109822500Y-98222500D01*
X109822500Y-96722500D01*
X110522500Y-96722500D01*
G36*
X122587500Y-81482500D02*
X122587500Y-82982500D01*
X121887500Y-82982500D01*
X121887500Y-81482500D01*
X122587500Y-81482500D01*
G37*
X122587500Y-81482500D02*
X122587500Y-82982500D01*
X121887500Y-82982500D01*
X121887500Y-81482500D01*
X122587500Y-81482500D01*
G36*
X120047500Y-96722500D02*
X120047500Y-98222500D01*
X119347500Y-98222500D01*
X119347500Y-96722500D01*
X120047500Y-96722500D01*
G37*
X120047500Y-96722500D02*
X120047500Y-98222500D01*
X119347500Y-98222500D01*
X119347500Y-96722500D01*
X120047500Y-96722500D01*
G36*
X35910000Y-81482500D02*
X35910000Y-82982500D01*
X35210000Y-82982500D01*
X35210000Y-81482500D01*
X35910000Y-81482500D01*
G37*
X35910000Y-81482500D02*
X35910000Y-82982500D01*
X35210000Y-82982500D01*
X35210000Y-81482500D01*
X35910000Y-81482500D01*
G36*
X29560000Y-96722500D02*
X29560000Y-98222500D01*
X28860000Y-98222500D01*
X28860000Y-96722500D01*
X29560000Y-96722500D01*
G37*
X29560000Y-96722500D02*
X29560000Y-98222500D01*
X28860000Y-98222500D01*
X28860000Y-96722500D01*
X29560000Y-96722500D01*
G36*
X45435000Y-81482500D02*
X45435000Y-82982500D01*
X44735000Y-82982500D01*
X44735000Y-81482500D01*
X45435000Y-81482500D01*
G37*
X45435000Y-81482500D02*
X45435000Y-82982500D01*
X44735000Y-82982500D01*
X44735000Y-81482500D01*
X45435000Y-81482500D01*
G36*
X39085000Y-96722500D02*
X39085000Y-98222500D01*
X38385000Y-98222500D01*
X38385000Y-96722500D01*
X39085000Y-96722500D01*
G37*
X39085000Y-96722500D02*
X39085000Y-98222500D01*
X38385000Y-98222500D01*
X38385000Y-96722500D01*
X39085000Y-96722500D01*
G36*
X59087500Y-81482500D02*
X59087500Y-82982500D01*
X58387500Y-82982500D01*
X58387500Y-81482500D01*
X59087500Y-81482500D01*
G37*
X59087500Y-81482500D02*
X59087500Y-82982500D01*
X58387500Y-82982500D01*
X58387500Y-81482500D01*
X59087500Y-81482500D01*
G36*
X52737500Y-96722500D02*
X52737500Y-98222500D01*
X52037500Y-98222500D01*
X52037500Y-96722500D01*
X52737500Y-96722500D01*
G37*
X52737500Y-96722500D02*
X52737500Y-98222500D01*
X52037500Y-98222500D01*
X52037500Y-96722500D01*
X52737500Y-96722500D01*
G36*
X68612500Y-81482500D02*
X68612500Y-82982500D01*
X67912500Y-82982500D01*
X67912500Y-81482500D01*
X68612500Y-81482500D01*
G37*
X68612500Y-81482500D02*
X68612500Y-82982500D01*
X67912500Y-82982500D01*
X67912500Y-81482500D01*
X68612500Y-81482500D01*
G36*
X62262500Y-96722500D02*
X62262500Y-98222500D01*
X61562500Y-98222500D01*
X61562500Y-96722500D01*
X62262500Y-96722500D01*
G37*
X62262500Y-96722500D02*
X62262500Y-98222500D01*
X61562500Y-98222500D01*
X61562500Y-96722500D01*
X62262500Y-96722500D01*
G36*
X91790000Y-81482500D02*
X91790000Y-82982500D01*
X91090000Y-82982500D01*
X91090000Y-81482500D01*
X91790000Y-81482500D01*
G37*
X91790000Y-81482500D02*
X91790000Y-82982500D01*
X91090000Y-82982500D01*
X91090000Y-81482500D01*
X91790000Y-81482500D01*
G36*
X85440000Y-96722500D02*
X85440000Y-98222500D01*
X84740000Y-98222500D01*
X84740000Y-96722500D01*
X85440000Y-96722500D01*
G37*
X85440000Y-96722500D02*
X85440000Y-98222500D01*
X84740000Y-98222500D01*
X84740000Y-96722500D01*
X85440000Y-96722500D01*
G36*
X101315000Y-81482500D02*
X101315000Y-82982500D01*
X100615000Y-82982500D01*
X100615000Y-81482500D01*
X101315000Y-81482500D01*
G37*
X101315000Y-81482500D02*
X101315000Y-82982500D01*
X100615000Y-82982500D01*
X100615000Y-81482500D01*
X101315000Y-81482500D01*
G36*
X94965000Y-96722500D02*
X94965000Y-98222500D01*
X94265000Y-98222500D01*
X94265000Y-96722500D01*
X94965000Y-96722500D01*
G37*
X94965000Y-96722500D02*
X94965000Y-98222500D01*
X94265000Y-98222500D01*
X94265000Y-96722500D01*
X94965000Y-96722500D01*
G36*
X114967500Y-81482500D02*
X114967500Y-82982500D01*
X114267500Y-82982500D01*
X114267500Y-81482500D01*
X114967500Y-81482500D01*
G37*
X114967500Y-81482500D02*
X114967500Y-82982500D01*
X114267500Y-82982500D01*
X114267500Y-81482500D01*
X114967500Y-81482500D01*
G36*
X108617500Y-96722500D02*
X108617500Y-98222500D01*
X107917500Y-98222500D01*
X107917500Y-96722500D01*
X108617500Y-96722500D01*
G37*
X108617500Y-96722500D02*
X108617500Y-98222500D01*
X107917500Y-98222500D01*
X107917500Y-96722500D01*
X108617500Y-96722500D01*
G36*
X124492500Y-81482500D02*
X124492500Y-82982500D01*
X123792500Y-82982500D01*
X123792500Y-81482500D01*
X124492500Y-81482500D01*
G37*
X124492500Y-81482500D02*
X124492500Y-82982500D01*
X123792500Y-82982500D01*
X123792500Y-81482500D01*
X124492500Y-81482500D01*
G36*
X118142500Y-96722500D02*
X118142500Y-98222500D01*
X117442500Y-98222500D01*
X117442500Y-96722500D01*
X118142500Y-96722500D01*
G37*
X118142500Y-96722500D02*
X118142500Y-98222500D01*
X117442500Y-98222500D01*
X117442500Y-96722500D01*
X118142500Y-96722500D01*
G36*
X113380000Y-69100000D02*
X113380000Y-70600000D01*
X112680000Y-70600000D01*
X112680000Y-69100000D01*
X113380000Y-69100000D01*
G37*
X113380000Y-69100000D02*
X113380000Y-70600000D01*
X112680000Y-70600000D01*
X112680000Y-69100000D01*
X113380000Y-69100000D01*
G36*
X81079037Y-89852500D02*
X76200000Y-94731537D01*
X71320963Y-89852500D01*
X76200000Y-84973463D01*
X81079037Y-89852500D01*
G37*
X81079037Y-89852500D02*
X76200000Y-94731537D01*
X71320963Y-89852500D01*
X76200000Y-84973463D01*
X81079037Y-89852500D01*
G36*
X27940000Y-109855000D02*
X68580000Y-109855000D01*
X68580000Y-102870000D01*
X27940000Y-102870000D01*
X27940000Y-109855000D01*
G37*
X27940000Y-109855000D02*
X68580000Y-109855000D01*
X68580000Y-102870000D01*
X27940000Y-102870000D01*
X27940000Y-109855000D01*
G36*
X27940000Y-119380000D02*
X68580000Y-119380000D01*
X68580000Y-112395000D01*
X27940000Y-112395000D01*
X27940000Y-119380000D01*
G37*
X27940000Y-119380000D02*
X68580000Y-119380000D01*
X68580000Y-112395000D01*
X27940000Y-112395000D01*
X27940000Y-119380000D01*
G36*
X124460000Y-42227500D02*
X83820000Y-42227500D01*
X83820000Y-49212500D01*
X124460000Y-49212500D01*
X124460000Y-42227500D01*
G37*
X124460000Y-42227500D02*
X83820000Y-42227500D01*
X83820000Y-49212500D01*
X124460000Y-49212500D01*
X124460000Y-42227500D01*
G36*
X124460000Y-32702500D02*
X83820000Y-32702500D01*
X83820000Y-39687500D01*
X124460000Y-39687500D01*
X124460000Y-32702500D01*
G37*
X124460000Y-32702500D02*
X83820000Y-32702500D01*
X83820000Y-39687500D01*
X124460000Y-39687500D01*
X124460000Y-32702500D01*
G36*
X83820000Y-109855000D02*
X124460000Y-109855000D01*
X124460000Y-102870000D01*
X83820000Y-102870000D01*
X83820000Y-109855000D01*
G37*
X83820000Y-109855000D02*
X124460000Y-109855000D01*
X124460000Y-102870000D01*
X83820000Y-102870000D01*
X83820000Y-109855000D01*
G36*
X83820000Y-119380000D02*
X124460000Y-119380000D01*
X124460000Y-112395000D01*
X83820000Y-112395000D01*
X83820000Y-119380000D01*
G37*
X83820000Y-119380000D02*
X124460000Y-119380000D01*
X124460000Y-112395000D01*
X83820000Y-112395000D01*
X83820000Y-119380000D01*
G36*
X68580000Y-42227500D02*
X27940000Y-42227500D01*
X27940000Y-49212500D01*
X68580000Y-49212500D01*
X68580000Y-42227500D01*
G37*
X68580000Y-42227500D02*
X27940000Y-42227500D01*
X27940000Y-49212500D01*
X68580000Y-49212500D01*
X68580000Y-42227500D01*
G36*
X68580000Y-32702500D02*
X27940000Y-32702500D01*
X27940000Y-39687500D01*
X68580000Y-39687500D01*
X68580000Y-32702500D01*
G37*
X68580000Y-32702500D02*
X27940000Y-32702500D01*
X27940000Y-39687500D01*
X68580000Y-39687500D01*
X68580000Y-32702500D01*
G36*
X81280000Y-42227500D02*
X71120000Y-42227500D01*
X71120000Y-49212500D01*
X81280000Y-49212500D01*
X81280000Y-42227500D01*
G37*
X81280000Y-42227500D02*
X71120000Y-42227500D01*
X71120000Y-49212500D01*
X81280000Y-49212500D01*
X81280000Y-42227500D01*
G36*
X81280000Y-32702500D02*
X71120000Y-32702500D01*
X71120000Y-39687500D01*
X81280000Y-39687500D01*
X81280000Y-32702500D01*
G37*
X81280000Y-32702500D02*
X71120000Y-32702500D01*
X71120000Y-39687500D01*
X81280000Y-39687500D01*
X81280000Y-32702500D01*
G36*
X57377500Y-64380000D02*
X52477500Y-64380000D01*
X52477500Y-60080000D01*
X57377500Y-60080000D01*
X57377500Y-64380000D01*
G37*
X57377500Y-64380000D02*
X52477500Y-64380000D01*
X52477500Y-60080000D01*
X57377500Y-60080000D01*
X57377500Y-64380000D01*
G36*
X101848750Y-87702500D02*
X106748750Y-87702500D01*
X106748750Y-92002500D01*
X101848750Y-92002500D01*
X101848750Y-87702500D01*
G37*
X101848750Y-87702500D02*
X106748750Y-87702500D01*
X106748750Y-92002500D01*
X101848750Y-92002500D01*
X101848750Y-87702500D01*
G36*
X45968750Y-87702500D02*
X50868750Y-87702500D01*
X50868750Y-92002500D01*
X45968750Y-92002500D01*
X45968750Y-87702500D01*
G37*
X45968750Y-87702500D02*
X50868750Y-87702500D01*
X50868750Y-92002500D01*
X45968750Y-92002500D01*
X45968750Y-87702500D01*
G36*
X106431250Y-64380000D02*
X101531250Y-64380000D01*
X101531250Y-60080000D01*
X106431250Y-60080000D01*
X106431250Y-64380000D01*
G37*
X106431250Y-64380000D02*
X101531250Y-64380000D01*
X101531250Y-60080000D01*
X106431250Y-60080000D01*
X106431250Y-64380000D01*
G36*
X50551250Y-64380000D02*
X45651250Y-64380000D01*
X45651250Y-60080000D01*
X50551250Y-60080000D01*
X50551250Y-64380000D01*
G37*
X50551250Y-64380000D02*
X45651250Y-64380000D01*
X45651250Y-60080000D01*
X50551250Y-60080000D01*
X50551250Y-64380000D01*
G36*
X118200000Y-87702500D02*
X123100000Y-87702500D01*
X123100000Y-92002500D01*
X118200000Y-92002500D01*
X118200000Y-87702500D01*
G37*
X118200000Y-87702500D02*
X123100000Y-87702500D01*
X123100000Y-92002500D01*
X118200000Y-92002500D01*
X118200000Y-87702500D01*
G36*
X108675000Y-87702500D02*
X113575000Y-87702500D01*
X113575000Y-92002500D01*
X108675000Y-92002500D01*
X108675000Y-87702500D01*
G37*
X108675000Y-87702500D02*
X113575000Y-87702500D01*
X113575000Y-92002500D01*
X108675000Y-92002500D01*
X108675000Y-87702500D01*
G36*
X95022500Y-87702500D02*
X99922500Y-87702500D01*
X99922500Y-92002500D01*
X95022500Y-92002500D01*
X95022500Y-87702500D01*
G37*
X95022500Y-87702500D02*
X99922500Y-87702500D01*
X99922500Y-92002500D01*
X95022500Y-92002500D01*
X95022500Y-87702500D01*
G36*
X85497500Y-87702500D02*
X90397500Y-87702500D01*
X90397500Y-92002500D01*
X85497500Y-92002500D01*
X85497500Y-87702500D01*
G37*
X85497500Y-87702500D02*
X90397500Y-87702500D01*
X90397500Y-92002500D01*
X85497500Y-92002500D01*
X85497500Y-87702500D01*
G36*
X62320000Y-87702500D02*
X67220000Y-87702500D01*
X67220000Y-92002500D01*
X62320000Y-92002500D01*
X62320000Y-87702500D01*
G37*
X62320000Y-87702500D02*
X67220000Y-87702500D01*
X67220000Y-92002500D01*
X62320000Y-92002500D01*
X62320000Y-87702500D01*
G36*
X52795000Y-87702500D02*
X57695000Y-87702500D01*
X57695000Y-92002500D01*
X52795000Y-92002500D01*
X52795000Y-87702500D01*
G37*
X52795000Y-87702500D02*
X57695000Y-87702500D01*
X57695000Y-92002500D01*
X52795000Y-92002500D01*
X52795000Y-87702500D01*
G36*
X39142500Y-87702500D02*
X44042500Y-87702500D01*
X44042500Y-92002500D01*
X39142500Y-92002500D01*
X39142500Y-87702500D01*
G37*
X39142500Y-87702500D02*
X44042500Y-87702500D01*
X44042500Y-92002500D01*
X39142500Y-92002500D01*
X39142500Y-87702500D01*
G36*
X29617500Y-87702500D02*
X34517500Y-87702500D01*
X34517500Y-92002500D01*
X29617500Y-92002500D01*
X29617500Y-87702500D01*
G37*
X29617500Y-87702500D02*
X34517500Y-87702500D01*
X34517500Y-92002500D01*
X29617500Y-92002500D01*
X29617500Y-87702500D01*
G36*
X122782500Y-64380000D02*
X117882500Y-64380000D01*
X117882500Y-60080000D01*
X122782500Y-60080000D01*
X122782500Y-64380000D01*
G37*
X122782500Y-64380000D02*
X117882500Y-64380000D01*
X117882500Y-60080000D01*
X122782500Y-60080000D01*
X122782500Y-64380000D01*
G36*
X113257500Y-64380000D02*
X108357500Y-64380000D01*
X108357500Y-60080000D01*
X113257500Y-60080000D01*
X113257500Y-64380000D01*
G37*
X113257500Y-64380000D02*
X108357500Y-64380000D01*
X108357500Y-60080000D01*
X113257500Y-60080000D01*
X113257500Y-64380000D01*
G36*
X99605000Y-64380000D02*
X94705000Y-64380000D01*
X94705000Y-60080000D01*
X99605000Y-60080000D01*
X99605000Y-64380000D01*
G37*
X99605000Y-64380000D02*
X94705000Y-64380000D01*
X94705000Y-60080000D01*
X99605000Y-60080000D01*
X99605000Y-64380000D01*
G36*
X90080000Y-64380000D02*
X85180000Y-64380000D01*
X85180000Y-60080000D01*
X90080000Y-60080000D01*
X90080000Y-64380000D01*
G37*
X90080000Y-64380000D02*
X85180000Y-64380000D01*
X85180000Y-60080000D01*
X90080000Y-60080000D01*
X90080000Y-64380000D01*
G36*
X66902500Y-64380000D02*
X62002500Y-64380000D01*
X62002500Y-60080000D01*
X66902500Y-60080000D01*
X66902500Y-64380000D01*
G37*
X66902500Y-64380000D02*
X62002500Y-64380000D01*
X62002500Y-60080000D01*
X66902500Y-60080000D01*
X66902500Y-64380000D01*
G36*
X43725000Y-64380000D02*
X38825000Y-64380000D01*
X38825000Y-60080000D01*
X43725000Y-60080000D01*
X43725000Y-64380000D01*
G37*
X43725000Y-64380000D02*
X38825000Y-64380000D01*
X38825000Y-60080000D01*
X43725000Y-60080000D01*
X43725000Y-64380000D01*
G36*
X34200000Y-64380000D02*
X29300000Y-64380000D01*
X29300000Y-60080000D01*
X34200000Y-60080000D01*
X34200000Y-64380000D01*
G37*
X34200000Y-64380000D02*
X29300000Y-64380000D01*
X29300000Y-60080000D01*
X34200000Y-60080000D01*
X34200000Y-64380000D01*
G36*
X72500000Y-126071250D02*
X79900000Y-126071250D01*
X79900000Y-120971250D01*
X72500000Y-120971250D01*
X72500000Y-126071250D01*
G37*
X72500000Y-126071250D02*
X79900000Y-126071250D01*
X79900000Y-120971250D01*
X72500000Y-120971250D01*
X72500000Y-126071250D01*
G36*
X36227500Y-70370000D02*
X36227500Y-71870000D01*
X35527500Y-71870000D01*
X35527500Y-70370000D01*
X36227500Y-70370000D01*
G37*
X36227500Y-70370000D02*
X36227500Y-71870000D01*
X35527500Y-71870000D01*
X35527500Y-70370000D01*
X36227500Y-70370000D01*
G36*
X45752500Y-70370000D02*
X45752500Y-71870000D01*
X45052500Y-71870000D01*
X45052500Y-70370000D01*
X45752500Y-70370000D01*
G37*
X45752500Y-70370000D02*
X45752500Y-71870000D01*
X45052500Y-71870000D01*
X45052500Y-70370000D01*
X45752500Y-70370000D01*
G36*
X59405000Y-70370000D02*
X59405000Y-71870000D01*
X58705000Y-71870000D01*
X58705000Y-70370000D01*
X59405000Y-70370000D01*
G37*
X59405000Y-70370000D02*
X59405000Y-71870000D01*
X58705000Y-71870000D01*
X58705000Y-70370000D01*
X59405000Y-70370000D01*
G36*
X68930000Y-70370000D02*
X68930000Y-71870000D01*
X68230000Y-71870000D01*
X68230000Y-70370000D01*
X68930000Y-70370000D01*
G37*
X68930000Y-70370000D02*
X68930000Y-71870000D01*
X68230000Y-71870000D01*
X68230000Y-70370000D01*
X68930000Y-70370000D01*
G36*
X92107500Y-70370000D02*
X92107500Y-71870000D01*
X91407500Y-71870000D01*
X91407500Y-70370000D01*
X92107500Y-70370000D01*
G37*
X92107500Y-70370000D02*
X92107500Y-71870000D01*
X91407500Y-71870000D01*
X91407500Y-70370000D01*
X92107500Y-70370000D01*
G36*
X101632500Y-70370000D02*
X101632500Y-71870000D01*
X100932500Y-71870000D01*
X100932500Y-70370000D01*
X101632500Y-70370000D01*
G37*
X101632500Y-70370000D02*
X101632500Y-71870000D01*
X100932500Y-71870000D01*
X100932500Y-70370000D01*
X101632500Y-70370000D01*
G36*
X115285000Y-70370000D02*
X115285000Y-71870000D01*
X114585000Y-71870000D01*
X114585000Y-70370000D01*
X115285000Y-70370000D01*
G37*
X115285000Y-70370000D02*
X115285000Y-71870000D01*
X114585000Y-71870000D01*
X114585000Y-70370000D01*
X115285000Y-70370000D01*
G36*
X124810000Y-70370000D02*
X124810000Y-71870000D01*
X124110000Y-71870000D01*
X124110000Y-70370000D01*
X124810000Y-70370000D01*
G37*
X124810000Y-70370000D02*
X124810000Y-71870000D01*
X124110000Y-71870000D01*
X124110000Y-70370000D01*
X124810000Y-70370000D01*
G36*
X27590000Y-81712500D02*
X27590000Y-80212500D01*
X28290000Y-80212500D01*
X28290000Y-81712500D01*
X27590000Y-81712500D01*
G37*
X27590000Y-81712500D02*
X27590000Y-80212500D01*
X28290000Y-80212500D01*
X28290000Y-81712500D01*
X27590000Y-81712500D01*
G36*
X37115000Y-81712500D02*
X37115000Y-80212500D01*
X37815000Y-80212500D01*
X37815000Y-81712500D01*
X37115000Y-81712500D01*
G37*
X37115000Y-81712500D02*
X37115000Y-80212500D01*
X37815000Y-80212500D01*
X37815000Y-81712500D01*
X37115000Y-81712500D01*
G36*
X50767500Y-81712500D02*
X50767500Y-80212500D01*
X51467500Y-80212500D01*
X51467500Y-81712500D01*
X50767500Y-81712500D01*
G37*
X50767500Y-81712500D02*
X50767500Y-80212500D01*
X51467500Y-80212500D01*
X51467500Y-81712500D01*
X50767500Y-81712500D01*
G36*
X60292500Y-81712500D02*
X60292500Y-80212500D01*
X60992500Y-80212500D01*
X60992500Y-81712500D01*
X60292500Y-81712500D01*
G37*
X60292500Y-81712500D02*
X60292500Y-80212500D01*
X60992500Y-80212500D01*
X60992500Y-81712500D01*
X60292500Y-81712500D01*
G36*
X83470000Y-81712500D02*
X83470000Y-80212500D01*
X84170000Y-80212500D01*
X84170000Y-81712500D01*
X83470000Y-81712500D01*
G37*
X83470000Y-81712500D02*
X83470000Y-80212500D01*
X84170000Y-80212500D01*
X84170000Y-81712500D01*
X83470000Y-81712500D01*
G36*
X92995000Y-81712500D02*
X92995000Y-80212500D01*
X93695000Y-80212500D01*
X93695000Y-81712500D01*
X92995000Y-81712500D01*
G37*
X92995000Y-81712500D02*
X92995000Y-80212500D01*
X93695000Y-80212500D01*
X93695000Y-81712500D01*
X92995000Y-81712500D01*
G36*
X106647500Y-81712500D02*
X106647500Y-80212500D01*
X107347500Y-80212500D01*
X107347500Y-81712500D01*
X106647500Y-81712500D01*
G37*
X106647500Y-81712500D02*
X106647500Y-80212500D01*
X107347500Y-80212500D01*
X107347500Y-81712500D01*
X106647500Y-81712500D01*
G36*
X116172500Y-81712500D02*
X116172500Y-80212500D01*
X116872500Y-80212500D01*
X116872500Y-81712500D01*
X116172500Y-81712500D01*
G37*
X116172500Y-81712500D02*
X116172500Y-80212500D01*
X116872500Y-80212500D01*
X116872500Y-81712500D01*
X116172500Y-81712500D01*
G36*
X49880000Y-70370000D02*
X49880000Y-71870000D01*
X49180000Y-71870000D01*
X49180000Y-70370000D01*
X49880000Y-70370000D01*
G37*
X49880000Y-70370000D02*
X49880000Y-71870000D01*
X49180000Y-71870000D01*
X49180000Y-70370000D01*
X49880000Y-70370000D01*
G36*
X105760000Y-70370000D02*
X105760000Y-71870000D01*
X105060000Y-71870000D01*
X105060000Y-70370000D01*
X105760000Y-70370000D01*
G37*
X105760000Y-70370000D02*
X105760000Y-71870000D01*
X105060000Y-71870000D01*
X105060000Y-70370000D01*
X105760000Y-70370000D01*
G36*
X46640000Y-81712500D02*
X46640000Y-80212500D01*
X47340000Y-80212500D01*
X47340000Y-81712500D01*
X46640000Y-81712500D01*
G37*
X46640000Y-81712500D02*
X46640000Y-80212500D01*
X47340000Y-80212500D01*
X47340000Y-81712500D01*
X46640000Y-81712500D01*
G36*
X102520000Y-81712500D02*
X102520000Y-80212500D01*
X103220000Y-80212500D01*
X103220000Y-81712500D01*
X102520000Y-81712500D01*
G37*
X102520000Y-81712500D02*
X102520000Y-80212500D01*
X103220000Y-80212500D01*
X103220000Y-81712500D01*
X102520000Y-81712500D01*
G36*
X74625000Y-103352500D02*
X71425000Y-103352500D01*
X71425000Y-101752500D01*
X74625000Y-101752500D01*
X74625000Y-103352500D01*
G37*
X74625000Y-103352500D02*
X71425000Y-103352500D01*
X71425000Y-101752500D01*
X74625000Y-101752500D01*
X74625000Y-103352500D01*
G36*
X76550000Y-97357500D02*
X76550000Y-98857500D01*
X75850000Y-98857500D01*
X75850000Y-97357500D01*
X76550000Y-97357500D01*
G37*
X76550000Y-97357500D02*
X76550000Y-98857500D01*
X75850000Y-98857500D01*
X75850000Y-97357500D01*
X76550000Y-97357500D01*
G36*
X82900000Y-96722500D02*
X82900000Y-98222500D01*
X82200000Y-98222500D01*
X82200000Y-96722500D01*
X82900000Y-96722500D01*
G37*
X82900000Y-96722500D02*
X82900000Y-98222500D01*
X82200000Y-98222500D01*
X82200000Y-96722500D01*
X82900000Y-96722500D01*
G36*
X70517500Y-96722500D02*
X70517500Y-98222500D01*
X69817500Y-98222500D01*
X69817500Y-96722500D01*
X70517500Y-96722500D01*
G37*
X70517500Y-96722500D02*
X70517500Y-98222500D01*
X69817500Y-98222500D01*
X69817500Y-96722500D01*
X70517500Y-96722500D01*
G36*
X36862500Y-53542500D02*
X36862500Y-55042500D01*
X36162500Y-55042500D01*
X36162500Y-53542500D01*
X36862500Y-53542500D01*
G37*
X36862500Y-53542500D02*
X36862500Y-55042500D01*
X36162500Y-55042500D01*
X36162500Y-53542500D01*
X36862500Y-53542500D01*
G36*
X60040000Y-53542500D02*
X60040000Y-55042500D01*
X59340000Y-55042500D01*
X59340000Y-53542500D01*
X60040000Y-53542500D01*
G37*
X60040000Y-53542500D02*
X60040000Y-55042500D01*
X59340000Y-55042500D01*
X59340000Y-53542500D01*
X60040000Y-53542500D01*
G36*
X92742500Y-53542500D02*
X92742500Y-55042500D01*
X92042500Y-55042500D01*
X92042500Y-53542500D01*
X92742500Y-53542500D01*
G37*
X92742500Y-53542500D02*
X92742500Y-55042500D01*
X92042500Y-55042500D01*
X92042500Y-53542500D01*
X92742500Y-53542500D01*
G36*
X115920000Y-53542500D02*
X115920000Y-55042500D01*
X115220000Y-55042500D01*
X115220000Y-53542500D01*
X115920000Y-53542500D01*
G37*
X115920000Y-53542500D02*
X115920000Y-55042500D01*
X115220000Y-55042500D01*
X115220000Y-53542500D01*
X115920000Y-53542500D01*
G36*
X36480000Y-98540000D02*
X36480000Y-97040000D01*
X37180000Y-97040000D01*
X37180000Y-98540000D01*
X36480000Y-98540000D01*
G37*
X36480000Y-98540000D02*
X36480000Y-97040000D01*
X37180000Y-97040000D01*
X37180000Y-98540000D01*
X36480000Y-98540000D01*
G36*
X59657500Y-98540000D02*
X59657500Y-97040000D01*
X60357500Y-97040000D01*
X60357500Y-98540000D01*
X59657500Y-98540000D01*
G37*
X59657500Y-98540000D02*
X59657500Y-97040000D01*
X60357500Y-97040000D01*
X60357500Y-98540000D01*
X59657500Y-98540000D01*
G36*
X92360000Y-98540000D02*
X92360000Y-97040000D01*
X93060000Y-97040000D01*
X93060000Y-98540000D01*
X92360000Y-98540000D01*
G37*
X92360000Y-98540000D02*
X92360000Y-97040000D01*
X93060000Y-97040000D01*
X93060000Y-98540000D01*
X92360000Y-98540000D01*
G36*
X115537500Y-98540000D02*
X115537500Y-97040000D01*
X116237500Y-97040000D01*
X116237500Y-98540000D01*
X115537500Y-98540000D01*
G37*
X115537500Y-98540000D02*
X115537500Y-97040000D01*
X116237500Y-97040000D01*
X116237500Y-98540000D01*
X115537500Y-98540000D01*
G36*
X82900000Y-53542500D02*
X82900000Y-55042500D01*
X82200000Y-55042500D01*
X82200000Y-53542500D01*
X82900000Y-53542500D01*
G37*
X82900000Y-53542500D02*
X82900000Y-55042500D01*
X82200000Y-55042500D01*
X82200000Y-53542500D01*
X82900000Y-53542500D01*
G36*
X70200000Y-53542500D02*
X70200000Y-55042500D01*
X69500000Y-55042500D01*
X69500000Y-53542500D01*
X70200000Y-53542500D01*
G37*
X70200000Y-53542500D02*
X70200000Y-55042500D01*
X69500000Y-55042500D01*
X69500000Y-53542500D01*
X70200000Y-53542500D01*
G36*
X78455000Y-97992500D02*
X78455000Y-99492500D01*
X77755000Y-99492500D01*
X77755000Y-97992500D01*
X78455000Y-97992500D01*
G37*
X78455000Y-97992500D02*
X78455000Y-99492500D01*
X77755000Y-99492500D01*
X77755000Y-97992500D01*
X78455000Y-97992500D01*
G36*
X80995000Y-97992500D02*
X80995000Y-99492500D01*
X80295000Y-99492500D01*
X80295000Y-97992500D01*
X80995000Y-97992500D01*
G37*
X80995000Y-97992500D02*
X80995000Y-99492500D01*
X80295000Y-99492500D01*
X80295000Y-97992500D01*
X80995000Y-97992500D01*
G36*
X80810100Y-60642500D02*
X80810100Y-63817500D01*
X79209900Y-63817500D01*
X79209900Y-60642500D01*
X80810100Y-60642500D01*
G37*
X80810100Y-60642500D02*
X80810100Y-63817500D01*
X79209900Y-63817500D01*
X79209900Y-60642500D01*
X80810100Y-60642500D01*
G36*
X77000100Y-60642500D02*
X77000100Y-63817500D01*
X75399900Y-63817500D01*
X75399900Y-60642500D01*
X77000100Y-60642500D01*
G37*
X77000100Y-60642500D02*
X77000100Y-63817500D01*
X75399900Y-63817500D01*
X75399900Y-60642500D01*
X77000100Y-60642500D01*
G36*
X73190100Y-60642500D02*
X73190100Y-63817500D01*
X71589900Y-63817500D01*
X71589900Y-60642500D01*
X73190100Y-60642500D01*
G37*
X73190100Y-60642500D02*
X73190100Y-63817500D01*
X71589900Y-63817500D01*
X71589900Y-60642500D01*
X73190100Y-60642500D01*
M02*
